<?xml version="1.0" encoding="UTF-8"?>
<svg id="_Слой_1" data-name="Слой_1" xmlns="http://www.w3.org/2000/svg" version="1.1" xmlns:xodm="http://www.corel.com/coreldraw/odm/2003" viewBox="0 0 122.9 122.9">
  <!-- Generator: Adobe Illustrator 29.1.0, SVG Export Plug-In . SVG Version: 2.1.0 Build 142)  -->
  <defs>
    <style>
      .st0 {
        fill: #fff;
      }

      .st1 {
        fill: red;
      }
    </style>
  </defs>
  <circle class="st1" cx="61.4" cy="61.4" r="61.4"/>
  <path class="st0" d="M90.7,91.1s-.3-.2-.3-.4c-3.9-5.6-6.5-9.2-8.5-11.5-1.8-2.3-3.5-5.5-6.2-10.8-3.7-7.1-3.9-8.1-3.9-8.3,0-.4.4-.9,1.1-1.4,3.2-3,5.6-5.8,7.4-8.6,2.8-4.2,5.1-9.2,6.7-14.5,1.6-4.9,2.3-7.1,2.3-8.1,0-1.9-4.1-2.1-6-2.1h-5.3c-1.1.2-1.8.7-2.1,1.4-.7,2.1-1.6,4.4-2.3,6.5-.9,2.1-1.6,4.4-2.5,6.5-2.3,5.5-4.4,9.2-6.9,11.3-3,2.3-3.4,3.6-9.4,3.6s-5.3-.5-5.4-.6v-27.1c0-.9-.7-1.6-1.8-1.6h-10.6c-1.6,0-1.9,1.6-1.9,5.1s0,6,.5,13.6.5,13.4.5,16.9-.2,9.2-.5,16c-.5,7.2-.5,10.7-.5,14.2s.7,3.4,1.9,3.4h12.2c.4-.4.5-.9.5-2.3v-4.4c0-2.5-.2-5.5-.2-9-.4-5.8-.4-10.2-.4-13.2s0-.9,5.5-.9h3.2c1.1,0,1.9.9,2.8,2.3.5,1.2,1.2,2.6,1.9,4.2,1.2,2.5,3.3,6.7,6.7,12.5,5.8,9.7,7.1,10.6,7.9,10.6h11.1c3.1,0,3.5-1.6,2.2-3.5Z"/>
</svg>