<?xml version="1.0" encoding="UTF-8"?>
<svg id="_Слой_1" xmlns="http://www.w3.org/2000/svg" version="1.1" xmlns:xodm="http://www.corel.com/coreldraw/odm/2003" viewBox="0 0 559.7 93.7">
  <!-- Generator: Adobe Illustrator 29.1.0, SVG Export Plug-In . SVG Version: 2.1.0 Build 142)  -->
  <defs>
    <style>
      .st0 {
        fill: red;
      }

      .st1 {
        fill: #282827;
      }
    </style>
  </defs>
  <g>
    <path class="st0" d="M72.6,48.5H9.7c-1.2,0-2.1,1-2.1,2.1v39.6c0,.4,0,.9.3,1.3.3.7.8,1.3,1.5,1.7.4.2.9.4,1.4.4h61.4c1.2-.3,2.1-1.3,2.4-2.4v-40.4c0-1.2-1-2.1-2.1-2.1h0v-.2h0ZM11.9,89.4v-36.6h19.2v36.6H11.9ZM35.3,52.8h11.7v36.6h-11.7s0-36.6,0-36.6ZM51.3,52.8h19.2v36.6h-19.2s0-36.6,0-36.6ZM70.5,90.3h0Z"/>
    <path class="st0" d="M76.3,31.8l-2.3-13.4c-.3-1.8-2.1-3.1-3.9-2.7l-20,3.5c.5-.4,1.3-.9,1.8-1.3,3.9-3.1,8.1-8.5,5.5-13.7-1-2-2.6-3.3-4.6-3.9-5.6-1.4-10.6,2.5-13.5,7-1.8,2.8-2.9,6-3.6,9.2-1.7-2.8-3.9-5.4-6.5-7.4-2.7-2.1-6.1-3.6-9.5-3.6s-7,1.7-8.3,5.1c-2.4,6.3,4.4,11,9.5,12.7.6.2,1.5.5,2.1.6l-20,3.5c-1.8.3-3.1,2.1-2.8,3.9H0l2.3,13.1c.3,1.8,2.1,3.1,3.9,2.7,0,0,23.3-4,23.6-4.2l43.7-7.7c1.7-.3,2.9-1.9,2.8-3.6,0,0,0,.2,0,.2ZM51.8,34.9l-2-11.4,20.1-3.5,2,11.4s-20.1,3.5-20.1,3.5ZM30.7,38.6l-2-11.4c4.3-.8,12.6-2.2,16.9-3l2,11.4s-16.9,3-16.9,3ZM6.4,42.9l-2-11.4,20.1-3.5,2,11.4s-20.1,3.5-20.1,3.5ZM43.4,8.5c1-1.3,2.2-2.5,3.6-3.3,0,0,.2,0,.3-.2,1.6-.9,3.9-1.2,5.4.2,3,2.8-1,7.2-3.2,9s-.6.5-.9.7c-2.9,2.3-6.2,4-9.5,5.5.2,0,0-.7,0-.9.2-1.9.6-3.7,1.2-5.5.6-1.9,1.6-3.9,2.8-5.6h.2ZM15.3,14.5c-.5-1-.4-2.3.3-3.2.4-.5.9-.9,1.5-1.1.8-.3,1.8-.5,2.7-.5,2.4.1,4.7,1.3,6.6,2.7,3,2.3,5.2,5.6,6.9,8.9-3.8-.3-7.7-.9-11.3-2.1-1.1-.4-2.5-1-3.5-1.6-.6-.4-1.2-.9-1.7-1.3s-1-1-1.4-1.6c0,0,0-.1-.1-.2Z"/>
    <polygon class="st0" points="70 15.7 70 15.7 70 15.7 70 15.7"/>
    <polygon class="st0" points="70 15.7 70 15.7 70 15.7 70 15.7"/>
  </g>
  <g>
    <path class="st1" d="M140.6,59.3c.4,0,1.1-.2,1.1-1.5h0c0,0,.1-.3,0-.4,0,0-.2-.2-.3-.2h0v-.3c-2.2-3.2-3.7-5.2-4.8-6.5-1-1.3-2-3.1-3.5-6.1-2.1-4-2.2-4.6-2.2-4.7,0-.2.2-.5.6-.8,1.8-1.7,3.2-3.3,4.2-4.9,1.6-2.4,2.9-5.2,3.8-8.2.9-2.8,1.3-4,1.3-4.6,0-1.1-2.3-1.2-3.4-1.2h-3c-.6.1-1,.4-1.2.8-.4,1.2-.9,2.5-1.3,3.7-.5,1.2-.9,2.5-1.4,3.7-1.3,3.1-2.5,5.2-3.9,6.4-1.7,1.3-4.2,1.9-7.6,1.9s-.7,0-.8-.2v-15.4c0-.5-.4-.9-1-.9h-6c-.9,0-1.1.9-1.1,2.9s0,3.4.3,7.7.3,7.6.3,9.6,0,5.2-.3,9.1c-.3,4.1-.3,5.9-.3,7.9s.4,2.1,1.1,2.1h6.9c.2-.2.3-.5.3-1.3v-2.5c0-1.4,0-3.1,0-5.1-.2-3.3-.2-5.8-.2-7.5s0-.5,3.1-.5h1.8c.6,0,1.1.5,1.6,1.3.3.7.7,1.5,1.1,2.4.7,1.4,1.9,3.8,3.8,7.1,3.3,5.5,4,6,4.5,6h6.3l.3.2Z"/>
    <path class="st1" d="M177.9,46.3v-6.2c0-2.1.1-5.3.3-9.5.3-4.2.3-4.8.3-6.9s-.1-2.9-.3-2.9c-.2-.4-.6-.6-1-.6h-2.9s-.5-.1-1.3-.1h-1.6c-.9,0-1.1.9-1.1,3.9v23c0,2.9-.8,4.5-2.2,5.4-1.3.8-3.1,1.1-6.1,1.1s-5.3-.5-6.5-1.4c-1.2-1-2-3.3-2-6.1s0-4.7.1-8.2v-4.3c.3-5.5.3-7.8.3-10.6s-.2-2.8-1-2.8h-6.1c-.9,0-1.1.6-1.1,1v.4c.3,3,.3,5.2.3,6.7.3,5.8.3,9.8.3,11.9v6.5c0,5,.8,8.4,2.4,10.1,2.1,2.2,6.4,3.3,12.9,3.3s6.5-.2,8.3-.7c3.3-.8,5.5-2.4,6.6-4.8.7-1.6,1.1-4.4,1.1-8.1h.3Z"/>
    <path class="st1" d="M203.6,20.4h-16.9c-.9,0-1,.6-1,1v.4c.4,6.5.6,12.6.6,18.4s0,5.1-.3,9.1-.3,6.6-.3,8.6.6,1.6,1,1.6h6.4s.2,0,.3,0h.2c.2,0,.3-.8.3-1.3s0-1.2-.1-2.4v-1.6c-.3-2-.3-3.7-.3-4.4s0-.2,0-.3v-.4h10c4.4,0,7.8-1.3,10.3-4.1,2.3-2.6,3.5-5.9,3.6-9.9.2,0,.3-.2.3-.3,0-4.1-1.3-7.5-3.9-10.3-2.7-2.8-6.1-4.2-10.3-4.2h0ZM193.4,39.5h0v-3.4c0-5.8,0-8.6.1-9.2.4,0,1.7-.2,3.3-.3h1c.9-.1,2.2-.2,3.7-.2,2.6,0,4.7.9,6.1,2.5,1.3,1.4,2.1,3.5,2.1,6.1v.2c0,2.5-.6,4.5-1.9,6-.2.2-.3.4-.5.6-1,1.2-1.4,1.7-5.3,1.7s-7.4,0-8.3-.3h-.3v-3.5h0v-.2Z"/>
    <path class="st1" d="M231.1,21.1c0-.4-.1-1-1-1h-6.2c-.8,0-1,1-1,3.1s0,2.4.2,4.3c0,.8,0,1.7.2,2.9.3,4.1.3,7,.3,9.2s-.1,5.3-.3,9.5c-.3,4.2-.3,5.3-.3,7.4s.5,2.9,1.1,2.9h6c.8,0,1.1-.5,1.1-.9,0-2.1,0-5.3-.2-9.5s-.2-7.5-.2-9.5,0-5.1.2-9.2c.2-4.1.2-7.2.2-9.2h-.1Z"/>
    <path class="st1" d="M484.3,21.1c0-.4-.1-1-1-1h-6.2c-.8,0-1,1-1,3.1s0,2.4.2,4.3c0,.8,0,1.7.2,2.9.3,4.1.3,7,.3,9.2s-.1,5.3-.3,9.5c-.3,4.2-.3,7.3-.3,9.4s.5.9,1.1.9h6c.8,0,1.1-.5,1.1-.9,0-2.1,0-5.3-.2-9.5s-.2-7.5-.2-9.5,0-5.1.2-9.2c.2-4.1.2-7.2.2-9.2h-.1Z"/>
    <path class="st1" d="M266.7,45.2c2.3-2.6,3.5-5.9,3.6-9.9.2,0,.3-.2.3-.3,0-4.1-1.3-7.5-3.9-10.3-2.7-2.8-6.1-4.2-10.3-4.2s-.8,0-1.4,0h-15.5c-.9,0-1.1.6-1.1,1v.4c.4,6.5.6,12.6.6,18.4s0,5-.3,9.1c-.3,4-.3,5.8-.3,7.8s.6,2.4,1.1,2.4h6.4s.2,0,.3,0h.2c.2,0,.3-.4.3-.9s0-1.6-.1-2.8v-1.7c-.3-2-.3-3.7-.3-4.4s0-.2,0-.3v-.4h10c4.4,0,7.8-1.3,10.3-4.1h.1ZM246.1,39.5h0v-3.4c0-5.8,0-8.6.1-9.2.4,0,1.7-.2,3.3-.3h1c.9-.1,2.2-.2,3.7-.2,2.6,0,4.7.9,6.1,2.5,1.3,1.4,2.1,3.5,2.1,6.1v.2c0,2.5-.6,4.5-1.9,6-.2.2-.3.4-.5.6-1,1.2-1.4,1.7-5.3,1.7s-7.4,0-8.3-.3h-.3v-3.5h0v-.2Z"/>
    <path class="st1" d="M293.7,19.1c-5.5,0-10.1,2.1-13.8,6.2-3.6,4-5.4,8.7-5.4,14.2s1.8,10.4,5.3,14.3c3.6,4.1,8.3,6.2,13.8,6.2s10.1-2.1,13.8-6.2c3.5-3.9,5.2-8.6,5.3-14,.1,0,.2-.2.2-.3,0-5.5-1.8-10.2-5.4-14.2-3.6-4.1-8.3-6.2-13.8-6.2ZM305.4,39.7c0,3.6-1.1,6.6-3.2,9.3-2.2,2.8-5.1,4.2-8.5,4.2s-6.2-1.4-8.4-4.2c-2.2-2.7-3.2-5.7-3.2-9.2s1.1-6.5,3.2-9.2c2.2-2.8,5-4.2,8.4-4.2s6.3,1.4,8.5,4.1c2.2,2.7,3.2,5.7,3.2,9.2Z"/>
    <path class="st1" d="M351.3,30.9c-1.2-2.9-3-5.2-5.3-7-3.2-2.5-7.9-3.7-14.4-3.7h-11.8c-.9,0-1,1.2-1,3.4s0,2.9.2,7.2c.2,4.3.2,7.6.2,9.6s0,5.1-.2,9.1-.2,7-.2,9,0,0,0,.2c0,.2,0,.4.1.6.2.2.5.2.9.2h16.4c5,0,9.2-2.1,12.5-6.2,3-3.9,4.5-8.5,4.5-13.6s0-.2,0-.2c0-3.1-.6-6-1.7-8.5h-.2ZM342.3,49.6c-1.1,1.4-2.4,2.4-4,3-1.1.5-1.9.7-4.9.7h-5.1c-1.6,0-1.9,0-1.9-.8v-25.2c0-.3.8-.7,2.9-.9h3.9c3.8,0,6.9,1.3,9.1,3.8,2.2,2.3,3.2,5.3,3.3,9.1v.2c0,4.1-1.1,7.4-3.3,10.1Z"/>
    <path class="st1" d="M393.3,58.4c0-.3-6.2-16.5-8.1-21.5-1.8-4.7-3.2-8.4-4.2-11.1-1.2-3.1-1.9-4.9-2.1-5.5v-.2c-.3-.6-.5-1-1-1s-.5,0-1,.1h-.6c-.7.3-1.1.3-1.4.3h-1.4c-.5,0-1-.1-1.7-.1s-.9,1-1,1.3c-.9,2.3-1.5,4-2.1,5.3-3.2,7.5-4.9,11.7-5.3,12.8l-6.9,18.4h0c-.3.7-.4,1-.4,1.4,0,.8.6.8.9.8h6.2c.6,0,1.2-.7,2.2-4.4,1-3.2,1.7-4,1.9-4h14.6c.3,0,1,.4,2.1,3.9,1.1,4.5,2,4.5,2.2,4.5h6.2c.5,0,1,0,1-.5s0-.2,0-.2v-.2h-.1ZM380.2,43.7c-.2.3-1.1.6-3.5.6h-5.5c-1.2,0-1.8-.5-1.8-.7,0-.6,2.7-7.4,5.3-14.2.6,1.5,1.5,4,2.8,7.4,1.4,3.9,2.4,6.6,2.6,7h.1Z"/>
    <path class="st1" d="M422.4,44.1s.1-.3.4-.4c2.1-1.5,3.5-3.1,4.4-4.9.7-1.6,1.1-2.6,1.1-6.5s-1.5-7.2-4.2-9.4c-2.6-2-5.9-3-10-3s-1.5,0-2.4,0h-11.8c-1.7,0-1.5,0-1.5,1v.4c.4,6.5.6,12.7.6,18.5s0,5-.3,9.2c-.3,4.1-.3,5.9-.3,7.9s.1,2.2,1,2.2h6.2s.2,0,.3,0h.2c.2,0,.3-.4.3-1s0-2-.1-3.5v-2.1c-.3-2.6-.3-4.5-.3-5.8s.2-1,.3-1h7c1.2,0,1.5.6,1.7,1,2.5,5.9,4.3,10.3,5,11.6.4.6.8.9,1.3.9h6.6c.2,0,.4,0,.5-.2h.2c.2,0,.3-.2.3-.3s0-.6-3.3-7.6c-2.3-4.8-3.2-6.9-3.3-7.1h0ZM420.4,33.7c0,4-2.4,5.9-7.2,5.9h-7.3v-4.9c0-4.3.1-6.9.2-7.9.2-.2,1.6-.3,4.2-.3s6.1.4,7.4,1.2c1.8,1,2.7,3.1,2.7,6.1h0Z"/>
    <path class="st1" d="M468.6,57.2h0v-.3c-2.2-3.2-3.7-5.2-4.8-6.5-1-1.3-2-3.1-3.5-6.1-2.1-4-2.2-4.6-2.2-4.7,0-.2.2-.5.6-.8,1.8-1.7,3.2-3.3,4.2-4.9,1.6-2.4,2.9-5.2,3.9-8.2.9-2.8,1.3-3.9,1.3-4.6,0-1.1-2.3-1.2-3.3-1.2h-3c-.6.1-1,.4-1.2.8-.4,1.2-.9,2.4-1.3,3.6-.5,1.2-.9,2.5-1.4,3.7-1.3,3.1-2.5,5.2-3.9,6.4-1.7,1.3-1.6,1.9-5,1.9s-3.3-.2-3.4-.3h0v-8.3c.1-3.1.1-5.5.1-7s-.4-.9-1-.9h-6c-.9,0-1,.9-1,2.9s0,3.4.3,7.7.3,7.6.3,9.6-.1,5.1-.3,9.1c-.3,4.1-.3,7.1-.3,9.1s.4.9,1,.9h6.9c.2-.2.3-.5.3-1.3,0-1.2,0-2.9-.1-5.1v-2.4c-.3-3.3-.3-5.8-.3-7.5s0-.5,3.2-.5h1.8c.6,0,1.1.5,1.6,1.3.3.7.7,1.5,1.1,2.4.7,1.4,1.9,3.8,3.8,7.1,3.3,5.5,4,6,4.5,6h6.3c.4,0,1.1-.2,1.1-1.6h0c0-.3-.2-.5-.3-.5v.2Z"/>
    <path class="st1" d="M495.2,50.2c-1.3,0-2.4.5-3.3,1.4-.8.9-1.3,2.1-1.3,3.4s.4,2.4,1.3,3.3c.9,1,2,1.5,3.3,1.5s2.4-.5,3.3-1.5c.8-.9,1.3-2.1,1.3-3.4s-.4-2.4-1.3-3.3c-.8-1-1.9-1.4-3.3-1.4Z"/>
    <path class="st1" d="M531.7,33.7c-.2-.8-.8-.9-1.1-.9h-4.5c0,0-.3,0-.5,0h-.4c-.4.3-.6.7-.6,6.9v9.3c0,1-.9,2-2.4,3.1-.4.3-.7.5-1,.8-.7.6-1,.9-2.9.9s-4.1-.9-4.9-2.8c-.5-1-.7-3.1-.7-6.4v-3.6c0-.9,0-2.2.4-3.7.4-1.7.4-3,.4-3.7s0-1-.9-1h-4.8c-.6,0-1,.5-1.2,1.4-.7,3.1-1,6.2-1,10.9s.4,8.1,1.2,9.9c1.4,3,5.2,4.6,8.3,4.6s6.1-1.4,9.2-4.1h0c0,.3,0,.8,0,1.6s-.4.8-.8,1.1c-.3.3-.6.5-.5.9s.6.5,2,.5h5.7s.2,0,.3,0h.2c.2,0,.3-.4.3-1.1v-14.1c0-1.1,0-2.5,0-4,.2-2.6.2-4.7.2-6h0c0-.3-.2-.4-.3-.5h.1Z"/>
    <path class="st1" d="M555.7,53.4c-2.7,0-6.1,0-10,.2,1.3-1.5,2.6-2.9,3.7-4.1,1.9-2.1,3.4-3.8,4.5-5.1,4.5-5,4.8-5.3,4.8-5.4.3-.4.4-1.2.4-3s0-2.9-1-2.9h-18c-.2,0-.5,0-.7,0-.2.2-.2.4-.2.5,0,.4,0,1.1-.3,2.2-.3,1-.3,2-.3,2.4,0,.8.4.9.7.9h11.4c-2.6,3.1-5,5.9-7,8-3.4,3.7-5.4,5.8-5.8,6.2-.5.4-.7.8-.7,1.2v1.4c0,1.4,0,2.3.4,3.2.2.5.5.7,1,.7h0c.6,0,2.6-.2,3.4-.3,2.2-.2,3.6-.2,5.9-.2h6c.5,0,1.1,0,1.9,0h2.6c.4,0,.8-.4.8-1.3s0-.8.4-1.7v-2.5c.4-.9-2.7-.6-4-.6Z"/>
    <path class="st1" d="M115.5,80.1c-3.1,0-5.4,2.4-5.4,5.3s2.2,5.3,5.3,5.3,5.4-2.4,5.4-5.3-2.2-5.3-5.3-5.3ZM115.5,89c-2,0-3.5-1.7-3.5-3.6s1.4-3.6,3.4-3.6,3.5,1.7,3.5,3.6-1.4,3.6-3.4,3.6Z"/>
    <path class="st1" d="M127,80.3h-4v10.2h1.8v-3.3h2c2.2,0,4.1-1.2,4.1-3.5s-1.5-3.4-3.9-3.4h0ZM126.9,85.6h-2.1v-3.7h2.1c1.3,0,2.2.6,2.2,1.8s-.8,1.9-2.2,1.9Z"/>
    <polygon class="st1" points="134.5 87.7 134.5 80.3 132.7 80.3 132.7 90.5 134.4 90.5 139.6 83 139.6 90.5 141.4 90.5 141.4 80.3 139.7 80.3 134.5 87.7"/>
    <polygon class="st1" points="144 90.5 145.8 90.5 145.8 81.9 150.9 81.9 150.9 80.3 144 80.3 144 90.5"/>
    <polygon class="st1" points="154.4 87.7 154.4 80.3 152.7 80.3 152.7 90.5 154.4 90.5 159.5 83 159.5 90.5 161.3 90.5 161.3 80.3 159.6 80.3 154.4 87.7"/>
    <polygon class="st1" points="170.6 84.5 165.7 84.5 165.7 80.3 163.9 80.3 163.9 90.5 165.7 90.5 165.7 86.2 170.6 86.2 170.6 90.5 172.4 90.5 172.4 80.3 170.6 80.3 170.6 84.5"/>
    <path class="st1" d="M178.6,80.2l-4.5,10.3h1.9l1.1-2.5h4.8l1,2.5h1.9l-4.5-10.3h-1.7ZM177.7,86.4l1.8-4.1,1.8,4.1h-3.6Z"/>
    <path class="st1" d="M188.1,82.3c0,6.1-1,6.8-2,6.8h-.6l-.2,1.5c.3,0,.8.2,1.2.2v-.2h.1c2,0,3.2-1.3,3.2-7.8v-.9h3.5v8.6h1.8v-10.2h-7v2Z"/>
    <path class="st1" d="M202,84h-2.4v-3.7h-1.8v10.2h4.1c2.4,0,3.9-1.3,3.9-3.3s-1.5-3.2-3.8-3.2ZM201.8,88.9h-2.3v-3.4h2.3c1.4,0,2.1.6,2.1,1.6s-.8,1.8-2.1,1.8Z"/>
    <polygon class="st1" points="214.3 84.5 209.4 84.5 209.4 80.3 207.6 80.3 207.6 90.5 209.4 90.5 209.4 86.2 214.3 86.2 214.3 90.5 216.1 90.5 216.1 80.3 214.3 80.3 214.3 84.5"/>
    <path class="st1" d="M222.9,84h-2.4v-3.7h-1.8v10.2h4.1c2.4,0,3.9-1.3,3.9-3.3s-1.5-3.2-3.8-3.2ZM222.8,88.9h-2.3v-3.4h2.3c1.4,0,2.1.6,2.1,1.6s-.8,1.8-2.1,1.8Z"/>
    <rect class="st1" x="227.9" y="80.3" width="1.8" height="10.2"/>
    <polygon class="st1" points="234.1 86.1 239.2 86.1 239.2 84.5 234.1 84.5 234.1 81.9 239.9 81.9 239.9 80.3 232.3 80.3 232.3 90.5 240 90.5 240 88.9 234.1 88.9 234.1 86.1"/>
    <polygon class="st1" points="246.5 90.5 248.3 90.5 248.3 81.9 253 81.9 253 90.5 254.8 90.5 254.8 80.3 246.5 80.3 246.5 90.5"/>
    <path class="st1" d="M262.4,80.1c-3.1,0-5.4,2.4-5.4,5.3s2.2,5.3,5.3,5.3,5.4-2.4,5.4-5.3-2.2-5.3-5.3-5.3ZM262.4,89c-2,0-3.5-1.7-3.5-3.6s1.4-3.6,3.4-3.6,3.5,1.7,3.5,3.6-1.4,3.6-3.4,3.6Z"/>
    <path class="st1" d="M278.1,80.3h-7.1v1.4c0,3.4-.5,5.5-1.3,7.2h-1v3.8h1.6l.2-2.2h7.2v2.2h1.5l.2-3.8h-1.3v-8.6h0ZM276.3,88.9h-4.7c.7-1.4,1.1-3.5,1.1-5.8v-1.2h3.6v7Z"/>
    <path class="st1" d="M284.5,80.2l-4.5,10.3h1.9l1.1-2.5h4.8l1,2.5h1.9l-4.5-10.3h-1.7,0ZM283.7,86.4l1.8-4.1,1.8,4.1h-3.6,0Z"/>
    <path class="st1" d="M296.6,80.3h-4v10.2h1.8v-3.3h2c2.2,0,4.1-1.2,4.1-3.5s-1.5-3.4-3.9-3.4ZM296.4,85.6h-2.1v-3.7h2.1c1.3,0,2.2.6,2.2,1.8s-.8,1.9-2.2,1.9Z"/>
    <polygon class="st1" points="311.2 80.3 309 80.3 304.1 85.4 304.1 80.3 302.3 80.3 302.3 90.5 304.1 90.5 304.1 87.5 305.7 85.9 309.2 90.5 311.4 90.5 306.9 84.7 311.2 80.3"/>
    <polygon class="st1" points="314.7 87.7 314.7 80.3 312.9 80.3 312.9 90.5 314.6 90.5 319.8 83 319.8 90.5 321.5 90.5 321.5 80.3 319.8 80.3 314.7 87.7"/>
    <polygon class="st1" points="335.2 84.5 330.3 84.5 330.3 80.3 328.5 80.3 328.5 90.5 330.3 90.5 330.3 86.2 335.2 86.2 335.2 90.5 337 90.5 337 80.3 335.2 80.3 335.2 84.5"/>
    <path class="st1" d="M343.2,80.2l-4.5,10.3h1.9l1.1-2.5h4.8l1,2.5h1.9l-4.5-10.3h-1.7,0ZM342.3,86.4l1.8-4.1,1.8,4.1h-3.6,0Z"/>
    <polygon class="st1" points="364.4 80.3 362.2 80.3 357.4 85.4 357.4 80.3 355.6 80.3 355.6 90.5 357.4 90.5 357.4 87.5 359 85.9 362.5 90.5 364.6 90.5 360.2 84.7 364.4 80.3"/>
    <path class="st1" d="M369.7,80.2l-4.5,10.3h1.9l1.1-2.5h4.8l1,2.5h1.9l-4.5-10.3h-1.7,0ZM368.8,86.4l1.8-4.1,1.8,4.1h-3.6,0Z"/>
    <polygon class="st1" points="391.8 80.3 389.7 80.3 385.2 85.6 385.2 80.3 383.4 80.3 383.4 85.6 379 80.3 376.8 80.3 380.6 84.6 376.6 90.5 378.8 90.5 381.8 85.9 383.4 87.8 383.4 90.5 385.2 90.5 385.2 87.8 386.8 85.9 389.9 90.5 392 90.5 388 84.6 391.8 80.3"/>
    <path class="st1" d="M401.8,80.3h-7.1v1.4c0,3.4-.5,5.5-1.3,7.2h-1v3.8h1.6l.2-2.2h7.2v2.2h1.5l.2-3.8h-1.3v-8.6h0ZM400,88.9h-4.7c.7-1.4,1.1-3.5,1.1-5.8v-1.2h3.6v7Z"/>
    <path class="st1" d="M408.9,84h-2.4v-3.7h-1.8v10.2h4.1c2.4,0,3.9-1.3,3.9-3.3s-1.5-3.2-3.8-3.2h0ZM408.8,88.9h-2.3v-3.4h2.3c1.4,0,2.1.6,2.1,1.6s-.8,1.8-2.1,1.8Z"/>
    <rect class="st1" x="413.9" y="80.3" width="1.8" height="10.2"/>
    <path class="st1" d="M422.7,79.5c1.2,0,2.1-.8,2.3-2l-1.1-.2c-.2.6-.6,1-1.2,1s-1-.4-1.2-1l-1.1.2c.2,1.3,1.1,2,2.3,2h0Z"/>
    <polygon class="st1" points="420.1 87.8 420.1 80.3 418.3 80.3 418.3 90.5 420 90.5 425.2 83 425.2 90.5 427 90.5 427 80.3 425.3 80.3 420.1 87.8"/>
    <path class="st1" d="M442.2,80.3h-7.1v1.4c0,3.4-.5,5.5-1.3,7.2h-1v3.8h1.6l.2-2.2h7.2v2.2h1.5l.2-3.8h-1.3v-8.6h0ZM440.4,88.9h-4.7c.7-1.4,1.1-3.5,1.1-5.8v-1.2h3.6v7Z"/>
    <polygon class="st1" points="445.1 90.5 452.7 90.5 452.7 88.9 446.9 88.9 446.9 86.1 452 86.1 452 84.5 446.9 84.5 446.9 81.9 452.7 81.9 452.7 80.3 445.1 80.3 445.1 90.5"/>
    <polygon class="st1" points="461.5 84.5 456.7 84.5 456.7 80.3 454.9 80.3 454.9 90.5 456.7 90.5 456.7 86.2 461.5 86.2 461.5 90.5 463.3 90.5 463.3 80.3 461.5 80.3 461.5 84.5"/>
    <path class="st1" d="M470.2,84h-2.4v-3.7h-1.8v10.2h4.1c2.4,0,3.9-1.3,3.9-3.3s-1.5-3.2-3.8-3.2h0ZM470.1,88.9h-2.3v-3.4h2.3c1.4,0,2.1.6,2.1,1.6s-.8,1.8-2.1,1.8Z"/>
  </g>
  <path class="st1" d="M556.8,53.3"/>
</svg>