<svg version="1.2" xmlns="http://www.w3.org/2000/svg" viewBox="0 0 830 254" width="830" height="254">
	<title>&lt;Group&gt;</title>
	<style>
		.s0 { fill: #50c9f4 } 
	</style>
	<path id="&lt;Compound Path&gt;" fill-rule="evenodd" class="s0" d="m166.8 116.2v-93.1h-39v-18.1h97.8v18.1h-39.1v93.1zm245.1 1.9q-24.2 0-40.3-16.6-16.2-16.6-16.2-40.9 0-24.1 16.2-40.8 16.1-16.7 41.1-16.7 14.4 0 24.5 4.5 10.1 4.4 19 12.8l-12.6 14.5q-14.9-13.8-31.1-13.8-15.9 0-26.3 11.4-10.4 11.4-10.4 28.1 0 16.5 10.5 28 10.5 11.5 26.2 11.5 9.5 0 16.8-3.5 7.3-3.6 15.1-10.9l12.6 12.7q-9.4 9.8-19.9 14.8-10.5 4.9-25.2 4.9zm65.2-1.9v-111.2h19.5v46.2h53.1v-46.2h19.5v111.2h-19.5v-46.9h-53.1v46.9zm115.2 0v-111.2h18.1l59.6 76.9v-76.9h19.2v111.2h-16.4l-61.2-79.1v79.1zm-536.9 137.5q-16 0-30.8-3.6c-9.8-2.3-17.6-5.9-23.7-9.1l9.2-16.8c5.6 3.4 24.3 10.4 45.3 10.4 10.6 0 34-3.5 35.2-13.2 1.4-12.3-24.7-13.1-40.1-15.4-5.5-0.9-46.7-3.8-46.7-31.6q0-9.5 6.1-17.2 6.1-7.8 18.6-12.4 12.4-4.6 31.3-4.6 12.6 0 24.8 2.5 12.3 2.5 21.5 7.2l-8.1 15.9c-11.8-5.4-20.3-7.2-38.4-7.3-7.5 0-34.5 2.5-34.5 14.6 0 11.6 34.1 13 39.6 14 5.6 1 47.1 4.6 47.1 32.6q0 9.2-6.2 16.9-6.2 7.7-18.8 12.4-12.5 4.7-31.4 4.7zm72.3-1.5v-111.1h55.6q19.3 0 30.8 10.1 11.4 10.2 11.4 27.3 0 18-12.6 28-12.6 10-31.9 10h-33.8v35.7zm19.6-53.4h34.4q11 0 17.5-5.5 6.5-5.6 6.5-14.6 0-9.5-6.5-14.7-6.4-5.2-17.5-5.2h-34.4zm94.1 53.4v-111.2h19.6v46.2h58.7v-46.2h19.5v111.2h-19.5v-46.9h-58.7v46.9zm236.2 0v-111.2h53.1q19.3 0 30.3 9.7 10.9 9.6 10.9 25.8 0 13.1-7.1 21.6-7.2 8.5-19.4 12l30 42.1h-23l-27.6-38.8h-27.6v38.8zm19.5-56.1h32.1q10.4 0 16.6-5 6.2-5.1 6.2-13.9 0-8.8-6-13.6-6.1-4.8-17-4.8h-31.9zm95 56.1v-111.2h97v17.5h-77.4v28.9h70.2v17.5h-70.2v29.8h78.2v17.5zm-231.2 0v-111.2h96.9v17.5h-77.4v28.9h70.3v17.5h-70.3v29.8h78.2v17.5zm463.2-0.1h-111.1v-111.1h111.1zm-712.5-136h-111v-111h111zm129.7 0.1v-111.1h96.9v17.5h-77.4v28.9h70.3v17.4h-70.3v29.9h78.2v17.4zm527.3 4.8c-33.3 0-60.3-27-60.3-60.3 0-33.3 27-60.3 60.3-60.3 33.3 0 60.3 27 60.3 60.3 0 33.3-27 60.3-60.3 60.3z"/>
</svg>