<?xml version="1.0" encoding="UTF-8"?>
<svg id="_Слой_2" xmlns="http://www.w3.org/2000/svg" version="1.1" viewBox="0 0 230 230">
  <!-- Generator: Adobe Illustrator 29.1.0, SVG Export Plug-In . SVG Version: 2.1.0 Build 142)  -->
  <defs>
    <style>
      .st0 {
        fill: #fff;
      }

      .st1 {
        fill: none;
        stroke: #00698c;
        stroke-linecap: round;
        stroke-linejoin: round;
        stroke-width: 2.5px;
      }
    </style>
  </defs>
  <g id="_Слой_1-2">
    <g>
      <circle class="st0" cx="115" cy="115" r="115"/>
      <g>
        <path class="st1" d="M97.6,151.2c0,5.7-4.6,10.4-10.4,10.4s-10.4-4.6-10.4-10.4.3-2.6.7-3.8c1.9.2,4.1.5,6.6.8,5.1.6,9.5,1.6,13.4,2.9h0c0,.1,0,.1,0,.1Z"/>
        <path class="st1" d="M104.8,154c-1.3,8.5-8.7,15-17.5,15s-17.7-7.9-17.7-17.7.2-3.3.7-4.9c1.8.3,4.2.7,7.4,1.1,1.9.2,4.1.5,6.6.8,5.1.6,9.5,1.6,13.4,2.9,2.6.9,4.9,1.8,7.2,2.8h0Z"/>
        <path class="st1" d="M179.8,146.5c.7,1.4,1.1,3,1.1,4.7,0,5.7-4.6,10.4-10.4,10.4s-8.2-2.8-9.7-6.6"/>
        <path class="st1" d="M153.4,155.8c2,7.6,8.9,13.2,17.2,13.2s17.7-7.9,17.7-17.7-7.9-17.7-17.7-17.7-9.3,2-12.5,5.2"/>
        <path class="st1" d="M187.4,145.5c-4.2-.5-13.3,2.4-19,6.4s-14.9,3.9-14.9,3.9c0,0-2.7,4.6-8.1,5.9-5.4,1.2-18.8,1.3-27.7-1.9-4.1-1.5-8.2-3.6-12.8-5.7-2.2-1-4.6-2-7.2-2.8-3.9-1.3-8.3-2.4-13.4-2.9-2.5-.3-4.7-.5-6.6-.8-3.2-.4-5.7-.7-7.4-1.1-3.6-.7-4.5-1.4-4.2-2.6.6-2.2,2-4.6,4.8-7.8s11.6-13,15.9-14.4,11.8,2.1,22,4.5c10.2,2.4,19.6.6,19.6.6"/>
        <path class="st1" d="M175,134.1s1.6-3.2-4.1-7.8-11.8-11.7-12.2-17.9"/>
        <path class="st1" d="M109.1,137.7s9.6,4.1,16.2,8.8c6.6,4.8,11.9,5.4,16.6,3.8s9.2-6.1,10-16.6c.9-10.6,3.1-17.6.9-21.8"/>
        <path class="st1" d="M148.9,102.5s-1.7,2.3-.4,5.4,3.5,4.9,6.6,3.5,2-4.1,5.2-2.4,6.8.2,7.5-5.1.2-9.1-4.4-10.1-7.6-1.2-9.6,2"/>
        <path class="st1" d="M84.5,122.6s-4.8-1-8.1-.2-4.4,6.7-3.7,11.3"/>
        <path class="st1" d="M85.7,122s-3.3-6.9,3.9-7.9c7.1-1,8,1.6,16.8,1.6.6,0,1.2,0,1.8,0,9-.2,22.9-1.9,22.9-1.9l-4.1,22.7-.9,6.9s-.8,2.2.8,4.1"/>
        <path class="st1" d="M130.6,149.6h0c2.1.4,4.4,0,5.5-2.1,1.9-3.8,4.8-26.2,4.8-26.2,0,0,2.3-9.8,0-13.1-2.3-3.3-5.4-3.4-9.6-3.2-4.2.2-12.6,1.1-12.6,1.1l2.9-14.5"/>
        <circle class="st1" cx="125.2" cy="59.6" r="13"/>
        <path class="st1" d="M137.4,55.2s-2.9-2.2-7.9-.4-1.7,5.8-3.1,8.5c-.8,1.5-3.8,3.3-6.2,4.4-1.5.8-3.2,1.2-4.8,1.5-5.9,1.1-7.2,9.8-7.2,9.8,0,0-6.6,26-6.2,31.1s6.2,5.6,6.2,5.6"/>
        <path class="st1" d="M132.1,91.6l-11.7-13.9c-3.2-4.1-9.3.7-6.2,4.8l13.1,15.7,27.4,5.8c5.2,1.2,6.9-6,1.7-7.2l-24.2-5.1h0Z"/>
        <line class="st1" x1="125.2" y1="72.5" x2="124.1" y2="82.3"/>
        <path class="st1" d="M99.6,113.8h-29v-25.4c0-10.4,29-10.4,29,0v25.4Z"/>
        <line class="st1" x1="70.6" y1="103.3" x2="54.8" y2="103.3"/>
        <line class="st1" x1="44.5" y1="103.3" x2="35.7" y2="103.3"/>
        <line class="st1" x1="44.2" y1="113.8" x2="65.5" y2="113.8"/>
        <line class="st1" x1="56.9" y1="128.8" x2="34.1" y2="128.8"/>
        <line class="st1" x1="60.3" y1="151.2" x2="53.2" y2="151.2"/>
        <line class="st1" x1="44.4" y1="151.2" x2="37" y2="151.2"/>
      </g>
    </g>
  </g>
</svg>