<?xml version="1.0" encoding="UTF-8"?>
<svg id="_Слой_2" xmlns="http://www.w3.org/2000/svg" version="1.1" viewBox="0 0 230 230">
  <!-- Generator: Adobe Illustrator 29.1.0, SVG Export Plug-In . SVG Version: 2.1.0 Build 142)  -->
  <defs>
    <style>
      .st0 {
        fill: #fff;
      }

      .st1 {
        fill: none;
        stroke: #00698c;
        stroke-linecap: round;
        stroke-linejoin: round;
        stroke-width: 2.5px;
      }
    </style>
  </defs>
  <g id="_Слой_1-2">
    <g>
      <circle class="st0" cx="115" cy="115" r="115"/>
      <g>
        <g>
          <g>
            <g>
              <path class="st1" d="M75.6,84.8v84.6c0,3.1,2.5,5.6,5.6,5.6h2.6"/>
              <path class="st1" d="M122.4,175.1h26.3c3.1,0,5.6-2.5,5.6-5.6v-84.6"/>
              <path class="st1" d="M75.6,105.3l-19-4.8c-1.9-.5-2.9-2.4-2.2-4.2l11.6-31.1c1.1-2.8,3.3-5.1,6.1-6.1l27-10.3"/>
              <path class="st1" d="M154.4,105.3l19-4.8c1.9-.5,2.9-2.4,2.2-4.2l-11.6-31.1c-1.1-2.8-3.3-5.1-6.1-6.1l-27-10.3"/>
              <path class="st1" d="M99.1,48.8c0,8.8,7.1,15.9,15.9,15.9s15.9-7.1,15.9-15.9"/>
              <path class="st1" d="M99.1,48.8c0,4.5,7.1,8.1,15.9,8.1s15.9-3.6,15.9-8.1"/>
            </g>
            <g>
              <path class="st1" d="M122.4,139.5v-6.9c0-2.1-1.7-3.9-3.9-3.9h-30.8c-2.2,0-3.9,1.7-3.9,3.9v46.6c0,2.1,1.7,3.9,3.9,3.9h30.8c2.2,0,3.9-1.7,3.9-3.9v-8.8"/>
              <line class="st1" x1="122.4" y1="164.2" x2="122.4" y2="145.8"/>
              <path class="st1" d="M122.4,170.5h6.1c9.3,0,13.5-7.4,13.5-15.5h0c0-8.1-3.4-15.5-13.5-15.5h-6.2"/>
              <path class="st1" d="M122.4,164.2h4c6.5,0,8.7-4.6,8.7-9.2h0c0-4.7-1.9-9.2-8.7-9.2h-4"/>
            </g>
          </g>
          <circle class="st1" cx="130.9" cy="94" r="6.3"/>
          <polyline class="st1" points="133.4 99.7 133.4 116.4 96.5 116.4 96.5 94 124.7 94"/>
        </g>
        <rect class="st1" x="91" y="139.5" width="24" height="29.6"/>
      </g>
    </g>
  </g>
</svg>