<?xml version="1.0" encoding="UTF-8"?>
<svg id="_Слой_2" xmlns="http://www.w3.org/2000/svg" version="1.1" viewBox="0 0 230 230">
  <!-- Generator: Adobe Illustrator 29.1.0, SVG Export Plug-In . SVG Version: 2.1.0 Build 142)  -->
  <defs>
    <style>
      .st0 {
        fill: #fff;
      }

      .st1 {
        fill: none;
        stroke: #00698c;
        stroke-linecap: round;
        stroke-linejoin: round;
        stroke-width: 2.5px;
      }
    </style>
  </defs>
  <g id="_Слой_1-2">
    <g>
      <circle class="st0" cx="115" cy="115" r="115"/>
      <path class="st1" d="M144.7,81.7h0c-4.5-4.5-11.3-5.2-15.4-1.4l-61.4,57.1c-4.6,4.6-12.4,35-12.4,35,0,0,29.3-9.7,33.5-13.9l57.1-61.4c3.8-4,3.1-10.8-1.4-15.4h0Z"/>
      <polyline class="st1" points="91 115.9 70.8 95.7 60.7 64 92.4 74.1 113.4 95"/>
      <path class="st1" d="M110.4,135.4l34.6,34.6c2.8,2.8,6.9,2.5,10.9.5,4.5-2.3,8.9-6.7,11.2-11.2,2-4,2.3-8.1-.5-10.9l-35.4-35.3"/>
      <line class="st1" x1="108" y1="100.1" x2="84.2" y2="76.2"/>
      <line class="st1" x1="126.3" y1="118.3" x2="167.1" y2="159.2"/>
      <line class="st1" x1="96.4" y1="110.9" x2="72.7" y2="87.2"/>
      <line class="st1" x1="115.5" y1="130" x2="155.9" y2="170.4"/>
      <path class="st1" d="M69.9,92.8c.8-2,1.8-3.9,2.9-5.6,2.9-4.6,6.8-8.2,11.4-11,1.8-1.1,3.8-2.1,5.8-2.9"/>
      <path class="st1" d="M70.4,67c-2.5,1.8-4.8,3.9-6.7,6.4"/>
      <line class="st1" x1="125.6" y1="83.7" x2="142.6" y2="100.8"/>
      <path class="st1" d="M146.8,83.1c5.2,3.1,12.1,4,17.1.8,6.2-3.9,3.1-14.8,6.2-21.2s13.6-3.8,13.6-3.8c0,0-8.7-8.1-22-8.1s-19.4,9.2-21,14.4c-.8,2.5-1.4,5.1-1.2,7.8.2,2.3,1.1,4.2,2.5,6,1.2,1.6,2.8,3,4.6,4.1h0Z"/>
      <path class="st1" d="M145.7,82.4s14.5-3.8,18-17.6"/>
      <path class="st1" d="M174.5,53.3s-11.1-2.1-18.8,3-9.2,16.8-9.2,16.8"/>
      <path class="st1" d="M67,159.2s4.5-12.2,8.7-17.6,50.1-47,50.1-47"/>
    </g>
  </g>
</svg>