<?xml version="1.0" encoding="UTF-8"?>
<svg id="_Слой_1" data-name="Слой 1" xmlns="http://www.w3.org/2000/svg" viewBox="0 0 256 256">
  <defs>
    <style>
      .cls-1 {
        fill: #ed1117;
        fill-rule: evenodd;
      }

      .cls-2 {
        fill: #f2f2f2;
      }

      .cls-3 {
        fill: #fefefe;
      }
    </style>
  </defs>
  <rect class="cls-2" x="0" y="0" width="256" height="256"/>
  <g id="_Слой_1-2" data-name="Слой_1">
    <g id="_1355435883872" data-name=" 1355435883872">
      <path class="cls-1" d="M48.35,57.06c9.13-.9,18.31,2.53,27.79,2.54,24.34,0,46.57,1.54,71.2.45,11.41-.5,22.73-.41,34.14-.45,9.95-.63,16.3-4.52,26.35-3.99.9,16.83-4.43,31.51-5.85,49.69-2.45,31.24-.39,46.8,4.93,76.84,1.3,7.37,1.09,10.76.35,18.2-10.9.89-17.96-3.85-29.83-4.02-22.43-.31-40.73-2.78-63.89-1.27-12.55.82-23.8,1.26-36.37,1.31-10.86.58-16.4,3.92-27.8,2.36-3.14-17.16,3.47-26.11,4.46-44.49,1.4-26,1.58-54.73-4.16-79.83-1.68-7.34-1.88-9.7-1.31-17.34h0Z"/>
      <g>
        <path class="cls-3" d="M97.36,148.53v1.74c-3.83.32-8.5,2.82-8.5,9.09s4.15,8.53,8.45,8.86v1.8h4.21v-1.8c4.38-.41,8.51-2.88,8.51-9.01s-4.24-8.65-8.45-8.95v-1.74s-4.21,0-4.21,0ZM97.33,165.1c-1.77-.24-3.97-1.94-3.97-5.83,0-4.18,2.24-5.71,3.97-5.94v11.77h0ZM101.54,153.33c1.85.24,3.97,1.71,3.97,5.89s-2.24,5.68-3.97,5.89v-11.77ZM121.73,149.03c-5.86,0-9.65,4.44-9.65,10.39s3.44,10.09,9.33,10.09,9.74-3.94,9.74-10.45c0-5.47-3.33-10.04-9.42-10.04h0ZM121.61,152.6c3.09,0,4.8,3.06,4.8,6.62,0,3.86-1.74,6.74-4.77,6.74s-4.83-2.74-4.83-6.62,1.77-6.74,4.8-6.74h0ZM137.65,169.19h4.5v-16.07h5.42v-3.77h-15.24v3.77h5.33v16.07ZM157.72,149.03c-5.86,0-9.65,4.44-9.65,10.39s3.44,10.09,9.33,10.09,9.74-3.94,9.74-10.45c0-5.47-3.33-10.04-9.42-10.04h0ZM157.61,152.6c3.09,0,4.8,3.06,4.8,6.62,0,3.86-1.74,6.74-4.77,6.74s-4.83-2.74-4.83-6.62,1.77-6.74,4.8-6.74h0Z"/>
        <path class="cls-3" d="M89.74,137.86c1,.15,2.65.29,4.86.29,3.94,0,6.36-.65,7.8-1.8,1.24-1,2.06-2.41,2.06-4.21,0-2.56-1.68-4.27-3.94-4.89v-.06c2.24-.82,3.27-2.47,3.27-4.24s-1-3.15-2.38-3.88c-1.44-.85-3.12-1.12-5.86-1.12-2.24,0-4.62.18-5.8.41v19.48h0ZM94.18,121.35c.38-.06.94-.12,1.91-.12,2.03,0,3.18.79,3.18,2.3s-1.27,2.44-3.62,2.44h-1.47v-4.62h0ZM94.18,129.17h1.53c2.24,0,4.03.79,4.03,2.8s-1.8,2.85-3.83,2.85c-.77,0-1.3,0-1.74-.06v-5.59h0ZM117.73,132.85l1.53,5.09h4.83l-6.15-19.84h-5.89l-6.06,19.84h4.65l1.41-5.09s5.68,0,5.68,0ZM112.7,129.5l1.18-4.21c.32-1.15.62-2.65.91-3.83h.06c.29,1.18.65,2.65,1,3.83l1.24,4.21s-4.38,0-4.38,0ZM126.73,118.11v19.84h22.99v-19.84h-4.39v16.16h-4.91v-16.16h-4.39v16.16h-4.89v-16.16h-4.41ZM165.4,125.91h-7.3v-4.12h7.74v-3.68h-12.24v19.84h12.66v-3.68h-8.15v-4.71h7.3v-3.65h0Z"/>
        <path class="cls-3" d="M86.74,90.78c1.12-.56,2.83-1.18,4.36-1.18,1.91,0,3,.88,3,2.18,0,1.56-1.53,2.5-3.56,2.5h-1.85v3.3h1.88c1.85,0,4.15.44,4.15,2.65,0,1.65-1.38,2.59-3.65,2.59-1.85,0-3.91-.71-4.8-1.21l-.94,3.47c1.65.94,3.88,1.38,5.94,1.38,3.71,0,8.18-1.53,8.18-5.94,0-2.68-2.18-4.38-4.65-4.71v-.06c2.3-.56,3.97-2.21,3.97-4.68,0-2.91-2.56-5.09-6.92-5.09-2.74,0-4.8.77-6.18,1.59l1.06,3.21h0Z"/>
        <path id="_1" data-name=" 1" class="cls-3" d="M105.19,86.31v5.3c0,2.41-.24,4.59-.79,6.59-.44,1.56-1.09,3-1.88,4.41l-1.65.12.18,8.45h3.41l.24-5.03h11.6l.24,5.03h3.42l.21-8.45-1.98-.12v-16.3h-12.98ZM109.34,89.95h4.33v12.54h-6.59c.53-.94,1.03-2.15,1.38-3.38.59-1.97.88-4.21.88-6.5v-2.65h0Z"/>
        <polygon id="_2" data-name=" 2" class="cls-3" points="134.47 94.1 127.18 94.1 127.18 89.98 134.92 89.98 134.92 86.31 122.67 86.31 122.67 106.14 135.33 106.14 135.33 102.46 127.18 102.46 127.18 97.75 134.47 97.75 134.47 94.1"/>
        <path id="_3" data-name=" 3" class="cls-3" d="M152.28,102.08c-.88.35-2.38.65-3.74.65-4,0-6.36-2.5-6.36-6.47,0-4.41,2.77-6.56,6.33-6.56,1.59,0,2.85.35,3.77.74l.91-3.56c-.79-.41-2.56-.88-4.89-.88-6,0-10.83,3.77-10.83,10.54,0,5.65,3.53,9.95,10.39,9.95,2.41,0,4.27-.47,5.09-.88l-.68-3.5h0Z"/>
        <path id="_4" data-name=" 4" class="cls-3" d="M155.9,86.31v19.75c1,.15,2.65.29,4.86.29,3.09,0,6.42-.59,8.33-2.53.97-1.03,1.59-2.44,1.59-4.33,0-4.41-3.62-6.45-7.89-6.45-.85,0-1.8.06-2.41.15v-6.89h-4.47ZM160.34,96.61c.56-.06,1.09-.12,1.74-.12,2.15,0,3.88.94,3.88,3.21s-1.77,3.3-3.94,3.3c-.65,0-1.18-.03-1.68-.12v-6.27h0Z"/>
      </g>
    </g>
  </g>
</svg>