<?xml version="1.0" encoding="UTF-8"?>
<svg id="_Слой_1" data-name="Слой 1" xmlns="http://www.w3.org/2000/svg" viewBox="0 0 256 256">
  <defs>
    <style>
      .cls-1, .cls-2 {
        fill-rule: evenodd;
      }

      .cls-1, .cls-3 {
        fill: #f2f2f2;
      }

      .cls-2 {
        fill: #ed1117;
      }

      .cls-4 {
        fill: #fefefe;
      }
    </style>
  </defs>
  <rect class="cls-3" x="0" width="256" height="256"/>
  <g>
    <g id="_Слой_1-2" data-name="Слой_1">
      <g id="_1355438288784" data-name=" 1355438288784">
        <path class="cls-2" d="M98.43,32.42c-36.66,0-66.38,29.72-66.38,66.39s29.72,66.38,66.38,66.38c7.12,0,13.97-1.12,20.39-3.19.48-3.37,2.36-9.79,2.36-9.79l.67-1.83s.64-1.6.99-2.39c5.22-11.8,14.59-21.38,26.25-26.88,2.88-6.67,4.48-13.92,4.48-21.42,0-30.71-24.89-55.61-55.61-55.61s-56.89,25.79-57.54,55.94c0-.4,0-.81,0-1.2,0-32.05,25.97-58.03,58.02-58.03s58.03,25.98,58.03,58.03c0,7.32-1.36,14.33-3.84,20.79,3.11-1.2,6.36-2.12,9.71-2.72,1.62-5.74,2.49-11.81,2.49-18.07,0-36.67-29.72-66.39-66.39-66.39Z"/>
        <g>
          <path class="cls-4" d="M116.54,101.88c-3.57,0-5.88,2.71-5.88,6.33s2.09,6.14,5.68,6.14,5.93-2.4,5.93-6.36c0-3.33-2.03-6.11-5.73-6.11ZM116.48,112.19c-1.82,0-2.94-1.67-2.94-4.04s1.08-4.1,2.93-4.1,2.92,1.87,2.92,4.03c0,2.35-1.06,4.11-2.91,4.11ZM101.06,102.07v2.3h3.24v9.78h2.74v-9.78h3.3v-2.3h-9.29ZM94.61,101.88c-3.57,0-5.88,2.71-5.88,6.33s2.09,6.14,5.68,6.14,5.93-2.4,5.93-6.36c0-3.33-2.03-6.11-5.73-6.11ZM94.56,112.19c-1.83,0-2.94-1.67-2.94-4.04s1.07-4.1,2.92-4.1,2.92,1.87,2.92,4.03c0,2.35-1.06,4.11-2.9,4.11ZM82.34,102.63v-1.06h-2.57v1.06c-2.33.2-5.18,1.72-5.18,5.53s2.53,5.2,5.15,5.4v1.09h2.56v-1.09c2.67-.25,5.18-1.76,5.18-5.49s-2.58-5.27-5.14-5.45ZM79.75,111.67c-1.07-.15-2.42-1.19-2.42-3.55,0-2.55,1.37-3.48,2.42-3.63v7.18ZM82.32,111.67v-7.18c1.13.15,2.42,1.04,2.42,3.59s-1.36,3.46-2.42,3.59Z"/>
          <path class="cls-4" d="M116.77,92.88v-2.87h4.44v-2.22h-4.44v-2.51h4.71v-2.24h-7.45v12.08h7.71v-2.24h-4.96ZM108.99,83.04v9.84h-2.99v-9.84h-2.67v9.84h-2.98v-9.84h-2.68v12.08h14v-12.08h-2.67ZM92.3,83.04h-3.59l-3.69,12.08h2.83l.86-3.1h3.46l.93,3.1h2.94l-3.75-12.08ZM89.11,89.98l.72-2.57c.2-.7.37-1.61.56-2.33h.03c.19.72.39,1.61.61,2.33l.76,2.57h-2.67ZM81.69,88.62v-.03c1.37-.51,2-1.51,2-2.59s-.61-1.92-1.45-2.37c-.87-.52-1.9-.68-3.57-.68-1.36,0-2.81.11-3.53.26v11.87c.61.09,1.61.18,2.96.18,2.4,0,3.87-.39,4.75-1.09.76-.61,1.26-1.47,1.26-2.57,0-1.56-1.02-2.61-2.41-2.98ZM77.83,85.02c.24-.04.58-.08,1.17-.08,1.24,0,1.94.49,1.94,1.41s-.78,1.48-2.21,1.48h-.89v-2.81ZM78.89,93.23c-.47,0-.79,0-1.06-.04v-3.4h.93c1.37,0,2.46.48,2.46,1.7s-1.09,1.74-2.33,1.74Z"/>
        </g>
      </g>
    </g>
    <g id="_Слой_1-3" data-name="Слой_1">
      <path class="cls-2" d="M222.44,169.59c0,27.95-22.66,50.61-50.61,50.61s-50.61-22.66-50.61-50.61c0-2.97.26-5.87.75-8.7.63-3.65,1.65-7.15,3.01-10.48.35-.85.72-1.67,1.11-2.49,4.48-9.46,11.81-17.3,20.88-22.42,1.3-.73,2.62-1.41,3.99-2.03,3.28-1.49,6.75-2.63,10.36-3.39,3.39-.73,6.9-1.1,10.51-1.1,27.95,0,50.61,22.66,50.61,50.61Z"/>
      <g id="_1355438288784-2" data-name=" 1355438288784">
        <path class="cls-1" d="M170.97,211.44c21.75-.47,40.65-19.36,40.65-41.22s-17.96-40.13-40.12-40.13-41.05,18.6-41.52,40.36c0-.29-.01-.58-.01-.87,0-23.12,18.75-41.87,41.87-41.87s41.87,18.75,41.87,41.87-18.75,41.87-41.87,41.87c-.29,0-.58,0-.87-.01h0Z"/>
        <g>
          <path class="cls-3" d="M158.37,171.58v.76c-1.68.14-3.74,1.24-3.74,4s1.82,3.75,3.71,3.89v.79h1.85v-.79c1.93-.18,3.74-1.27,3.74-3.96s-1.86-3.8-3.71-3.93v-.76h-1.85ZM158.36,178.87c-.78-.1-1.75-.85-1.75-2.56,0-1.84.98-2.51,1.75-2.61v5.17ZM160.21,173.69c.81.1,1.75.75,1.75,2.59s-.98,2.5-1.75,2.59v-5.17h0ZM169.08,171.8c-2.57,0-4.24,1.95-4.24,4.57s1.51,4.44,4.1,4.44,4.28-1.73,4.28-4.59c0-2.41-1.46-4.41-4.14-4.41h0ZM169.03,173.37c1.36,0,2.11,1.35,2.11,2.91,0,1.69-.76,2.96-2.1,2.96s-2.12-1.2-2.12-2.91.78-2.96,2.11-2.96ZM176.08,180.66h1.98v-7.06h2.38v-1.66h-6.7v1.66h2.34v7.06ZM184.9,171.8c-2.57,0-4.24,1.95-4.24,4.57s1.51,4.44,4.1,4.44,4.28-1.73,4.28-4.59c0-2.41-1.46-4.41-4.14-4.41h0ZM184.84,173.37c1.36,0,2.11,1.35,2.11,2.91,0,1.69-.76,2.96-2.1,2.96s-2.12-1.2-2.12-2.91.78-2.96,2.11-2.96Z"/>
          <path class="cls-3" d="M155.02,166.89c.44.06,1.16.13,2.13.13,1.73,0,2.79-.28,3.43-.79.54-.44.91-1.06.91-1.85,0-1.13-.74-1.88-1.73-2.15v-.03c.98-.36,1.44-1.09,1.44-1.86s-.44-1.38-1.05-1.71c-.63-.37-1.37-.49-2.57-.49-.98,0-2.03.08-2.55.18v8.56h0ZM156.97,159.64c.17-.03.41-.05.84-.05.89,0,1.4.35,1.4,1.01s-.56,1.07-1.59,1.07h-.65v-2.03h0ZM156.97,163.08h.67c.98,0,1.77.35,1.77,1.23s-.79,1.25-1.68,1.25c-.34,0-.57,0-.76-.03v-2.46h0ZM167.32,164.69l.67,2.24h2.12l-2.7-8.72h-2.59l-2.66,8.72h2.04l.62-2.24h2.5,0ZM165.11,163.22l.52-1.85c.14-.5.27-1.16.4-1.68h.03c.13.52.28,1.16.44,1.68l.54,1.85h-1.93ZM171.28,158.21v8.72h10.1v-8.72h-1.93v7.1h-2.16v-7.1h-1.93v7.1h-2.15v-7.1h-1.94ZM188.27,161.64h-3.21v-1.81h3.4v-1.62h-5.38v8.72h5.56v-1.62h-3.58v-2.07h3.21v-1.6h0Z"/>
        </g>
      </g>
    </g>
  </g>
  <g>
    <path class="cls-3" d="M158.37,171.58v.76c-1.68.14-3.74,1.24-3.74,4s1.82,3.75,3.71,3.89v.79h1.85v-.79c1.93-.18,3.74-1.27,3.74-3.96s-1.86-3.8-3.71-3.93v-.76h-1.85ZM158.36,178.87c-.78-.1-1.75-.85-1.75-2.56,0-1.84.98-2.51,1.75-2.61v5.17ZM160.21,173.69c.81.1,1.75.75,1.75,2.59s-.98,2.5-1.75,2.59v-5.17h0ZM169.08,171.8c-2.57,0-4.24,1.95-4.24,4.57s1.51,4.44,4.1,4.44,4.28-1.73,4.28-4.59c0-2.41-1.46-4.41-4.14-4.41h0ZM169.03,173.37c1.36,0,2.11,1.35,2.11,2.91,0,1.69-.76,2.96-2.1,2.96s-2.12-1.2-2.12-2.91.78-2.96,2.11-2.96ZM176.08,180.66h1.98v-7.06h2.38v-1.66h-6.7v1.66h2.34v7.06ZM184.9,171.8c-2.57,0-4.24,1.95-4.24,4.57s1.51,4.44,4.1,4.44,4.28-1.73,4.28-4.59c0-2.41-1.46-4.41-4.14-4.41h0ZM184.84,173.37c1.36,0,2.11,1.35,2.11,2.91,0,1.69-.76,2.96-2.1,2.96s-2.12-1.2-2.12-2.91.78-2.96,2.11-2.96Z"/>
    <path class="cls-3" d="M155.02,166.89c.44.06,1.16.13,2.13.13,1.73,0,2.79-.28,3.43-.79.54-.44.91-1.06.91-1.85,0-1.13-.74-1.88-1.73-2.15v-.03c.98-.36,1.44-1.09,1.44-1.86s-.44-1.38-1.05-1.71c-.63-.37-1.37-.49-2.57-.49-.98,0-2.03.08-2.55.18v8.56h0ZM156.97,159.64c.17-.03.41-.05.84-.05.89,0,1.4.35,1.4,1.01s-.56,1.07-1.59,1.07h-.65v-2.03h0ZM156.97,163.08h.67c.98,0,1.77.35,1.77,1.23s-.79,1.25-1.68,1.25c-.34,0-.57,0-.76-.03v-2.46h0ZM167.32,164.69l.67,2.24h2.12l-2.7-8.72h-2.59l-2.66,8.72h2.04l.62-2.24h2.5,0ZM165.11,163.22l.52-1.85c.14-.5.27-1.16.4-1.68h.03c.13.52.28,1.16.44,1.68l.54,1.85h-1.93ZM171.28,158.21v8.72h10.1v-8.72h-1.93v7.1h-2.16v-7.1h-1.93v7.1h-2.15v-7.1h-1.94ZM188.27,161.64h-3.21v-1.81h3.4v-1.62h-5.38v8.72h5.56v-1.62h-3.58v-2.07h3.21v-1.6h0Z"/>
  </g>
</svg>