<?xml version="1.0" encoding="UTF-8"?>
<svg id="_Слой_1" data-name="Слой 1" xmlns="http://www.w3.org/2000/svg" viewBox="0 0 256 256">
  <defs>
    <style>
      .cls-1 {
        stroke-width: 2px;
      }

      .cls-1, .cls-2 {
        fill: none;
        stroke: #fff;
        stroke-linecap: round;
        stroke-linejoin: round;
      }

      .cls-3 {
        fill: #f2f2f2;
      }

      .cls-4 {
        fill: #ed1117;
      }

      .cls-5 {
        fill: #fefefe;
      }
    </style>
  </defs>
  <rect class="cls-3" x="0" width="256" height="256"/>
  <g>
    <g>
      <g>
        <path class="cls-4" d="M202.23,134.65c.54,8.54.75,17.82.46,27.77-1.24,42.79-4.77,49.47-9.8,50.9-1.02.29-2.09.36-3.23.48,0,0-12.09.55-16.78-3.45l.45-3.53c3.01-1.77,7.56-6.35,6.55-15.52-1.02-9.31-2.65-52.19-3.28-78.66h0c2.09-19.77,13.21-39.51,13.39-39.82,1.05,1.69,1.89,3.52,2.48,5.44,3.07,9.89,8.06,29.44,9.75,56.39Z"/>
        <path class="cls-4" d="M192.89,213.32l-3.05,8.58s-9.81,2.06-18.01-3.21l1.06-8.35c4.68,4,16.78,3.45,16.78,3.45,1.14-.11,2.22-.18,3.23-.48Z"/>
        <path class="cls-4" d="M176.61,112.62h0c.63,26.48,2.26,69.37,3.28,78.67,1.01,9.17-3.54,13.75-6.55,15.52-.84.5-1.56.77-2.01.86,0,0-2.62.54-7.08,1.23,2.79-4.37,4.44-20.76,4.44-20.76-13.37-11.39-12.29-26.34-12.29-26.34-38.13,1.92-56.79,0-56.79,0,0,0,1.09,14.96-12.29,26.34,0,0,1.65,16.4,4.44,20.76-4.46-.69-7.08-1.23-7.08-1.23-.44-.1-1.17-.37-2.01-.87-3.01-1.77-7.55-6.35-6.55-15.51,1.02-9.31,2.65-52.19,3.28-78.66h0c-2.11-19.92-13.39-39.83-13.39-39.83,1.59-2.57,3.68-4.83,6.17-6.61,7.66-5.47,15.11-9.3,18.97-11.13,1.69-.81,3.55-1.23,5.43-1.23h6.75s8.57,0,15.22,8.46l1.63.02c.25-2.09.63-3.73,1-4.91.17-.54.32-.98.46-1.33.13.06.28.09.43.09.59,0,1.07-.48,1.07-1.07,0-.22-.07-.43-.18-.6l1.19-.08c3.12,5.12,3.85,8.93,3.85,8.93h.04s.77-4.09,4.19-9.48l.97.48c-.2.2-.32.46-.32.76,0,.59.48,1.07,1.08,1.07.15,0,.29-.03.42-.08.13.36.3.8.46,1.34.36,1.19.74,2.82.99,4.9l1.64-.02c6.65-8.46,15.22-8.46,15.22-8.46h6.75c1.88,0,3.73.43,5.43,1.23,3.85,1.83,11.32,5.67,18.97,11.13,2.49,1.78,4.58,4.04,6.17,6.61h0c-.18.31-11.29,20.06-13.39,39.81Z"/>
        <path class="cls-4" d="M173.33,206.81l-.45,3.53-1.06,8.35-.43,3.34s-19.27,3.42-43.37,3.42h-.04c-24.11,0-43.37-3.42-43.37-3.42l-.43-3.34-1.07-8.35-.45-3.53h0c.84.5,1.57.77,2.01.86,0,0,2.62.54,7.08,1.23,7.79,1.19,21.23,2.83,36.23,2.83h.04c14.99,0,28.43-1.64,36.23-2.83,4.46-.69,7.08-1.23,7.08-1.23.44-.1,1.17-.37,2.01-.86Z"/>
        <path class="cls-4" d="M168.68,188.14s-1.65,16.4-4.44,20.76c-7.79,1.19-21.23,2.83-36.23,2.83h-.04c-15,0-28.43-1.64-36.23-2.83-2.79-4.37-4.44-20.76-4.44-20.76,13.37-11.39,12.29-26.34,12.29-26.34,0,0,18.66,1.92,56.79,0,0,0-1.09,14.96,12.29,26.34Z"/>
        <path class="cls-4" d="M163.8,47.37s5.24,2.8,1.05,7.69c-1.69-.81-3.55-1.23-5.43-1.23h-6.75s-8.57,0-15.22,8.46l-1.64.02c-.25-2.08-.63-3.71-.99-4.9,10.18-15.55,28-20.28,28-20.28,2.23,2.88,4.15,6.95.98,10.25Z"/>
        <path class="cls-4" d="M159.32,33.46s1.84,1.49,3.51,3.66c0,0-17.82,4.74-28,20.28-.17-.54-.33-.98-.46-1.34.38-.17.65-.55.65-.99,0-.6-.48-1.08-1.07-1.08-.3,0-.57.12-.76.32l-.97-.48c3.19-5.04,8.68-11.22,17.97-16.29h0c2.71-1.48,5.74-2.86,9.13-4.08Z"/>
        <path class="cls-4" d="M128.02,27.08c26.02,0,31.29,6.38,31.29,6.38-3.39,1.23-6.42,2.6-9.13,4.08h0c-4.76-1.61-11.83-2.95-22.16-2.95h-.04c-10.35,0-17.41,1.34-22.17,2.95-2.71-1.47-5.74-2.86-9.13-4.08,0,0,5.27-6.38,31.3-6.38h.04Z"/>
        <path class="cls-4" d="M128.02,34.59c10.33,0,17.4,1.34,22.16,2.95-9.29,5.07-14.78,11.25-17.97,16.29-3.42,5.4-4.19,9.48-4.19,9.48h-.04s-.73-3.81-3.85-8.93c-3.14-5.14-8.68-11.59-18.32-16.84,4.76-1.61,11.82-2.95,22.17-2.95h.04Z"/>
        <path class="cls-4" d="M124.14,54.38l-1.19.08c-.19-.29-.52-.48-.89-.48-.6,0-1.08.48-1.08,1.08,0,.44.27.82.65.98-.14.35-.3.79-.46,1.33-10.19-15.53-27.99-20.27-27.99-20.27,1.67-2.16,3.51-3.66,3.51-3.66,3.39,1.23,6.42,2.61,9.13,4.08,9.64,5.25,15.18,11.71,18.32,16.84Z"/>
        <path class="cls-4" d="M121.17,57.39c-.36,1.19-.75,2.82-1,4.91l-1.63-.02c-6.65-8.46-15.22-8.46-15.22-8.46h-6.75c-1.88,0-3.73.43-5.43,1.23-4.18-4.89,1.06-7.69,1.06-7.69-3.17-3.3-1.26-7.37.97-10.25,0,0,17.81,4.74,27.99,20.27Z"/>
        <path class="cls-4" d="M83.12,210.34l1.07,8.35c-8.21,5.27-18.02,3.21-18.02,3.21l-3.05-8.58c1.02.29,2.09.36,3.23.47,0,0,12.09.55,16.78-3.45Z"/>
        <path class="cls-4" d="M63.11,213.32c-5.02-1.43-8.56-8.11-9.8-50.91-.29-9.96-.08-19.25.46-27.79,1.7-26.94,6.68-46.48,9.75-56.37.6-1.92,1.43-3.75,2.48-5.45,0,0,11.28,19.91,13.39,39.81h0c-.63,26.48-2.25,69.37-3.28,78.67-1,9.16,3.54,13.74,6.55,15.51h0s.45,3.54.45,3.54c-4.68,4-16.78,3.45-16.78,3.45-1.14-.11-2.21-.18-3.23-.47Z"/>
      </g>
      <g>
        <path class="cls-2" d="M79.39,112.63c-.63,26.47-2.25,69.35-3.28,78.66-1,9.16,3.54,13.74,6.55,15.51.84.5,1.57.77,2.01.87,0,0,2.62.54,7.08,1.23,7.79,1.19,21.23,2.83,36.23,2.83"/>
        <path class="cls-2" d="M79.65,96.18c0,3.78-.1,9.55-.26,16.43"/>
        <path class="cls-2" d="M103.32,53.83h-6.75c-1.88,0-3.73.43-5.43,1.23-3.85,1.83-11.31,5.67-18.97,11.13-2.49,1.78-4.58,4.04-6.17,6.61-1.05,1.69-1.89,3.52-2.48,5.45-3.07,9.89-8.05,29.43-9.75,56.37-.54,8.54-.75,17.83-.46,27.79,1.24,42.8,4.78,49.48,9.8,50.91,1.02.29,2.09.36,3.23.47,0,0,12.09.55,16.78-3.45"/>
        <path class="cls-2" d="M91.14,55.06c-4.18-4.89,1.06-7.69,1.06-7.69-3.17-3.3-1.26-7.37.97-10.25,1.67-2.16,3.51-3.66,3.51-3.66,3.39,1.23,6.42,2.61,9.13,4.08,9.64,5.25,15.18,11.71,18.32,16.84,3.12,5.12,3.85,8.93,3.85,8.93"/>
        <path class="cls-2" d="M93.17,37.12s17.81,4.74,27.99,20.27c1.17,1.78,2.23,3.71,3.17,5.78"/>
        <path class="cls-2" d="M103.32,53.83s8.57,0,15.22,8.46"/>
        <path class="cls-2" d="M96.68,33.46s5.27-6.38,31.3-6.38"/>
        <path class="cls-2" d="M82.67,206.81l.45,3.53,1.07,8.35.43,3.34s19.26,3.42,43.37,3.42"/>
        <path class="cls-2" d="M63.11,213.32h0s3.05,8.58,3.05,8.58c0,0,9.81,2.06,18.02-3.21"/>
        <path class="cls-2" d="M66,72.81s11.28,19.91,13.39,39.81h0"/>
        <path class="cls-2" d="M122.95,54.47c.11.17.18.38.18.6,0,.59-.48,1.07-1.07,1.07-.15,0-.3-.03-.43-.09-.38-.17-.65-.55-.65-.98,0-.6.48-1.08,1.08-1.08.37,0,.7.19.89.48Z"/>
        <path class="cls-2" d="M91.76,208.9c-2.79-4.37-4.44-20.76-4.44-20.76,13.37-11.39,12.29-26.34,12.29-26.34,0,0,18.66,1.92,56.79,0,0,0-1.09,14.96,12.29,26.34,0,0-1.65,16.4-4.44,20.76"/>
        <path class="cls-2" d="M176.61,112.63c.63,26.47,2.26,69.35,3.28,78.66,1.01,9.17-3.54,13.75-6.55,15.52-.84.5-1.56.77-2.01.86,0,0-2.62.54-7.08,1.23-7.79,1.19-21.23,2.83-36.23,2.83"/>
        <path class="cls-2" d="M176.35,96.18c0,3.78.1,9.55.26,16.43"/>
        <path class="cls-2" d="M189.99,72.81c1.05,1.69,1.89,3.52,2.48,5.44,3.07,9.89,8.06,29.44,9.75,56.39.54,8.54.75,17.82.46,27.77-1.24,42.79-4.77,49.47-9.8,50.9-1.02.29-2.09.36-3.23.48,0,0-12.09.55-16.78-3.45"/>
        <path class="cls-2" d="M152.68,53.83h6.75c1.88,0,3.73.43,5.43,1.23,3.85,1.83,11.32,5.67,18.97,11.13,2.49,1.78,4.58,4.04,6.17,6.61"/>
        <path class="cls-2" d="M150.18,37.54c-9.29,5.07-14.78,11.25-17.97,16.29-3.42,5.4-4.19,9.48-4.19,9.48"/>
        <path class="cls-2" d="M164.86,55.06c4.18-4.89-1.05-7.69-1.05-7.69,3.17-3.3,1.25-7.37-.98-10.25-1.67-2.16-3.51-3.66-3.51-3.66-3.39,1.23-6.42,2.6-9.13,4.08"/>
        <path class="cls-2" d="M162.83,37.12s-17.82,4.74-28,20.28c-1.17,1.78-2.23,3.7-3.16,5.77"/>
        <path class="cls-2" d="M152.68,53.83s-8.57,0-15.22,8.46"/>
        <path class="cls-2" d="M159.32,33.46s-5.27-6.38-31.29-6.38"/>
        <path class="cls-2" d="M150.19,37.54h0c-4.76-1.61-11.83-2.95-22.16-2.95h-.04c-10.35,0-17.41,1.34-22.17,2.95"/>
        <path class="cls-2" d="M173.33,206.81l-.45,3.53-1.06,8.35-.43,3.34s-19.27,3.42-43.37,3.42"/>
        <path class="cls-2" d="M192.89,213.32l-3.05,8.58s-9.81,2.06-18.01-3.21"/>
        <path class="cls-2" d="M189.99,72.81h0c-.18.31-11.29,20.06-13.39,39.81h0"/>
        <path class="cls-2" d="M133.18,54.31c-.2.2-.32.46-.32.76,0,.59.48,1.07,1.08,1.07.15,0,.29-.03.42-.08.38-.17.65-.55.65-.99,0-.6-.48-1.08-1.07-1.08-.3,0-.57.12-.76.32Z"/>
        <path class="cls-2" d="M119.91,90.2c0,3.06.02,5.03.02,5.03"/>
        <path class="cls-1" d="M122.06,55.07s-.18.33-.43.98c-.14.35-.3.79-.46,1.33-.36,1.19-.75,2.82-1,4.91-.13,1.11-.22,2.35-.24,3.71-.1,5.39-.05,15.37-.02,24.2"/>
        <path class="cls-2" d="M136.08,90.2c-.01,3.06-.02,5.03-.02,5.03"/>
        <path class="cls-1" d="M133.92,55.07s.18.33.44.99c.13.36.3.8.46,1.34.36,1.19.74,2.82.99,4.9.13,1.11.22,2.35.24,3.71.09,5.39.04,15.37.02,24.2"/>
        <path class="cls-2" d="M53.77,134.56v.06c.03.94.44,11.92,2.74,20.31"/>
        <path class="cls-2" d="M202.23,134.56s0,.03,0,.08c-.03,1.05-.45,11.95-2.74,20.29"/>
      </g>
    </g>
    <g>
      <path class="cls-5" d="M106.97,129.04v1.19c-2.63.22-5.84,1.94-5.84,6.24s2.85,5.86,5.8,6.08v1.23h2.89v-1.23c3.01-.28,5.84-1.98,5.84-6.18s-2.91-5.94-5.8-6.14v-1.19h-2.89ZM106.95,140.41c-1.21-.16-2.73-1.33-2.73-4,0-2.87,1.54-3.92,2.73-4.08v8.08ZM109.84,132.33c1.27.16,2.73,1.17,2.73,4.04s-1.54,3.9-2.73,4.04v-8.08h0ZM123.7,129.38c-4.02,0-6.63,3.05-6.63,7.13s2.36,6.93,6.4,6.93,6.69-2.71,6.69-7.17c0-3.76-2.28-6.89-6.46-6.89h0ZM123.62,131.83c2.12,0,3.29,2.1,3.29,4.54,0,2.65-1.19,4.63-3.27,4.63s-3.31-1.88-3.31-4.54,1.21-4.63,3.29-4.63ZM134.63,143.22h3.09v-11.03h3.72v-2.59h-10.46v2.59h3.66v11.03ZM148.4,129.38c-4.02,0-6.63,3.05-6.63,7.13s2.36,6.93,6.4,6.93,6.69-2.71,6.69-7.17c0-3.76-2.28-6.89-6.46-6.89h0ZM148.32,131.83c2.12,0,3.29,2.1,3.29,4.54,0,2.65-1.19,4.63-3.27,4.63s-3.31-1.88-3.31-4.54,1.21-4.63,3.29-4.63Z"/>
      <path class="cls-5" d="M101.74,121.71c.69.1,1.82.2,3.33.2,2.71,0,4.36-.44,5.35-1.23.85-.69,1.41-1.66,1.41-2.89,0-1.76-1.15-2.93-2.71-3.35v-.04c1.54-.57,2.24-1.7,2.24-2.91s-.69-2.16-1.64-2.67c-.99-.59-2.14-.77-4.02-.77-1.54,0-3.17.12-3.98.28v13.37h0ZM104.79,110.38c.26-.04.65-.08,1.31-.08,1.39,0,2.18.55,2.18,1.58s-.87,1.68-2.48,1.68h-1.01v-3.17h0ZM104.79,115.75h1.05c1.54,0,2.77.55,2.77,1.92s-1.23,1.96-2.63,1.96c-.53,0-.89,0-1.19-.04v-3.84h0ZM120.95,118.28l1.05,3.49h3.31l-4.22-13.62h-4.04l-4.16,13.62h3.19l.97-3.49h3.9,0ZM117.5,115.97l.81-2.89c.22-.79.42-1.82.63-2.63h.04c.2.81.44,1.82.69,2.63l.85,2.89h-3.01ZM127.13,108.16v13.62h15.78v-13.62h-3.01v11.09h-3.37v-11.09h-3.01v11.09h-3.35v-11.09h-3.03ZM153.67,113.51h-5.01v-2.83h5.31v-2.53h-8.4v13.62h8.69v-2.53h-5.6v-3.23h5.01v-2.51h0Z"/>
    </g>
  </g>
</svg>