<?xml version="1.0" encoding="UTF-8"?>
<svg id="_Слой_1" data-name="Слой 1" xmlns="http://www.w3.org/2000/svg" viewBox="0 0 256 256">
  <defs>
    <style>
      .cls-1 {
        fill: #ed1117;
        fill-rule: evenodd;
      }

      .cls-2 {
        fill: #f2f2f2;
      }
    </style>
  </defs>
  <rect class="cls-2" x="0" width="256" height="256"/>
  <g>
    <path class="cls-1" d="M136,129.43c2.36-.08,4.76-.19,7.2-.32,2.48-.13,5.02-.29,7.6-.48,2.56-.19,5.1-.39,7.63-.63,2.4-.22,4.84-.47,7.33-.74.13-.41.23-.83.33-1.25-.7-.43-1.35-.93-1.93-1.49-.66-.64-1.25-1.36-1.74-2.14-.55-.88-.99-1.84-1.28-2.86-.28-.98-.44-2.02-.44-3.09,0-1.52.3-2.97.85-4.29v-.02c.58-1.36,1.41-2.59,2.44-3.62,1.04-1.04,2.27-1.87,3.65-2.44,1.32-.55,2.78-.85,4.3-.85s2.97.3,4.29.85h.02c1.37.58,2.6,1.41,3.62,2.44h0c1.03,1.04,1.87,2.27,2.44,3.65.55,1.32.85,2.78.85,4.29,0,1.1-.16,2.16-.46,3.17-.31,1.04-.76,2.02-1.33,2.91-.52.8-1.14,1.54-1.84,2.18-.38.35-.78.67-1.21.96,1.93-.28,3.84-.57,5.76-.88,2.34-.37,4.68-.77,7.01-1.19,2.37-.42,4.8-.89,7.29-1.39,2.33-.47,4.64-.95,6.93-1.45v-54.16c0-.91-.18-1.78-.51-2.57-.34-.83-.85-1.57-1.47-2.2-.62-.62-1.37-1.13-2.2-1.47-.79-.33-1.66-.51-2.57-.51h-83.02c.54,1.28,1.09,2.62,1.66,4.02.65,1.62,1.32,3.32,1.98,5.08.75,1.97,1.51,4.04,2.27,6.2.75,2.12,1.5,4.3,2.24,6.56l.42.15c.2.07.42.14.65.2l.64.17.37.09c.43-.7.93-1.34,1.49-1.93.64-.66,1.36-1.25,2.14-1.74.88-.55,1.84-.99,2.86-1.28.98-.28,2.02-.44,3.09-.44,1.52,0,2.97.3,4.29.85h.02c1.37.58,2.6,1.41,3.62,2.44h.01c1.03,1.04,1.86,2.28,2.43,3.65.55,1.32.85,2.78.85,4.29s-.3,2.97-.85,4.3c-.57,1.38-1.41,2.62-2.44,3.65l-.03.02c-1.03,1.02-2.26,1.85-3.63,2.42-1.32.55-2.78.85-4.29.85-1.1,0-2.16-.16-3.17-.46-1.04-.31-2.02-.76-2.91-1.33-.33-.22-.65-.45-.96-.69.5,1.79,1,3.63,1.51,5.53.63,2.39,1.26,4.88,1.89,7.44.77,3.14,1.51,6.35,2.23,9.64.7,3.18,1.38,6.48,2.05,9.89Z"/>
    <path class="cls-1" d="M112.11,58.89h-54.68c-2.12,0-4.05.87-5.44,2.26-1.4,1.4-2.26,3.33-2.26,5.44v56.72c2.38.43,4.92.86,7.59,1.29,2.73.44,5.62.87,8.64,1.28,2.88.39,5.91.78,9.07,1.14,3.07.35,6.22.67,9.46.97l.16-.53.19-.77c-.7-.43-1.35-.93-1.93-1.49-.66-.64-1.25-1.36-1.74-2.14-.55-.88-.99-1.84-1.28-2.86-.28-.98-.44-2.02-.44-3.09,0-1.52.3-2.97.85-4.29v-.02c.58-1.36,1.41-2.59,2.44-3.62,1.04-1.04,2.27-1.87,3.65-2.44,1.32-.55,2.78-.85,4.3-.85s2.97.3,4.29.85h.02c1.36.58,2.59,1.41,3.62,2.44h0c1.04,1.04,1.87,2.27,2.44,3.65.55,1.32.85,2.78.85,4.29,0,1.1-.16,2.16-.46,3.17-.31,1.04-.76,2.02-1.33,2.91-.52.8-1.14,1.54-1.84,2.18-.62.57-1.32,1.08-2.06,1.5l.07.37c.05.22.1.43.16.63.07.23.15.44.24.65.06.14.13.28.21.41,2.9.17,5.85.32,8.84.44,2.97.12,5.99.2,9.04.25,3.05.05,6.15.07,9.3.05,2.98-.02,6.02-.07,9.1-.16-.63-3.21-1.28-6.33-1.95-9.38-.73-3.34-1.47-6.53-2.21-9.59-.77-3.17-1.56-6.25-2.37-9.25-.81-2.99-1.62-5.86-2.43-8.6l-.31-1.06c-.07-.23.06-.47.29-.53.82-.18,1.9-.27,2.76-.34.2-.02.37.1.44.28l.27.6c.33.74.78,1.43,1.3,2.04.53.61,1.14,1.15,1.82,1.59h.02c.66.44,1.4.78,2.17,1,.75.22,1.56.34,2.39.34,1.15,0,2.24-.23,3.23-.64,1.03-.43,1.96-1.05,2.74-1.83.78-.78,1.41-1.71,1.83-2.75.41-.99.64-2.09.64-3.23s-.23-2.24-.64-3.23c-.43-1.03-1.05-1.96-1.83-2.74-.78-.78-1.71-1.41-2.74-1.83-.99-.41-2.09-.64-3.23-.64-.81,0-1.6.11-2.34.32-.77.22-1.49.54-2.14.95-.67.42-1.28.93-1.8,1.52-.53.59-.97,1.25-1.32,1.96l-.31.65c-.09.18-.28.27-.46.24l-.71-.12c-.39-.06-.78-.14-1.17-.23-.38-.09-.75-.18-1.1-.28-.35-.1-.69-.21-1.04-.34-.33-.12-.66-.25-.96-.39l-.39-.17c-.11-.05-.2-.15-.23-.26l-.13-.4c-.79-2.41-1.58-4.72-2.35-6.92-.78-2.2-1.55-4.31-2.32-6.33-.75-1.99-1.51-3.9-2.25-5.73-.74-1.82-1.46-3.55-2.18-5.19l-.05-.12h0Z"/>
    <path class="cls-1" d="M65.59,128.65c-2.78-.38-5.47-.78-8.05-1.19-2.42-.38-4.71-.77-6.85-1.15v63.1c0,.91.18,1.78.51,2.57.34.82.85,1.57,1.47,2.19.62.62,1.37,1.13,2.19,1.47.79.33,1.66.51,2.57.51h84.43c-.13-1.78-.26-3.55-.4-5.29-.16-1.99-.31-3.83-.47-5.54-.16-1.84-.34-3.71-.53-5.61-.17-1.75-.36-3.52-.55-5.3l-.71-.21-.76-.19c-.43.7-.93,1.35-1.49,1.93-.64.66-1.36,1.25-2.14,1.74-.88.55-1.84.99-2.85,1.28-.98.28-2.02.44-3.09.44h-.06c-1.5-.01-2.93-.31-4.24-.85-1.38-.57-2.61-1.4-3.65-2.43-1.03-1.03-1.87-2.27-2.44-3.65-.55-1.32-.85-2.78-.85-4.29s.3-2.97.85-4.3c.57-1.38,1.41-2.62,2.44-3.65s2.27-1.87,3.65-2.43c1.32-.55,2.78-.85,4.3-.85,1.1,0,2.17.16,3.17.45,1.04.31,2.02.76,2.91,1.33.8.52,1.54,1.14,2.18,1.84.52.56.98,1.18,1.38,1.84-.33-2.55-.67-5.09-1.04-7.62-.39-2.74-.8-5.39-1.21-7.96-.4-2.52-.83-5.05-1.27-7.59-.42-2.38-.84-4.7-1.27-6.96-3.14.09-6.24.15-9.29.17-3.28.02-6.52,0-9.69-.05-3.26-.05-6.45-.15-9.56-.27-3.13-.13-6.18-.28-9.14-.46l-.44-.03c-.13,0-.25-.07-.32-.17l-.29-.38c-.28-.37-.51-.75-.71-1.15-.2-.4-.36-.82-.49-1.25-.13-.42-.23-.83-.3-1.25-.07-.42-.13-.84-.16-1.25l-.06-.67c-.02-.2.1-.37.28-.44l.6-.27c.74-.33,1.43-.78,2.04-1.3h0c.61-.53,1.14-1.15,1.58-1.82.43-.67.77-1.41,1-2.19.22-.75.34-1.56.34-2.39,0-1.15-.23-2.24-.64-3.23-.43-1.03-1.05-1.96-1.83-2.74s-1.71-1.41-2.74-1.83c-.99-.41-2.09-.64-3.23-.64s-2.24.23-3.23.64c-1.03.43-1.96,1.06-2.74,1.83s-1.41,1.71-1.84,2.74v.02c-.41.99-.64,2.07-.64,3.21,0,.81.11,1.6.32,2.34.22.77.54,1.49.95,2.14.42.67.94,1.28,1.52,1.8s1.24.97,1.96,1.32l.65.31c.18.09.27.28.24.46l-.12.71c-.06.36-.13.7-.2,1.03-.07.33-.15.66-.24.97v.02c-.09.3-.18.6-.28.91v.02c-.11.31-.22.6-.32.86l-.27.66c-.07.18-.25.28-.44.27l-.71-.06c-3.5-.31-6.9-.65-10.21-1.03-3.28-.37-6.45-.77-9.51-1.19h0Z"/>
    <path class="cls-1" d="M206.28,189.42v-66.03c-2.36.52-4.72,1.02-7.07,1.49-2.54.51-5.09.99-7.62,1.45-2.55.46-5.06.88-7.55,1.28-2.55.41-5.07.78-7.54,1.12l-.81.11c-.22.05-.45-.09-.51-.31l-.22-.82c-.04-.16-.09-.33-.12-.52v-.02c-.04-.17-.08-.36-.11-.56-.11-.57-.15-1.2-.19-1.79-.01-.18.08-.35.25-.43l.62-.28c.74-.33,1.43-.77,2.04-1.3.61-.52,1.14-1.13,1.57-1.8l.02-.03c.43-.67.77-1.41,1-2.19.22-.75.34-1.56.34-2.39,0-1.15-.23-2.24-.64-3.23-.43-1.03-1.05-1.96-1.83-2.74-.78-.78-1.71-1.41-2.74-1.83-.99-.41-2.09-.64-3.23-.64s-2.24.23-3.23.64c-1.03.43-1.96,1.06-2.74,1.84-.78.78-1.41,1.71-1.83,2.74-.41.99-.64,2.09-.64,3.23,0,.81.11,1.6.33,2.34.22.76.53,1.47.93,2.11l.02.03c.42.67.93,1.28,1.52,1.8.58.52,1.24.97,1.96,1.32l.64.31c.17.08.28.27.25.47l-.12.71c-.05.32-.11.63-.18.93-.06.29-.13.59-.21.89v.02c-.08.3-.17.6-.25.87-.08.27-.17.53-.27.79l-.22.57c-.06.15-.19.26-.36.28l-.58.07c-2.65.3-5.3.57-7.96.82-2.72.25-5.38.47-7.98.66-2.48.18-4.97.34-7.45.47-2.34.13-4.68.23-7.01.31.42,2.21.83,4.45,1.22,6.7.42,2.4.84,4.9,1.25,7.51.45,2.8.88,5.64,1.28,8.5.4,2.79.78,5.67,1.16,8.65l.1.77c.04.21-.08.43-.3.5l-.77.24c-.21.06-.42.12-.64.17-.23.05-.44.1-.64.13-.19.03-.4.06-.63.09-.23.03-.43.05-.62.07l-.69.06c-.18.01-.35-.08-.43-.25l-.28-.62c-.33-.74-.77-1.42-1.29-2.03h0c-.53-.62-1.14-1.16-1.82-1.6-.67-.43-1.41-.77-2.19-1-.75-.22-1.56-.34-2.39-.34-1.13,0-2.22.22-3.21.63h-.02c-1.03.44-1.96,1.07-2.75,1.85-.78.78-1.41,1.71-1.84,2.74-.41.99-.64,2.09-.64,3.23s.23,2.24.64,3.23c.43,1.03,1.05,1.96,1.84,2.74.78.78,1.71,1.41,2.75,1.84.98.41,2.05.63,3.17.64h.06c.81,0,1.6-.12,2.34-.33.76-.22,1.47-.53,2.11-.93l.03-.02c.67-.42,1.28-.93,1.8-1.52.52-.58.97-1.24,1.32-1.96l.31-.64c.08-.17.27-.28.47-.25l.71.12c.34.06.68.12,1,.19h.02c.33.08.65.15.97.24.29.08.6.17.92.28.31.1.6.21.88.32l.53.22c.14.06.25.19.27.36l.06.57c.2,1.87.41,3.81.6,5.8.19,1.94.38,3.95.56,6.03.19,2.17.37,4.25.53,6.23.15,1.91.3,3.84.43,5.8h53.85c2.12,0,4.05-.87,5.44-2.26s2.26-3.33,2.26-5.44h0Z"/>
  </g>
</svg>