<?xml version="1.0" encoding="UTF-8"?>
<svg id="_Слой_1" data-name="Слой 1" xmlns="http://www.w3.org/2000/svg" viewBox="0 0 256 256">
  <defs>
    <style>
      .cls-1 {
        fill: #ed1117;
        fill-rule: evenodd;
      }

      .cls-2 {
        fill: #f2f2f2;
      }

      .cls-3 {
        fill: #fefefe;
      }
    </style>
  </defs>
  <rect class="cls-2" x="0" width="256" height="256"/>
  <g id="_Слой_1-2" data-name="Слой_1">
    <g id="_1355438288784" data-name=" 1355438288784">
      <path class="cls-1" d="M128,214.81c47.95,0,86.81-38.87,86.81-86.81s-38.87-86.81-86.81-86.81-86.81,38.87-86.81,86.81,38.87,86.81,86.81,86.81ZM126.92,180.08c27.06-.58,48.83-22.7,48.83-49.9s-22.35-49.92-49.92-49.92-49.32,21.76-49.9,48.83c0-.36-.01-.72-.01-1.08,0-28.77,23.32-52.09,52.09-52.09s52.09,23.32,52.09,52.09-23.32,52.09-52.09,52.09c-.36,0-.72,0-1.08-.01h0Z"/>
      <g>
        <path class="cls-3" d="M103.6,131.62v1.38c-3.05.26-6.77,2.25-6.77,7.24s3.31,6.8,6.73,7.06v1.43h3.35v-1.43c3.49-.33,6.77-2.3,6.77-7.17s-3.38-6.89-6.73-7.13v-1.38h-3.35ZM103.57,144.82c-1.41-.19-3.16-1.55-3.16-4.64,0-3.33,1.78-4.55,3.16-4.74v9.38ZM106.93,135.44c1.48.19,3.16,1.36,3.16,4.69s-1.78,4.52-3.16,4.69v-9.38h0ZM123.01,132.02c-4.67,0-7.69,3.54-7.69,8.27s2.74,8.04,7.43,8.04,7.76-3.14,7.76-8.32c0-4.36-2.65-7.99-7.5-7.99h0ZM122.91,134.86c2.46,0,3.82,2.44,3.82,5.27,0,3.07-1.38,5.37-3.8,5.37s-3.84-2.18-3.84-5.27,1.41-5.37,3.82-5.37ZM135.69,148.08h3.59v-12.8h4.31v-3h-12.14v3h4.24v12.8ZM151.68,132.02c-4.67,0-7.69,3.54-7.69,8.27s2.74,8.04,7.43,8.04,7.76-3.14,7.76-8.32c0-4.36-2.65-7.99-7.5-7.99h0ZM151.58,134.86c2.46,0,3.82,2.44,3.82,5.27,0,3.07-1.38,5.37-3.8,5.37s-3.84-2.18-3.84-5.27,1.41-5.37,3.82-5.37Z"/>
        <path class="cls-3" d="M97.52,123.11c.8.12,2.11.23,3.87.23,3.14,0,5.06-.52,6.21-1.43.98-.8,1.64-1.92,1.64-3.35,0-2.04-1.34-3.4-3.14-3.89v-.05c1.78-.66,2.6-1.97,2.6-3.38s-.8-2.51-1.9-3.09c-1.15-.68-2.49-.89-4.66-.89-1.78,0-3.68.14-4.62.33v15.52h0ZM101.06,109.96c.3-.05.75-.09,1.52-.09,1.62,0,2.53.63,2.53,1.83s-1.01,1.95-2.88,1.95h-1.17v-3.68h0ZM101.06,116.2h1.22c1.78,0,3.21.63,3.21,2.23s-1.43,2.27-3.05,2.27c-.61,0-1.03,0-1.38-.05v-4.45h0ZM119.82,119.13l1.22,4.06h3.85l-4.9-15.8h-4.69l-4.83,15.8h3.7l1.13-4.06h4.52,0ZM115.81,116.46l.94-3.35c.26-.91.49-2.11.73-3.05h.05c.23.94.52,2.11.8,3.05l.98,3.35h-3.49ZM126.99,107.38v15.8h18.31v-15.8h-3.49v12.87h-3.91v-12.87h-3.49v12.87h-3.89v-12.87h-3.52ZM157.79,113.6h-5.81v-3.28h6.16v-2.93h-9.75v15.8h10.08v-2.93h-6.49v-3.75h5.81v-2.91h0Z"/>
      </g>
    </g>
  </g>
</svg>