<?xml version="1.0" encoding="UTF-8"?>
<svg id="_Слой_1" data-name="Слой 1" xmlns="http://www.w3.org/2000/svg" viewBox="0 0 256 256">
  <defs>
    <style>
      .cls-1 {
        fill: #ed1117;
        fill-rule: evenodd;
      }

      .cls-2 {
        fill: #f2f2f2;
      }

      .cls-3 {
        fill: #fefefe;
      }
    </style>
  </defs>
  <rect class="cls-2" x="0" y="0" width="256" height="256"/>
  <g id="_Слой_1-2" data-name="Слой_1">
    <g id="_1355446042096" data-name=" 1355446042096">
      <path class="cls-1" d="M108.74,45.04c13.02,5.11,25.84,5.14,38.49.52-.08.13-.17.27-.25.41-4.38,7.25-9.35,15.46-18.86,15.57-8.89.08-16.32-9.11-19.38-16.5Z"/>
      <path class="cls-1" d="M219.96,102.08c-3.13,2.65-21.83,14.19-26.1,15.93-5.12-5.24-10.96-17.58-15.67-21.84l-.18,115.5c-.04,8.02-100.12,7.58-100.09-.44l-.42-115.04c-2.75,2.5-9.42,14.27-13.45,19.39-.38.49-.77.92-1.23,1.43-.1.11-.4.61-.48.46-.07-.14-.31.32-.48.46-3.35-1.59-8.55-4.56-13.55-7.66-4.99-3.1-9.77-6.33-12.28-8.45,2.37-5.7,9.05-14.17,12.62-19.82,10.42-16.48,14.13-26.44,32.49-31.33,7.48-2,17.6-5.27,25.21-6.26,2.93,8.29,11.2,19.13,21.62,19.13h.17c10.63-.13,16.13-9.22,20.55-16.53.49-.81.96-1.6,1.43-2.35,6.14.57,19.32,4.47,25.57,6.27,18.07,5.22,21.78,16.17,31.91,31.92,2.61,4.07,11.27,15.77,12.36,19.23Z"/>
      <g>
        <path class="cls-3" d="M105.06,149.39v1.3c-2.86.24-6.37,2.11-6.37,6.81s3.11,6.39,6.32,6.63v1.34h3.15v-1.34c3.28-.31,6.37-2.16,6.37-6.74s-3.17-6.48-6.32-6.7v-1.3h-3.15ZM105.04,161.8c-1.32-.18-2.97-1.45-2.97-4.36,0-3.13,1.67-4.27,2.97-4.45v8.81ZM108.19,152.98c1.39.18,2.97,1.28,2.97,4.41s-1.68,4.25-2.97,4.41v-8.81ZM123.31,149.77c-4.38,0-7.23,3.33-7.23,7.78s2.58,7.56,6.98,7.56,7.29-2.95,7.29-7.82c0-4.1-2.49-7.51-7.05-7.51h0ZM123.22,152.43c2.31,0,3.59,2.29,3.59,4.96,0,2.89-1.3,5.05-3.57,5.05s-3.61-2.05-3.61-4.96,1.32-5.05,3.59-5.05ZM135.22,164.86h3.37v-12.03h4.05v-2.82h-11.41v2.82h3.99v12.03ZM150.25,149.77c-4.38,0-7.23,3.33-7.23,7.78s2.58,7.56,6.98,7.56,7.29-2.95,7.29-7.82c0-4.1-2.49-7.51-7.05-7.51h0ZM150.16,152.43c2.31,0,3.59,2.29,3.59,4.96,0,2.89-1.3,5.05-3.57,5.05s-3.61-2.05-3.61-4.96,1.32-5.05,3.59-5.05Z"/>
        <path class="cls-3" d="M99.36,141.4c.75.11,1.98.22,3.64.22,2.95,0,4.76-.48,5.84-1.34.93-.75,1.54-1.81,1.54-3.15,0-1.92-1.26-3.2-2.95-3.66v-.04c1.67-.62,2.45-1.85,2.45-3.17s-.75-2.36-1.78-2.91c-1.08-.64-2.33-.84-4.38-.84-1.68,0-3.46.13-4.34.31v14.59h0ZM102.68,129.04c.29-.04.7-.09,1.43-.09,1.52,0,2.38.6,2.38,1.72s-.95,1.83-2.71,1.83h-1.1v-3.46h0ZM102.68,134.9h1.15c1.67,0,3.02.6,3.02,2.09s-1.34,2.14-2.86,2.14c-.57,0-.97,0-1.3-.04,0,0,0-4.19,0-4.19ZM120.31,137.65l1.15,3.81h3.61l-4.61-14.85h-4.41l-4.54,14.85h3.48l1.06-3.81h4.25ZM116.54,135.14l.88-3.15c.24-.86.46-1.98.68-2.86h.04c.22.88.49,1.98.75,2.86l.93,3.15h-3.28ZM127.05,126.61v14.85h17.21v-14.85h-3.28v12.1h-3.68v-12.1h-3.28v12.1h-3.66v-12.1h-3.31,0ZM156,132.45h-5.46v-3.08h5.79v-2.75h-9.17v14.85h9.47v-2.75h-6.1v-3.53h5.46v-2.73h0Z"/>
        <path class="cls-3" d="M97.11,106.15c.84-.42,2.11-.88,3.26-.88,1.43,0,2.25.66,2.25,1.63,0,1.17-1.15,1.87-2.67,1.87h-1.39v2.47h1.41c1.39,0,3.11.33,3.11,1.98,0,1.23-1.04,1.94-2.73,1.94-1.39,0-2.93-.53-3.59-.9l-.7,2.6c1.23.7,2.91,1.04,4.45,1.04,2.78,0,6.12-1.15,6.12-4.45,0-2.01-1.63-3.28-3.48-3.52v-.04c1.72-.42,2.97-1.65,2.97-3.5,0-2.18-1.92-3.81-5.18-3.81-2.05,0-3.59.57-4.63,1.19l.79,2.4h0ZM110.92,102.8v3.97c0,1.81-.18,3.44-.6,4.93-.33,1.17-.81,2.25-1.41,3.31l-1.23.09.13,6.32h2.56l.18-3.77h8.69l.18,3.77h2.56l.15-6.32-1.48-.09v-12.21h-9.72ZM114.03,105.54h3.24v9.39h-4.94c.4-.7.77-1.61,1.04-2.53.44-1.48.66-3.15.66-4.87v-1.98h0ZM132.85,108.64h-5.46v-3.08h5.79v-2.75h-9.17v14.85h9.47v-2.75h-6.1v-3.53h5.46v-2.73h0ZM146.17,114.61c-.66.26-1.78.48-2.8.48-3,0-4.76-1.87-4.76-4.85,0-3.31,2.07-4.91,4.74-4.91,1.19,0,2.14.26,2.82.55l.68-2.67c-.6-.31-1.92-.66-3.66-.66-4.49,0-8.11,2.82-8.11,7.89,0,4.23,2.64,7.45,7.78,7.45,1.81,0,3.2-.35,3.81-.66l-.51-2.62ZM148.88,102.8v14.78c.75.11,1.98.22,3.64.22,2.31,0,4.8-.44,6.23-1.89.73-.77,1.19-1.83,1.19-3.24,0-3.31-2.71-4.82-5.91-4.82-.64,0-1.34.04-1.81.11v-5.16h-3.35ZM152.21,110.52c.42-.04.81-.09,1.3-.09,1.61,0,2.91.7,2.91,2.4s-1.32,2.47-2.95,2.47c-.48,0-.88-.02-1.26-.09,0,0,0-4.69,0-4.69Z"/>
      </g>
    </g>
  </g>
</svg>