<?xml version="1.0" encoding="UTF-8"?>
<svg id="_Слой_1" data-name="Слой 1" xmlns="http://www.w3.org/2000/svg" viewBox="0 0 256 256">
  <defs>
    <style>
      .cls-1 {
        fill: #fff;
      }

      .cls-2 {
        fill: #f2f2f2;
      }

      .cls-3 {
        fill: #ed1117;
      }
    </style>
  </defs>
  <rect class="cls-2" x="0" y="0" width="256" height="256"/>
  <g>
    <path class="cls-3" d="M193.2,95.39c-3.33-7.87-8.09-14.94-14.16-21.01-4.77-4.77-10.18-8.73-16.09-11.82,7.4,11.18,11.46,25.63,11.46,40.93v44.25c5.45,1.31,10.86,2.44,16.8,3.01.33.03.67.03.99,0,1.33-.3,2.58-.94,3.6-1.87,1.64-1.5,2.59-3.64,2.59-5.86v-21.92c0-8.92-1.75-17.57-5.19-25.72Z"/>
    <path class="cls-3" d="M63.87,150.78c.27.02.62.01.94-.02,1.5-.15,2.79-.3,3.98-.47.11-.01.45-.07.8-.12.37-.06.74-.11.84-.12,3.85-.61,7.52-1.41,11.23-2.3v-44.25c0-15.31,4.07-29.78,11.48-40.96-5.93,3.1-11.35,7.06-16.14,11.85-6.07,6.07-10.83,13.14-14.16,21.01-3.44,8.15-5.19,16.8-5.19,25.72v21.92c0,2.22.94,4.36,2.59,5.86,1.04.95,2.3,1.59,3.64,1.89,0,0,0,0,0,0Z"/>
    <path class="cls-3" d="M120,54.14c-.21-.43-.32-.92-.32-1.43v-.57c0-1.86,1.52-3.38,3.38-3.38h9.9c1.87,0,3.38,1.52,3.38,3.38v.57c0,.53-.12,1.03-.33,1.47-3.34-.11-10.74-.31-16.01-.04Z"/>
    <path class="cls-3" d="M171.99,103.49v43.67c-.88-.22-1.77-.44-2.67-.66l-.15-.04c-11.48-2.87-23.35-5.84-41.12-5.84s-29.66,2.97-41.16,5.84c-.95.24-1.89.47-2.83.7v-43.67c0-15.46,4.25-30.01,11.98-40.97.51-.72,1.05-1.44,1.59-2.13.13-.06.25-.12.37-.17,6.49-2.74,13.31-4.41,20.32-4.97.58-.05,1.2-.09,1.86-.12,6.42-.32,15.94.06,17.36.11.11.01.17.01.18.01,7.01.56,13.82,2.23,20.31,4.97.14.06.27.13.41.19.52.66,1.03,1.35,1.58,2.11,7.72,10.96,11.97,25.51,11.97,40.97Z"/>
    <path class="cls-3" d="M195.02,183.04v-1.06c0-14.88-1.36-24.15-2.32-28.84-.61.06-1.16.06-1.71,0-7.97-.76-14.91-2.49-22.25-4.32l-.15-.04c-11.34-2.83-23.07-5.77-40.54-5.77s-29.22,2.93-40.58,5.77c-5.62,1.4-10.93,2.72-16.71,3.63-.13.02-.48.07-.83.12-.36.05-.73.11-.83.12-1.2.17-2.54.33-4.06.48-.28.03-.57.04-.86.04s-.55-.01-.82-.04h-.05c-.44,2.11-.95,5.11-1.38,9.11-.67,6.17-.98,13.13-.94,20.78v.02c-.02,2.88.02,5.94.12,9.09.09,3.02,1.34,5.84,3.51,7.95,2.17,2.11,5.03,3.27,8.05,3.27h.11c2.4,0,4.71-.74,6.7-2.14,2.83-1.99,7.84-4.88,15.62-7.31,9.48-2.97,20.55-4.47,32.89-4.47s23.42,1.5,32.9,4.47c7.78,2.43,12.79,5.32,15.62,7.31,1.97,1.4,4.29,2.14,6.7,2.14h.11c3.02,0,5.88-1.16,8.05-3.27,2.17-2.1,3.41-4.93,3.51-7.95.1-3.15.14-6.21.12-9.09v-.02Z"/>
    <g>
      <path class="cls-1" d="M102.49,90.96c.79-.16,2.4-.28,3.91-.28,1.84,0,2.97.18,3.95.75.93.5,1.61,1.41,1.61,2.62s-.69,2.3-2.2,2.86v.04c1.53.42,2.66,1.57,2.66,3.29,0,1.21-.55,2.16-1.39,2.84-.97.77-2.6,1.21-5.26,1.21-1.49,0-2.6-.1-3.27-.2v-13.13ZM105.48,96.07h.99c1.59,0,2.44-.65,2.44-1.65s-.77-1.55-2.14-1.55c-.65,0-1.03.04-1.29.08v3.11ZM105.48,102c.3.04.65.04,1.17.04,1.37,0,2.58-.54,2.58-1.92s-1.21-1.88-2.72-1.88h-1.03v3.77Z"/>
      <path class="cls-1" d="M117.52,100.71l-.95,3.43h-3.13l4.09-13.37h3.97l4.14,13.37h-3.25l-1.03-3.43h-3.83ZM120.91,98.45l-.83-2.84c-.24-.79-.48-1.78-.67-2.58h-.04c-.2.79-.4,1.8-.61,2.58l-.79,2.84h2.95Z"/>
      <path class="cls-1" d="M130.39,90.78v10.89h3.29v-10.89h2.96v10.89h3.31v-10.89h2.95v13.37h-15.49v-13.37h2.97Z"/>
      <path class="cls-1" d="M153.47,98.49h-4.92v3.17h5.49v2.48h-8.53v-13.37h8.25v2.48h-5.22v2.78h4.92v2.46Z"/>
      <path class="cls-1" d="M114.96,111.96v13.37h-3.01v-10.89h-3.03v3.17c0,3.43-.44,6.09-2.46,7.28-.67.38-1.59.65-2.66.65l-.38-2.44c.65-.08,1.19-.38,1.53-.71.81-.85,1.01-2.56,1.01-4.58v-5.85h9Z"/>
      <path class="cls-1" d="M129.83,118.5c0,4.38-2.66,7.04-6.56,7.04s-6.29-2.99-6.29-6.8c0-4.01,2.56-7,6.5-7s6.35,3.07,6.35,6.76ZM120.17,118.68c0,2.62,1.23,4.46,3.25,4.46s3.21-1.94,3.21-4.54c0-2.4-1.15-4.46-3.23-4.46s-3.23,1.94-3.23,4.54Z"/>
      <path class="cls-1" d="M139.9,111.96v2.48h-5.06v10.89h-3.03v-13.37h8.09Z"/>
      <path class="cls-1" d="M153.09,118.5c0,4.38-2.66,7.04-6.56,7.04s-6.29-2.99-6.29-6.8c0-4.01,2.56-7,6.5-7s6.35,3.07,6.35,6.76ZM143.43,118.68c0,2.62,1.23,4.46,3.25,4.46s3.21-1.94,3.21-4.54c0-2.4-1.15-4.46-3.23-4.46s-3.23,1.94-3.23,4.54Z"/>
    </g>
  </g>
</svg>