<?xml version="1.0" encoding="UTF-8"?>
<svg id="_Слой_1" data-name="Слой 1" xmlns="http://www.w3.org/2000/svg" viewBox="0 0 256 256">
  <defs>
    <style>
      .cls-1 {
        fill: #ed1117;
        fill-rule: evenodd;
      }

      .cls-2 {
        fill: #f2f2f2;
      }

      .cls-3 {
        fill: #fefefe;
      }
    </style>
  </defs>
  <rect class="cls-2" x="0" width="256" height="256"/>
  <g id="_Слой_1-2" data-name="Слой_1">
    <g id="_1355724964160" data-name=" 1355724964160">
      <path class="cls-1" d="M43.76,69.31h144.82c3.7,0,6.72,2.72,6.72,6.04v47.2c-1.34-.57-2.7-1.06-4.06-1.47-3.85-1.15-7.76-1.62-11.55-1.33-3.67.28-7.23,1.27-10.52,3.05-3.1,1.68-5.96,4.05-8.45,7.19l-1.34,1.69c-2.48,3.13-4.14,6.46-5.05,9.86-.97,3.6-1.12,7.29-.55,10.93.59,3.76,1.94,7.46,3.94,10.94,2.02,3.51,4.7,6.82,7.93,9.77l22.63,20.69c.21.19.45.4.7.62.25.21.5.42.75.61.18.14.36.28.54.42-.54.13-1.11.2-1.7.2H43.76c-3.7,0-6.72-2.72-6.72-6.04v-114.33c0-3.32,3.03-6.04,6.72-6.04h0ZM231.35,185.9l-1.34,1.69c-9.79,12.36-28.64,15.32-40.28,4.68l-13.05-11.93c-.56-8,1.73-16.22,7.07-22.96l7.58-9.58c5.34-6.74,12.82-10.86,20.73-12.15l14.6,9.96c13.02,8.89,14.47,27.91,4.68,40.28h0ZM174.44,178.29l-7.33-6.7c-11.64-10.63-15.81-26.21-6.03-38.57l8.17,6.47-.2.25c-1.04,1.32-.82,3.25.5,4.29l5.4,4.28c1.32,1.04,3.25.82,4.29-.5l.2-.25,5.74,4.55-3.12,3.94c-5.2,6.57-7.69,14.44-7.62,22.25h0ZM162.42,131.32c9.79-12.36,25.9-11.87,38.93-2.98l8.21,5.6c-7.62,1.73-14.72,5.96-19.91,12.52l-3.12,3.94-5.74-4.55.2-.25c1.04-1.32.82-3.25-.5-4.29l-5.4-4.28c-1.32-1.04-3.25-.82-4.29.5l-.2.25-8.17-6.47h0Z"/>
      <g>
        <path class="cls-3" d="M73.9,150.53v1.52c-3.36.28-7.46,2.48-7.46,7.98s3.64,7.49,7.41,7.77v1.57h3.69v-1.57c3.85-.36,7.46-2.53,7.46-7.9s-3.72-7.59-7.41-7.85v-1.52s-3.69,0-3.69,0ZM73.87,165.06c-1.55-.21-3.49-1.7-3.49-5.11,0-3.67,1.96-5.01,3.49-5.22v10.33ZM77.57,154.74c1.63.21,3.49,1.5,3.49,5.16s-1.96,4.98-3.49,5.16v-10.33ZM95.28,150.97c-5.14,0-8.47,3.9-8.47,9.11s3.02,8.86,8.18,8.86,8.55-3.46,8.55-9.16c0-4.8-2.92-8.8-8.26-8.8h0ZM95.17,154.09c2.71,0,4.21,2.68,4.21,5.81,0,3.38-1.52,5.91-4.18,5.91s-4.23-2.4-4.23-5.81,1.55-5.91,4.21-5.91h0ZM109.25,168.65h3.95v-14.1h4.75v-3.3h-13.37v3.3h4.67v14.1ZM126.85,150.97c-5.14,0-8.47,3.9-8.47,9.11s3.02,8.86,8.18,8.86,8.55-3.46,8.55-9.16c0-4.8-2.92-8.8-8.26-8.8h0ZM126.75,154.09c2.71,0,4.21,2.68,4.21,5.81,0,3.38-1.52,5.91-4.18,5.91s-4.23-2.4-4.23-5.81,1.55-5.91,4.21-5.91h0Z"/>
        <path class="cls-3" d="M67.21,141.16c.88.13,2.32.26,4.26.26,3.46,0,5.58-.57,6.84-1.57,1.08-.88,1.81-2.12,1.81-3.69,0-2.25-1.47-3.74-3.46-4.29v-.05c1.96-.72,2.87-2.17,2.87-3.72s-.88-2.76-2.09-3.41c-1.27-.75-2.74-.98-5.14-.98-1.96,0-4.05.15-5.09.36,0,0,0,17.09,0,17.09ZM71.11,126.67c.34-.05.83-.1,1.68-.1,1.78,0,2.79.7,2.79,2.01s-1.11,2.14-3.18,2.14h-1.29s0-4.05,0-4.05ZM71.11,133.54h1.34c1.96,0,3.54.7,3.54,2.45s-1.57,2.5-3.36,2.5c-.67,0-1.14,0-1.52-.05v-4.91h0ZM91.77,136.77l1.34,4.47h4.23l-5.4-17.4h-5.16l-5.32,17.4h4.08l1.24-4.47h4.98,0ZM87.35,133.83l1.03-3.69c.28-1.01.54-2.32.8-3.36h.05c.26,1.03.57,2.32.88,3.36l1.08,3.69h-3.85ZM99.67,123.83v17.4h20.16v-17.4h-3.85v14.17h-4.31v-14.17h-3.85v14.17h-4.29v-14.17h-3.87ZM133.59,130.68h-6.4v-3.61h6.79v-3.23h-10.74v17.4h11.1v-3.23h-7.15v-4.13h6.4v-3.2h0Z"/>
        <path class="cls-3" d="M64.58,99.86c.98-.49,2.48-1.03,3.82-1.03,1.68,0,2.63.77,2.63,1.91,0,1.37-1.34,2.19-3.12,2.19h-1.63v2.89h1.65c1.63,0,3.64.39,3.64,2.32,0,1.45-1.21,2.27-3.2,2.27-1.63,0-3.43-.62-4.21-1.06l-.83,3.05c1.45.83,3.41,1.21,5.22,1.21,3.25,0,7.18-1.34,7.18-5.22,0-2.35-1.91-3.85-4.08-4.13v-.05c2.01-.49,3.49-1.94,3.49-4.11,0-2.56-2.25-4.47-6.07-4.47-2.4,0-4.21.67-5.42,1.39l.93,2.81h0ZM80.77,95.94v4.65c0,2.12-.21,4.03-.7,5.78-.39,1.37-.96,2.63-1.65,3.87l-1.45.1.15,7.41h3l.21-4.41h10.18l.21,4.41h3l.18-7.41-1.74-.1v-14.3h-11.39ZM84.41,99.14h3.8v11h-5.78c.46-.83.9-1.88,1.21-2.97.52-1.73.77-3.69.77-5.71v-2.32h0ZM106.46,102.78h-6.4v-3.61h6.79v-3.23h-10.74v17.4h11.1v-3.23h-7.15v-4.13h6.4v-3.2h0ZM122.08,109.77c-.77.31-2.09.57-3.28.57-3.51,0-5.58-2.19-5.58-5.68,0-3.87,2.43-5.76,5.55-5.76,1.39,0,2.5.31,3.3.65l.8-3.12c-.7-.36-2.25-.77-4.29-.77-5.27,0-9.5,3.3-9.5,9.24,0,4.96,3.1,8.73,9.11,8.73,2.12,0,3.74-.41,4.47-.77l-.59-3.07h0ZM125.25,95.94v17.32c.88.13,2.32.26,4.26.26,2.71,0,5.63-.52,7.31-2.22.85-.9,1.39-2.14,1.39-3.8,0-3.87-3.18-5.65-6.92-5.65-.75,0-1.57.05-2.12.13v-6.04h-3.92ZM129.15,104.97c.49-.05.96-.1,1.52-.1,1.89,0,3.41.83,3.41,2.81s-1.55,2.89-3.46,2.89c-.57,0-1.03-.03-1.47-.1v-5.5Z"/>
      </g>
    </g>
  </g>
</svg>