<?xml version="1.0" encoding="UTF-8"?>
<svg id="_Слой_1" data-name="Слой 1" xmlns="http://www.w3.org/2000/svg" viewBox="0 0 256 256">
  <defs>
    <style>
      .cls-1 {
        fill: #fff;
      }

      .cls-2 {
        fill: #f2f2f2;
      }

      .cls-3 {
        fill: #ed1117;
      }
    </style>
  </defs>
  <rect class="cls-2" x="0" width="256" height="256"/>
  <g>
    <rect class="cls-3" x="107.2" y="80.16" width="57.21" height="57.21"/>
    <rect class="cls-3" x="107.2" y="140.12" width="57.21" height="57.22"/>
    <rect class="cls-3" x="47.4" y="80.16" width="57.06" height="57.21"/>
    <polygon class="cls-3" points="167.15 136.46 201.38 116.43 201.38 59.55 167.15 79.58 167.15 136.46"/>
    <polygon class="cls-3" points="105.46 77.43 137.89 58.45 94.6 58.45 52.53 77.43 105.46 77.43"/>
    <polygon class="cls-3" points="167.15 139.64 167.15 195.42 201.38 165.22 201.38 119.61 167.15 139.64"/>
    <rect class="cls-3" x="47.4" y="140.12" width="57.06" height="57.22"/>
    <polygon class="cls-3" points="143.31 58.45 110.88 77.43 165.41 77.43 197.84 58.45 143.31 58.45"/>
    <path class="cls-1" d="M74.73,103.44h-.06l-3.6,1.71-.73-3.31,4.99-2.32h3.66v18.85h-4.26v-14.94Z"/>
    <path class="cls-1" d="M130.02,118.38v-2.67l2.44-2.2c4.12-3.68,6.12-5.8,6.18-8.01,0-1.54-.93-2.76-3.1-2.76-1.62,0-3.04.81-4.03,1.57l-1.25-3.16c1.42-1.07,3.63-1.94,6.18-1.94,4.26,0,6.61,2.5,6.61,5.92,0,3.16-2.29,5.68-5.02,8.12l-1.74,1.45v.06h7.11v3.63h-13.37Z"/>
    <path class="cls-1" d="M69.89,172.58c.78.41,2.58,1.16,4.38,1.16,2.29,0,3.45-1.1,3.45-2.52,0-1.86-1.86-2.7-3.8-2.7h-1.8v-3.16h1.71c1.48-.03,3.36-.58,3.36-2.18,0-1.13-.93-1.97-2.78-1.97-1.54,0-3.16.67-3.94,1.13l-.9-3.19c1.13-.73,3.39-1.42,5.83-1.42,4.03,0,6.27,2.12,6.27,4.7,0,2-1.13,3.57-3.45,4.38v.06c2.26.41,4.09,2.12,4.09,4.58,0,3.34-2.93,5.77-7.72,5.77-2.44,0-4.5-.64-5.6-1.33l.9-3.31Z"/>
    <path class="cls-1" d="M137.82,176.91v-4.5h-8.35v-2.87l7.14-11.49h5.4v11.05h2.26v3.31h-2.26v4.5h-4.18ZM137.82,169.1v-4.18c0-1.13.06-2.29.15-3.51h-.12c-.61,1.22-1.1,2.32-1.74,3.51l-2.52,4.12v.06h4.23Z"/>
  </g>
</svg>