<?xml version="1.0" encoding="UTF-8"?>
<svg id="_Слой_1" data-name="Слой 1" xmlns="http://www.w3.org/2000/svg" viewBox="0 0 256 256">
  <defs>
    <style>
      .cls-1 {
        fill: #ed1117;
        fill-rule: evenodd;
      }

      .cls-2 {
        fill: #f2f2f2;
      }

      .cls-3 {
        fill: #fefefe;
      }
    </style>
  </defs>
  <rect class="cls-2" x="0" width="256" height="256"/>
  <g id="_Слой_1-2" data-name="Слой_1">
    <g id="_1355730067056" data-name=" 1355730067056">
      <path class="cls-1" d="M89.29,42.9h77.41c6.12,0,11.13,5.01,11.13,11.13v147.94c0,6.12-5.01,11.13-11.13,11.13h-77.41c-6.12,0-11.13-5.01-11.13-11.13V54.03c0-6.12,5.01-11.13,11.13-11.13ZM90.76,49.28h16.79c2.31,0,4.2,1.89,4.2,4.2v4.06c0,2.31-1.89,4.2-4.2,4.2h-16.79c-2.31,0-4.2-1.89-4.2-4.2v-4.06c0-2.31,1.89-4.2,4.2-4.2Z"/>
      <g>
        <path class="cls-3" d="M103.5,144.42v1.39c-3.06.26-6.8,2.26-6.8,7.27s3.32,6.82,6.75,7.08v1.44h3.36v-1.44c3.5-.33,6.8-2.3,6.8-7.2s-3.39-6.92-6.75-7.15v-1.39h-3.36ZM103.48,157.67c-1.41-.19-3.18-1.55-3.18-4.66,0-3.34,1.79-4.56,3.18-4.75v9.41ZM106.84,148.26c1.48.19,3.18,1.36,3.18,4.7s-1.79,4.54-3.18,4.71v-9.41ZM122.99,144.82c-4.68,0-7.72,3.55-7.72,8.31s2.75,8.07,7.46,8.07,7.79-3.16,7.79-8.35c0-4.38-2.66-8.02-7.53-8.02h0ZM122.89,147.67c2.47,0,3.84,2.45,3.84,5.29,0,3.08-1.39,5.39-3.81,5.39s-3.86-2.19-3.86-5.3,1.41-5.39,3.84-5.39h0ZM135.72,160.94h3.6v-12.85h4.33v-3.01h-12.19v3.01h4.26v12.85ZM151.77,144.82c-4.68,0-7.72,3.55-7.72,8.31s2.75,8.07,7.46,8.07,7.79-3.16,7.79-8.35c0-4.38-2.66-8.02-7.53-8.02h0ZM151.67,147.67c2.47,0,3.84,2.45,3.84,5.29,0,3.08-1.39,5.39-3.81,5.39s-3.86-2.19-3.86-5.3,1.41-5.39,3.84-5.39h0Z"/>
        <path class="cls-3" d="M97.41,135.88c.8.12,2.12.24,3.88.24,3.16,0,5.08-.52,6.23-1.44.99-.8,1.65-1.93,1.65-3.36,0-2.05-1.34-3.41-3.16-3.91v-.05c1.79-.66,2.61-1.98,2.61-3.39s-.8-2.52-1.91-3.11c-1.15-.68-2.49-.9-4.68-.9-1.79,0-3.69.14-4.64.33v15.58h0ZM100.96,122.68c.31-.05.75-.09,1.53-.09,1.62,0,2.54.63,2.54,1.83s-1.01,1.95-2.89,1.95h-1.18v-3.69h0ZM100.96,128.94h1.22c1.79,0,3.22.63,3.22,2.24s-1.44,2.28-3.06,2.28c-.61,0-1.04,0-1.39-.05v-4.47h0ZM119.79,131.88l1.22,4.07h3.86l-4.92-15.86h-4.7l-4.85,15.86h3.72l1.13-4.07h4.54,0ZM115.76,129.2l.94-3.36c.26-.92.49-2.12.73-3.06h.05c.24.94.52,2.12.8,3.06l.99,3.36h-3.51,0ZM126.99,120.09v15.86h18.38v-15.86h-3.5v12.92h-3.93v-12.92h-3.51v12.92h-3.91v-12.92h-3.53,0ZM157.91,126.33h-5.84v-3.3h6.19v-2.94h-9.79v15.86h10.12v-2.94h-6.52v-3.77h5.84v-2.92h0Z"/>
        <path class="cls-3" d="M95.01,98.24c.89-.45,2.26-.94,3.48-.94,1.53,0,2.4.71,2.4,1.74,0,1.25-1.22,2-2.85,2h-1.48v2.64h1.51c1.48,0,3.32.35,3.32,2.12,0,1.32-1.11,2.07-2.92,2.07-1.48,0-3.13-.57-3.84-.96l-.75,2.78c1.32.75,3.11,1.11,4.75,1.11,2.97,0,6.54-1.22,6.54-4.75,0-2.14-1.74-3.51-3.72-3.77v-.05c1.83-.45,3.18-1.77,3.18-3.74,0-2.33-2.05-4.07-5.53-4.07-2.19,0-3.84.61-4.94,1.27l.85,2.56h0ZM109.76,94.66v4.24c0,1.93-.19,3.67-.63,5.27-.35,1.25-.87,2.4-1.51,3.53l-1.32.09.14,6.75h2.73l.19-4.02h9.28l.19,4.02h2.73l.16-6.75-1.59-.09v-13.04s-10.38,0-10.38,0ZM113.08,97.58h3.46v10.02h-5.27c.42-.75.82-1.72,1.11-2.71.47-1.58.71-3.36.71-5.2v-2.12h0ZM133.18,100.9h-5.84v-3.3h6.19v-2.94h-9.79v15.86h10.12v-2.94h-6.52v-3.77h5.84v-2.92h0ZM147.41,107.28c-.71.28-1.91.52-2.99.52-3.2,0-5.08-2-5.08-5.18,0-3.53,2.21-5.25,5.06-5.25,1.27,0,2.28.28,3.01.59l.73-2.85c-.63-.33-2.05-.71-3.91-.71-4.8,0-8.66,3.01-8.66,8.43,0,4.52,2.82,7.95,8.31,7.95,1.93,0,3.41-.38,4.07-.71l-.54-2.8h0ZM150.31,94.66v15.79c.8.12,2.12.24,3.88.24,2.47,0,5.13-.47,6.66-2.02.78-.82,1.27-1.95,1.27-3.46,0-3.53-2.89-5.15-6.31-5.15-.68,0-1.44.05-1.93.12v-5.51h-3.58ZM153.86,102.9c.45-.05.87-.09,1.39-.09,1.72,0,3.11.75,3.11,2.56s-1.41,2.64-3.15,2.64c-.52,0-.94-.02-1.34-.09v-5.01h0Z"/>
      </g>
    </g>
  </g>
</svg>