<?xml version="1.0" encoding="UTF-8"?>
<svg id="_Слой_1" data-name="Слой 1" xmlns="http://www.w3.org/2000/svg" viewBox="0 0 256 256">
  <defs>
    <style>
      .cls-1 {
        fill: #ed1117;
        fill-rule: evenodd;
      }

      .cls-2 {
        fill: #f2f2f2;
      }

      .cls-3 {
        fill: #fefefe;
      }
    </style>
  </defs>
  <rect class="cls-2" x="0" y="0" width="256" height="256"/>
  <g id="_Слой_1-2" data-name="Слой_1">
    <g id="_1355717282896" data-name=" 1355717282896">
      <path class="cls-1" d="M113.86,54.65c-30.45,0-55.14,2.79-55.14,6.24v.28c1.67,1.32,3.91,1.66,6.25,2.01,5.3.8,10.87,1.42,16.57,1.87,9.79.77,20.36,1.14,32.33,1.14s21.88-.35,31.47-1.07c1.1-.09,2.24-.16,3.42-.23,6.84-.43,14.55-.9,20.23-4.15h0c-.75-3.39-25.15-6.09-55.13-6.09ZM183.64,87.65l-14.63-1.86v-22.13c-5.94,3-13.43,3.47-20.13,3.88-1.16.07-2.29.15-3.38.23-9.64.72-19.99,1.08-31.63,1.08s-22.65-.38-32.5-1.15c-5.74-.45-11.36-1.08-16.68-1.88-1.98-.3-4.11-.62-5.97-1.61v126.59c0,3.45,24.69,12.12,55.14,12.12s55.15-8.67,55.15-12.12v-21.8l14.63-1.86c39.37-5,39.55-74.46,0-79.49ZM177,149.5h-7.99v-44.21h7.99c21.96,0,22.73,44.21,0,44.21Z"/>
      <g>
        <path class="cls-3" d="M94.28,149.6v-1.33h-3.24v1.33c-2.94.25-6.55,2.18-6.55,7.01s3.2,6.57,6.51,6.82v1.39h3.24v-1.39c3.38-.31,6.55-2.22,6.55-6.93s-3.26-6.67-6.51-6.9ZM91.02,161.03c-1.36-.18-3.06-1.5-3.06-4.49,0-3.22,1.72-4.4,3.06-4.58v9.07ZM94.26,161.03v-9.07c1.43.18,3.06,1.32,3.06,4.54s-1.72,4.37-3.06,4.53ZM109.82,148.65c-4.52,0-7.44,3.43-7.44,8.01s2.65,7.77,7.19,7.77,7.5-3.03,7.5-8.05c0-4.21-2.56-7.73-7.25-7.73ZM109.75,161.69c-2.31,0-3.72-2.11-3.72-5.1s1.36-5.19,3.7-5.19,3.69,2.35,3.69,5.1c0,2.97-1.34,5.19-3.67,5.19ZM117.98,148.9v2.9h4.1v12.38h3.47v-12.38h4.17v-2.9h-11.74ZM137.55,148.65c-4.52,0-7.44,3.43-7.44,8.01s2.65,7.77,7.19,7.77,7.5-3.03,7.5-8.05c0-4.21-2.56-7.73-7.25-7.73ZM137.48,161.69c-2.31,0-3.72-2.11-3.72-5.1s1.36-5.19,3.7-5.19,3.69,2.35,3.69,5.1c0,2.97-1.34,5.19-3.67,5.19Z"/>
        <path class="cls-3" d="M93.47,131.88v-.05c1.72-.63,2.52-1.9,2.52-3.26s-.77-2.42-1.84-2.99c-1.11-.66-2.4-.86-4.51-.86-1.72,0-3.56.13-4.47.31v15.01c.77.12,2.04.23,3.74.23,3.04,0,4.9-.5,6.01-1.39.95-.77,1.59-1.85,1.59-3.24,0-1.97-1.3-3.28-3.04-3.76ZM88.6,127.32c.29-.04.72-.09,1.47-.09,1.56,0,2.45.61,2.45,1.77s-.98,1.88-2.79,1.88h-1.13v-3.56ZM89.93,137.7c-.58,0-.99,0-1.33-.04v-4.31h1.17c1.73,0,3.11.62,3.11,2.16s-1.38,2.19-2.95,2.19ZM106.89,124.83h-4.53l-4.67,15.28h3.58l1.09-3.92h4.37l1.18,3.92h3.72l-4.74-15.28ZM102.86,133.6l.9-3.24c.25-.88.48-2.04.71-2.95h.04c.23.91.5,2.04.77,2.95l.95,3.24h-3.37ZM128,124.83v12.44h-3.79v-12.44h-3.38v12.44h-3.76v-12.44h-3.4v15.28h17.71v-15.28h-3.38ZM137.84,137.27v-3.62h5.62v-2.81h-5.62v-3.18h5.96v-2.83h-9.43v15.28h9.75v-2.84h-6.28Z"/>
        <path class="cls-3" d="M89.07,107.65v-.05c1.77-.43,3.06-1.7,3.06-3.6,0-2.25-1.97-3.92-5.33-3.92-2.1,0-3.69.58-4.76,1.22l.82,2.47c.86-.43,2.18-.91,3.36-.91,1.47,0,2.31.69,2.31,1.68,0,1.2-1.18,1.93-2.74,1.93h-1.43v2.54h1.45c1.43,0,3.19.34,3.19,2.04,0,1.27-1.06,1.99-2.81,1.99-1.42,0-3.01-.54-3.69-.93l-.73,2.68c1.27.73,3,1.07,4.58,1.07,2.86,0,6.31-1.18,6.31-4.58,0-2.07-1.68-3.38-3.59-3.63ZM107.07,112.89v-12.56h-9.99v4.08c0,1.86-.19,3.53-.62,5.08-.34,1.2-.84,2.31-1.45,3.4l-1.27.09.14,6.5h2.63l.18-3.87h8.94l.18,3.87h2.63l.16-6.5-1.53-.09ZM103.6,112.79h-5.07c.4-.72.79-1.65,1.06-2.6.46-1.52.68-3.24.68-5.01v-2.04h3.33v9.65ZM114.01,112.77v-3.63h5.62v-2.81h-5.62v-3.17h5.96v-2.83h-9.43v15.28h9.75v-2.84h-6.28ZM133.35,112.48c-.68.27-1.83.5-2.88.5-3.08,0-4.89-1.93-4.89-4.99,0-3.4,2.13-5.06,4.87-5.06,1.23,0,2.2.27,2.9.57l.71-2.75c-.62-.31-1.98-.68-3.77-.68-4.62,0-8.34,2.9-8.34,8.12,0,4.35,2.72,7.66,8.01,7.66,1.85,0,3.28-.36,3.92-.68l-.52-2.7h-.01ZM141.44,105.52c-.65,0-1.38.04-1.86.11v-5.3h-3.44v15.21c.77.11,2.04.23,3.74.23,2.38,0,4.94-.46,6.42-1.96.74-.79,1.22-1.88,1.22-3.33,0-3.4-2.79-4.96-6.08-4.96ZM140.86,113.18c-.5,0-.91-.02-1.3-.09v-4.83c.44-.04.84-.09,1.34-.09,1.66,0,3,.73,3,2.47s-1.37,2.54-3.04,2.54Z"/>
      </g>
    </g>
  </g>
</svg>