<?xml version="1.0" encoding="UTF-8"?>
<svg id="_Слой_1" data-name="Слой 1" xmlns="http://www.w3.org/2000/svg" viewBox="0 0 256 256">
  <defs>
    <style>
      .cls-1 {
        fill: #f2f2f2;
      }

      .cls-2 {
        fill: #ed1117;
      }

      .cls-3 {
        fill: #fefefe;
      }
    </style>
  </defs>
  <rect class="cls-1" x="0" width="256" height="256"/>
  <g>
    <path class="cls-2" d="M187.97,53.54c-3.04-3.09-6.64-4.28-10.92-4.54-3.32-.2-6.68-.19-9.99-.09-4.82.14-9.75.48-14.55,1.3-4.48.77-8.99,1.97-12.7,4.72,0,0-.49.36-.49.37l.76,13.44c15.1-3.43,31.47-4.34,48.7-2.73l-.7-12.36s-.12-.12-.12-.12Z"/>
    <path class="cls-2" d="M151.98,48.32l.12-.02c4.97-6.35,12.31-13.79,20.29-15.17,6.37-1.1,10.96-.41,12.61,1.91,1.66,2.34.97,6.99-1.85,13.02l.06.02c1.92.65,3.75,1.88,5.73,3.84,4.47-9.11,5.04-16.12,1.67-20.87-2.33-3.28-7.59-6.75-19.4-4.7-14.45,2.5-26.1,19.19-30.1,25.62,3.4-1.83,7.64-3.12,10.86-3.64Z"/>
    <path class="cls-2" d="M193.02,75.02c-19.18-1.29-38.05-.23-56.12,3.16-2.8,1.11-4.45,2.39-4.37,3.79l7.14,126.68c.78,13.77,66.02,10.1,65.24-3.67l-7.14-126.68c-.08-1.4-1.85-2.48-4.76-3.27Z"/>
    <path class="cls-2" d="M192.85,73.15l-.14-2.55c-.06-1.15-1.45-2.05-3.75-2.72-17.29-1.66-33.69-.74-48.79,2.73-2.24.93-3.53,1.98-3.47,3.14l.14,2.54c18.04-3.36,36.88-4.41,56-3.15Z"/>
    <g>
      <path class="cls-3" d="M152.73,152.69l.05.94c-2.07.29-4.53,1.79-4.34,5.19s2.51,4.5,4.85,4.55l.05.97,2.28-.13-.05-.97c2.37-.36,4.53-1.82,4.34-5.15-.19-3.35-2.57-4.57-4.86-4.6l-.05-.94-2.28.13ZM153.22,161.68c-.97-.07-2.22-.93-2.33-3.04-.13-2.27,1.04-3.17,1.97-3.35l.36,6.39ZM155.14,155.16c1.01.07,2.21.8,2.34,3.07s-1.04,3.15-1.98,3.32l-.36-6.39ZM165.97,152.22c-3.18.18-5.1,2.71-4.92,5.93s2.18,5.37,5.37,5.19,5.17-2.44,4.97-5.97c-.17-2.97-2.11-5.34-5.42-5.16h0ZM166.01,154.15c1.68-.09,2.7,1.51,2.81,3.45.12,2.09-.74,3.71-2.38,3.8s-2.7-1.34-2.82-3.45.75-3.71,2.4-3.8h0ZM175.22,162.67l2.44-.14-.49-8.72,2.94-.17-.12-2.04-8.27.47.12,2.04,2.89-.16.49,8.72ZM185.5,151.11c-3.18.18-5.1,2.71-4.92,5.93s2.18,5.37,5.37,5.19,5.17-2.44,4.97-5.97c-.17-2.97-2.11-5.34-5.42-5.16h0ZM185.54,153.05c1.68-.09,2.7,1.51,2.81,3.45.12,2.09-.74,3.71-2.38,3.8s-2.7-1.34-2.82-3.45.75-3.71,2.4-3.8h0Z"/>
      <path class="cls-3" d="M148.26,147.13c.55.05,1.45.08,2.64.01,2.14-.12,3.43-.54,4.18-1.21.64-.58,1.04-1.37.99-2.35-.08-1.39-1.04-2.27-2.29-2.53v-.03c1.19-.51,1.7-1.44,1.64-2.4s-.64-1.68-1.41-2.04c-.81-.42-1.73-.51-3.21-.43-1.21.07-2.5.24-3.13.4l.6,10.57h0ZM150.17,138.03c.21-.04.51-.09,1.03-.12,1.1-.06,1.75.33,1.79,1.15s-.61,1.36-1.89,1.44l-.8.04-.14-2.51h0ZM150.41,142.28l.83-.05c1.21-.07,2.21.31,2.27,1.39s-.89,1.6-1.99,1.67c-.41.02-.7.04-.94.02l-.17-3.04h0ZM163.3,143.56l.99,2.72,2.62-.15-3.94-10.58-3.19.18-2.68,10.95,2.52-.14.61-2.81,3.08-.17h0ZM160.46,141.89l.51-2.32c.14-.63.25-1.46.38-2.1h.03c.2.63.43,1.42.66,2.04l.8,2.25-2.38.13h0ZM167.73,135.28l.61,10.76,12.47-.7-.61-10.76-2.38.13.49,8.77-2.67.15-.49-8.77-2.38.13.49,8.77-2.65.15-.49-8.77-2.4.13h0ZM188.96,138.33l-3.96.22-.13-2.24,4.2-.24-.11-2-6.64.37.61,10.76,6.87-.39-.11-2-4.42.25-.14-2.56,3.96-.22-.11-1.98h0Z"/>
      <path class="cls-3" d="M145.2,121.67c.59-.34,1.5-.73,2.33-.77,1.04-.06,1.66.39,1.7,1.09.05.85-.75,1.4-1.86,1.47l-1.01.06.1,1.79,1.02-.06c1.01-.06,2.27.11,2.33,1.31.05.89-.67,1.45-1.9,1.52-1.01.06-2.15-.26-2.64-.51l-.4,1.91c.92.46,2.15.63,3.27.57,2.01-.11,4.39-1.08,4.26-3.48-.08-1.45-1.32-2.31-2.67-2.41v-.03c1.23-.37,2.09-1.32,2.01-2.66-.09-1.58-1.54-2.68-3.91-2.55-1.48.08-2.58.56-3.3,1.05l.67,1.71h0ZM155.07,118.68l.16,2.88c.07,1.31.01,2.5-.23,3.6-.19.86-.5,1.66-.89,2.45l-.89.11.35,4.58,1.85-.1-.03-2.74,6.29-.35.28,2.72,1.85-.1-.15-4.59h-1.08s-.5-8.85-.5-8.85c0,0-7.04.4-7.04.4ZM157.44,120.53l2.35-.13.38,6.8-3.58.2c.26-.53.49-1.2.65-1.88.26-1.09.35-2.31.28-3.56l-.08-1.44h0ZM171.2,122.02l-3.96.22-.13-2.24,4.2-.24-.11-2-6.64.37.61,10.76,6.87-.39-.11-2-4.42.25-.14-2.56,3.96-.22-.11-1.98h0ZM181.11,125.8c-.47.22-1.27.42-2.01.46-2.17.12-3.53-1.16-3.65-3.32-.13-2.4,1.3-3.65,3.23-3.75.86-.05,1.56.1,2.07.28l.39-1.96c-.44-.2-1.42-.4-2.68-.33-3.26.18-5.76,2.37-5.56,6.05.17,3.07,2.22,5.29,5.94,5.08,1.31-.07,2.3-.39,2.74-.63l-.48-1.88h0ZM182.59,117.13l.6,10.72c.55.05,1.45.08,2.64.01,1.68-.09,3.46-.52,4.44-1.63.5-.59.79-1.37.73-2.4-.13-2.4-2.16-3.39-4.48-3.26-.46.03-.97.09-1.3.15l-.21-3.74-2.43.14h0ZM185.32,122.59c.3-.05.59-.1.94-.12,1.17-.07,2.14.39,2.21,1.62s-.86,1.84-2.04,1.91c-.35.02-.64.02-.91-.01l-.19-3.4h0Z"/>
    </g>
  </g>
  <g>
    <path class="cls-2" d="M117.29,68.2c-2.39-3.62-5.7-5.48-9.85-6.54-3.22-.83-6.52-1.47-9.78-2-4.76-.79-9.66-1.4-14.53-1.51-4.55-.11-9.2.21-13.37,2.2,0,0-.55.26-.55.27l-1.83,13.34c15.47-.47,31.72,1.76,48.32,6.65l1.68-12.26s-.09-.14-.09-.14Z"/>
    <path class="cls-2" d="M82.97,56.19h.12c6.09-5.28,14.72-11.17,22.82-11,6.46.14,10.84,1.7,12.01,4.29,1.19,2.62-.38,7.05-4.31,12.42l.06.03c1.75,1.01,3.32,2.57,4.89,4.86,6.13-8.08,8.04-14.86,5.64-20.16-1.66-3.66-6.15-8.08-18.14-8.33-14.66-.31-29.29,13.84-34.45,19.38,3.69-1.15,8.1-1.6,11.36-1.49Z"/>
    <path class="cls-2" d="M118.14,90.25c-18.57-4.94-37.3-7.51-55.68-7.65-2.96.55-4.82,1.49-5.02,2.88l-17.26,125.7c-1.88,13.67,62.86,22.56,64.74,8.89l17.26-125.7c.19-1.39-1.34-2.79-4.04-4.12Z"/>
    <path class="cls-2" d="M118.33,88.39l.35-2.53c.16-1.14-1.03-2.29-3.16-3.38-16.65-4.94-32.93-7.18-48.41-6.67-2.37.48-3.85,1.27-4.01,2.42l-.35,2.52c18.35.16,37.04,2.73,55.57,7.63Z"/>
    <g>
      <path class="cls-3" d="M63.72,158.77l-.13.94c-2.08-.11-4.79.89-5.25,4.27s1.6,4.9,3.89,5.4l-.13.97,2.27.31.13-.97c2.39.1,4.79-.92,5.25-4.22s-1.64-4.97-3.89-5.44l.13-.94-2.27-.31ZM62.48,167.69c-.93-.26-2-1.34-1.71-3.43.31-2.25,1.63-2.91,2.58-2.91l-.87,6.34ZM65.61,161.66c.98.26,2.01,1.21,1.71,3.46s-1.62,2.89-2.58,2.88l.87-6.34ZM76.8,160.84c-3.15-.43-5.53,1.68-5.97,4.88-.42,3.04,1.11,5.69,4.28,6.13s5.54-1.4,6.02-4.9c.4-2.95-1.05-5.65-4.33-6.1h0ZM76.47,162.75c1.66.23,2.36,2,2.09,3.92-.29,2.08-1.43,3.5-3.07,3.28-1.62-.22-2.4-1.83-2.11-3.92s1.45-3.5,3.08-3.27h0ZM83.88,172.87l2.42.33,1.19-8.65,2.92.4.28-2.03-8.21-1.13-.28,2.03,2.87.39-1.19,8.65ZM96.18,163.5c-3.15-.43-5.53,1.68-5.97,4.88-.42,3.04,1.11,5.69,4.28,6.13s5.54-1.4,6.02-4.9c.4-2.95-1.05-5.65-4.33-6.1h0ZM95.85,165.41c1.66.23,2.36,2,2.09,3.92-.29,2.08-1.43,3.5-3.07,3.28s-2.4-1.83-2.11-3.92,1.45-3.5,3.08-3.27h0Z"/>
      <path class="cls-3" d="M60.4,152.46c.53.15,1.4.35,2.59.52,2.12.29,3.47.12,4.33-.39.74-.45,1.29-1.15,1.42-2.11.19-1.38-.59-2.42-1.76-2.92v-.03c1.27-.28,1.95-1.09,2.08-2.04s-.31-1.77-1-2.27c-.71-.57-1.6-.83-3.07-1.04-1.2-.17-2.5-.25-3.15-.21l-1.44,10.49h0ZM64.02,143.89c.21,0,.52,0,1.04.08,1.09.15,1.65.66,1.54,1.47s-.86,1.22-2.13,1.05l-.79-.11.34-2.49h0ZM63.44,148.11l.82.11c1.2.17,2.11.73,1.96,1.8s-1.18,1.4-2.27,1.25c-.41-.06-.7-.1-.93-.16l.41-3.01h0ZM75.84,151.83l.45,2.85,2.6.36-1.84-11.13-3.17-.44-4.73,10.23,2.5.34,1.14-2.64,3.06.42h0ZM73.38,149.66l.95-2.18c.26-.59.53-1.38.77-1.99h.03c.07.66.15,1.48.26,2.14l.35,2.36-2.36-.32h0ZM81.78,144.56l-1.47,10.68,12.38,1.7,1.47-10.68-2.36-.32-1.19,8.7-2.65-.36,1.19-8.7-2.36-.32-1.19,8.7-2.63-.36,1.19-8.7-2.38-.33h0ZM102.03,151.62l-3.93-.54.3-2.22,4.17.57.27-1.98-6.59-.91-1.47,10.68,6.81.94.27-1.98-4.39-.6.35-2.54,3.93.54.27-1.96h0Z"/>
      <path class="cls-3" d="M62.27,126.88c.64-.22,1.61-.43,2.43-.31,1.03.14,1.55.7,1.45,1.4-.12.84-1.01,1.23-2.1,1.08l-1-.14-.24,1.77,1.01.14c1,.14,2.2.54,2.04,1.73-.12.89-.94,1.29-2.16,1.12-1-.14-2.05-.67-2.49-1l-.76,1.8c.82.63,1.99,1.03,3.1,1.18,2,.27,4.52-.22,4.85-2.6.2-1.44-.85-2.52-2.16-2.88v-.03c1.28-.13,2.31-.9,2.49-2.23.22-1.57-1-2.93-3.35-3.25-1.47-.2-2.64.06-3.44.4l.33,1.8h0ZM72.53,125.84l-.39,2.85c-.18,1.3-.47,2.45-.91,3.49-.35.81-.81,1.54-1.34,2.24l-.9-.06-.53,4.56,1.84.25.5-2.69,6.25.86-.24,2.73,1.84.25.73-4.53-1.06-.21,1.21-8.78s-6.99-.96-6.99-.96ZM74.5,128.11l2.33.32-.93,6.75-3.55-.49c.35-.47.71-1.08.99-1.72.46-1.02.79-2.2.96-3.44l.2-1.43h0ZM87.72,132.21l-3.93-.54.3-2.22,4.17.57.27-1.98-6.59-.91-1.47,10.68,6.81.94.27-1.98-4.39-.6.35-2.54,3.93.54.27-1.96h0ZM96.72,137.82c-.5.12-1.33.17-2.06.07-2.16-.3-3.24-1.82-2.95-3.96.33-2.38,1.98-3.33,3.89-3.07.86.12,1.51.4,1.97.67l.75-1.85c-.4-.28-1.31-.66-2.57-.84-3.23-.44-6.11,1.23-6.61,4.87-.42,3.04,1.17,5.62,4.86,6.12,1.3.18,2.33.06,2.81-.1l-.11-1.94h0ZM99.84,129.59l-1.46,10.63c.53.15,1.4.35,2.59.52,1.66.23,3.5.16,4.67-.75.6-.48,1.04-1.2,1.18-2.21.33-2.38-1.47-3.74-3.77-4.05-.46-.06-.97-.1-1.31-.1l.51-3.71-2.41-.33h0ZM101.47,135.47c.31.01.59.02.94.06,1.16.16,2.02.79,1.85,2.01s-1.19,1.64-2.37,1.48c-.35-.05-.63-.1-.89-.19l.46-3.38h0Z"/>
    </g>
  </g>
</svg>