<?xml version="1.0" encoding="UTF-8"?>
<svg id="_Слой_1" data-name="Слой 1" xmlns="http://www.w3.org/2000/svg" viewBox="0 0 256 256">
  <defs>
    <style>
      .cls-1 {
        fill: #fff;
      }

      .cls-2 {
        fill: #f2f2f2;
      }

      .cls-3 {
        fill: #ed1117;
      }
    </style>
  </defs>
  <rect class="cls-2" x="0" width="256" height="256"/>
  <g>
    <path class="cls-3" d="M146.46,163.38v9.99c0,.86-.55,1.42-1.4,1.42-.08,0-.15,0-.24-.02l-53.11-6.24c-1.22-.14-2.29-1.33-2.29-2.55v-9.99c0-.86.54-1.42,1.39-1.42.08,0,.16,0,.24.02l53.11,6.24c1.23.14,2.3,1.33,2.3,2.55Z"/>
    <path class="cls-3" d="M190.28,44.24v144.53c0,2.61-2.03,4.94-4.53,5.19l-12.74,1.31v-122.69c0-3.82-3-7.27-6.7-7.72l-96.72-11.73c-.27-.03-.53-.05-.79-.05-.47,0-.92.05-1.36.15.78-.76,1.79-1.27,2.89-1.39l115.42-11.87c2.5-.26,4.53,1.65,4.53,4.25Z"/>
    <path class="cls-3" d="M144.16,160.84l-53.11-6.24c-.08,0-.16-.02-.24-.02-.85,0-1.39.56-1.39,1.42v9.99c0,1.22,1.07,2.4,2.29,2.55l53.11,6.24c.09,0,.16.02.24.02.85,0,1.4-.56,1.4-1.42v-9.99c0-1.22-1.07-2.4-2.3-2.55ZM144.16,160.84l-53.11-6.24c-.08,0-.16-.02-.24-.02-.85,0-1.39.56-1.39,1.42v9.99c0,1.22,1.07,2.4,2.29,2.55l53.11,6.24c.09,0,.16.02.24.02.85,0,1.4-.56,1.4-1.42v-9.99c0-1.22-1.07-2.4-2.3-2.55ZM157.63,91.51c-5.95-2.35-10.6-7.82-12.15-14.26-.16-.66-.68-1.11-1.09-1.16l-53.56-6.3h-.07c-.07,0-.27,0-.36.37-1.62,6.36-6.51,10.94-12.74,11.94-.32.05-.35.47-.35.6v95.96c0,.59.42,1.21.94,1.42,5.95,2.35,10.61,7.82,12.16,14.26.16.66.67,1.11,1.09,1.16l37.09,4.35,16.47,1.94s.05,0,.07,0c.07,0,.28,0,.37-.37.31-1.22.74-2.37,1.27-3.45,2.26-4.54,6.42-7.68,11.46-8.49.32-.06.34-.47.34-.6v-95.96c0-.59-.41-1.21-.94-1.42ZM115.01,86.05c.96,0,1.94.06,2.93.18,14.51,1.7,26.28,15.56,26.28,30.94,0,14.33-10.21,24.93-23.34,24.93-.97,0-1.95-.06-2.93-.17-14.51-1.7-26.28-15.56-26.28-30.94,0-14.33,10.22-24.94,23.35-24.94ZM149.31,173.37c0,2.46-1.85,4.27-4.25,4.27-.18,0-.37,0-.57-.04l-53.11-6.24c-2.66-.31-4.81-2.72-4.81-5.38v-9.99c0-2.46,1.85-4.27,4.24-4.27.19,0,.38,0,.57.04l53.11,6.24c2.66.31,4.81,2.72,4.81,5.38v9.99ZM144.16,160.84l-53.11-6.24c-.08,0-.16-.02-.24-.02-.85,0-1.39.56-1.39,1.42v9.99c0,1.22,1.07,2.4,2.29,2.55l53.11,6.24c.09,0,.16.02.24.02.85,0,1.4-.56,1.4-1.42v-9.99c0-1.22-1.07-2.4-2.3-2.55ZM118.27,139.1c.87.1,1.75.15,2.6.15,11.68,0,20.49-9.49,20.49-22.08,0-13.96-10.66-26.57-23.76-28.12-.86-.09-1.74-.15-2.59-.15-11.69,0-20.5,9.5-20.5,22.09,0,13.96,10.66,26.57,23.76,28.11ZM144.16,160.84l-53.11-6.24c-.08,0-.16-.02-.24-.02-.85,0-1.39.56-1.39,1.42v9.99c0,1.22,1.07,2.4,2.29,2.55l53.11,6.24c.09,0,.16.02.24.02.85,0,1.4-.56,1.4-1.42v-9.99c0-1.22-1.07-2.4-2.3-2.55ZM144.16,160.84l-53.11-6.24c-.08,0-.16-.02-.24-.02-.85,0-1.39.56-1.39,1.42v9.99c0,1.22,1.07,2.4,2.29,2.55l53.11,6.24c.09,0,.16.02.24.02.85,0,1.4-.56,1.4-1.42v-9.99c0-1.22-1.07-2.4-2.3-2.55ZM157.63,91.51c-5.95-2.35-10.6-7.82-12.15-14.26-.16-.66-.68-1.11-1.09-1.16l-53.56-6.3h-.07c-.07,0-.27,0-.36.37-1.62,6.36-6.51,10.94-12.74,11.94-.32.05-.35.47-.35.6v95.96c0,.59.42,1.21.94,1.42,5.95,2.35,10.61,7.82,12.16,14.26.16.66.67,1.11,1.09,1.16l37.09,4.35,16.47,1.94s.05,0,.07,0c.07,0,.28,0,.37-.37.31-1.22.74-2.37,1.27-3.45,2.26-4.54,6.42-7.68,11.46-8.49.32-.06.34-.47.34-.6v-95.96c0-.59-.41-1.21-.94-1.42ZM115.01,86.05c.96,0,1.94.06,2.93.18,14.51,1.7,26.28,15.56,26.28,30.94,0,14.33-10.21,24.93-23.34,24.93-.97,0-1.95-.06-2.93-.17-14.51-1.7-26.28-15.56-26.28-30.94,0-14.33,10.22-24.94,23.35-24.94ZM149.31,173.37c0,2.46-1.85,4.27-4.25,4.27-.18,0-.37,0-.57-.04l-53.11-6.24c-2.66-.31-4.81-2.72-4.81-5.38v-9.99c0-2.46,1.85-4.27,4.24-4.27.19,0,.38,0,.57.04l53.11,6.24c2.66.31,4.81,2.72,4.81,5.38v9.99ZM144.16,160.84l-53.11-6.24c-.08,0-.16-.02-.24-.02-.85,0-1.39.56-1.39,1.42v9.99c0,1.22,1.07,2.4,2.29,2.55l53.11,6.24c.09,0,.16.02.24.02.85,0,1.4-.56,1.4-1.42v-9.99c0-1.22-1.07-2.4-2.3-2.55ZM118.27,139.1c.87.1,1.75.15,2.6.15,11.68,0,20.49-9.49,20.49-22.08,0-13.96-10.66-26.57-23.76-28.12-.86-.09-1.74-.15-2.59-.15-11.69,0-20.5,9.5-20.5,22.09,0,13.96,10.66,26.57,23.76,28.11ZM144.16,160.84l-53.11-6.24c-.08,0-.16-.02-.24-.02-.85,0-1.39.56-1.39,1.42v9.99c0,1.22,1.07,2.4,2.29,2.55l53.11,6.24c.09,0,.16.02.24.02.85,0,1.4-.56,1.4-1.42v-9.99c0-1.22-1.07-2.4-2.3-2.55ZM144.16,160.84l-53.11-6.24c-.08,0-.16-.02-.24-.02-.85,0-1.39.56-1.39,1.42v9.99c0,1.22,1.07,2.4,2.29,2.55l53.11,6.24c.09,0,.16.02.24.02.85,0,1.4-.56,1.4-1.42v-9.99c0-1.22-1.07-2.4-2.3-2.55ZM157.63,91.51c-5.95-2.35-10.6-7.82-12.15-14.26-.16-.66-.68-1.11-1.09-1.16l-53.56-6.3h-.07c-.07,0-.27,0-.36.37-1.62,6.36-6.51,10.94-12.74,11.94-.32.05-.35.47-.35.6v95.96c0,.59.42,1.21.94,1.42,5.95,2.35,10.61,7.82,12.16,14.26.16.66.67,1.11,1.09,1.16l37.09,4.35,16.47,1.94s.05,0,.07,0c.07,0,.28,0,.37-.37.31-1.22.74-2.37,1.27-3.45,2.26-4.54,6.42-7.68,11.46-8.49.32-.06.34-.47.34-.6v-95.96c0-.59-.41-1.21-.94-1.42ZM115.01,86.05c.96,0,1.94.06,2.93.18,14.51,1.7,26.28,15.56,26.28,30.94,0,14.33-10.21,24.93-23.34,24.93-.97,0-1.95-.06-2.93-.17-14.51-1.7-26.28-15.56-26.28-30.94,0-14.33,10.22-24.94,23.35-24.94ZM149.31,173.37c0,2.46-1.85,4.27-4.25,4.27-.18,0-.37,0-.57-.04l-53.11-6.24c-2.66-.31-4.81-2.72-4.81-5.38v-9.99c0-2.46,1.85-4.27,4.24-4.27.19,0,.38,0,.57.04l53.11,6.24c2.66.31,4.81,2.72,4.81,5.38v9.99ZM144.16,160.84l-53.11-6.24c-.08,0-.16-.02-.24-.02-.85,0-1.39.56-1.39,1.42v9.99c0,1.22,1.07,2.4,2.29,2.55l53.11,6.24c.09,0,.16.02.24.02.85,0,1.4-.56,1.4-1.42v-9.99c0-1.22-1.07-2.4-2.3-2.55ZM118.27,139.1c.87.1,1.75.15,2.6.15,11.68,0,20.49-9.49,20.49-22.08,0-13.96-10.66-26.57-23.76-28.12-.86-.09-1.74-.15-2.59-.15-11.69,0-20.5,9.5-20.5,22.09,0,13.96,10.66,26.57,23.76,28.11ZM157.63,91.51c-5.95-2.35-10.6-7.82-12.15-14.26-.16-.66-.68-1.11-1.09-1.16l-53.56-6.3h-.07c-.07,0-.27,0-.36.37-1.62,6.36-6.51,10.94-12.74,11.94-.32.05-.35.47-.35.6v95.96c0,.59.42,1.21.94,1.42,5.95,2.35,10.61,7.82,12.16,14.26.16.66.67,1.11,1.09,1.16l37.09,4.35,16.47,1.94s.05,0,.07,0c.07,0,.28,0,.37-.37.31-1.22.74-2.37,1.27-3.45,2.26-4.54,6.42-7.68,11.46-8.49.32-.06.34-.47.34-.6v-95.96c0-.59-.41-1.21-.94-1.42ZM115.01,86.05c.96,0,1.94.06,2.93.18,14.51,1.7,26.28,15.56,26.28,30.94,0,14.33-10.21,24.93-23.34,24.93-.97,0-1.95-.06-2.93-.17-14.51-1.7-26.28-15.56-26.28-30.94,0-14.33,10.22-24.94,23.35-24.94ZM149.31,173.37c0,2.46-1.85,4.27-4.25,4.27-.18,0-.37,0-.57-.04l-53.11-6.24c-2.66-.31-4.81-2.72-4.81-5.38v-9.99c0-2.46,1.85-4.27,4.24-4.27.19,0,.38,0,.57.04l53.11,6.24c2.66.31,4.81,2.72,4.81,5.38v9.99ZM144.16,160.84l-53.11-6.24c-.08,0-.16-.02-.24-.02-.85,0-1.39.56-1.39,1.42v9.99c0,1.22,1.07,2.4,2.29,2.55l53.11,6.24c.09,0,.16.02.24.02.85,0,1.4-.56,1.4-1.42v-9.99c0-1.22-1.07-2.4-2.3-2.55ZM118.27,139.1c.87.1,1.75.15,2.6.15,11.68,0,20.49-9.49,20.49-22.08,0-13.96-10.66-26.57-23.76-28.12-.86-.09-1.74-.15-2.59-.15-11.69,0-20.5,9.5-20.5,22.09,0,13.96,10.66,26.57,23.76,28.11ZM165.95,67.68l-96.72-11.72c-.15-.02-.3-.03-.45-.03-1.57,0-2.72,1.02-3,2.55-.05.24-.07.49-.07.75v140.16c0,.26.02.5.07.76.35,2.07,2.11,3.88,4.13,4.13l7.13.86,89.59,10.86c.14.02.29.03.45.03,1.8,0,3.06-1.36,3.06-3.3V72.58c0-2.38-1.92-4.63-4.2-4.9ZM148.24,202.12c-.38,1.52-1.63,2.52-3.12,2.52-.13,0-.27,0-.4-.03l-29.16-3.42-24.41-2.87c-1.66-.2-3.1-1.57-3.52-3.32-1.33-5.55-5.34-10.28-10.43-12.28-1.6-.64-2.74-2.3-2.74-4.06v-95.96c0-1.76,1.14-3.15,2.74-3.41,5.09-.82,9.1-4.6,10.43-9.83.39-1.52,1.63-2.52,3.12-2.52.13,0,.27,0,.41.02l53.55,6.3c1.66.2,3.11,1.57,3.52,3.32,1.33,5.55,5.35,10.28,10.43,12.28,1.61.64,2.74,2.3,2.74,4.06v95.96c0,1.76-1.13,3.15-2.74,3.41-3.46.56-6.43,2.49-8.39,5.32-.92,1.32-1.61,2.85-2.04,4.51ZM158.57,188.88v-95.96c0-.59-.41-1.21-.94-1.42-5.95-2.35-10.6-7.82-12.15-14.26-.16-.66-.68-1.11-1.09-1.16l-53.56-6.3h-.07c-.07,0-.27,0-.36.37-1.62,6.36-6.51,10.94-12.74,11.94-.32.05-.35.47-.35.6v95.96c0,.59.42,1.21.94,1.42,5.95,2.35,10.61,7.82,12.16,14.26.16.66.67,1.11,1.09,1.16l37.09,4.35,16.47,1.94s.05,0,.07,0c.07,0,.28,0,.37-.37.31-1.22.74-2.37,1.27-3.45,2.26-4.54,6.42-7.68,11.46-8.49.32-.06.34-.47.34-.6ZM115.01,86.05c.96,0,1.94.06,2.93.18,14.51,1.7,26.28,15.56,26.28,30.94,0,14.33-10.21,24.93-23.34,24.93-.97,0-1.95-.06-2.93-.17-14.51-1.7-26.28-15.56-26.28-30.94,0-14.33,10.22-24.94,23.35-24.94ZM149.31,173.37c0,2.46-1.85,4.27-4.25,4.27-.18,0-.37,0-.57-.04l-53.11-6.24c-2.66-.31-4.81-2.72-4.81-5.38v-9.99c0-2.46,1.85-4.27,4.24-4.27.19,0,.38,0,.57.04l53.11,6.24c2.66.31,4.81,2.72,4.81,5.38v9.99ZM144.16,160.84l-53.11-6.24c-.08,0-.16-.02-.24-.02-.85,0-1.39.56-1.39,1.42v9.99c0,1.22,1.07,2.4,2.29,2.55l53.11,6.24c.09,0,.16.02.24.02.85,0,1.4-.56,1.4-1.42v-9.99c0-1.22-1.07-2.4-2.3-2.55ZM118.27,139.1c.87.1,1.75.15,2.6.15,11.68,0,20.49-9.49,20.49-22.08,0-13.96-10.66-26.57-23.76-28.12-.86-.09-1.74-.15-2.59-.15-11.69,0-20.5,9.5-20.5,22.09,0,13.96,10.66,26.57,23.76,28.11ZM144.16,160.84l-53.11-6.24c-.08,0-.16-.02-.24-.02-.85,0-1.39.56-1.39,1.42v9.99c0,1.22,1.07,2.4,2.29,2.55l53.11,6.24c.09,0,.16.02.24.02.85,0,1.4-.56,1.4-1.42v-9.99c0-1.22-1.07-2.4-2.3-2.55ZM144.16,160.84l-53.11-6.24c-.08,0-.16-.02-.24-.02-.85,0-1.39.56-1.39,1.42v9.99c0,1.22,1.07,2.4,2.29,2.55l53.11,6.24c.09,0,.16.02.24.02.85,0,1.4-.56,1.4-1.42v-9.99c0-1.22-1.07-2.4-2.3-2.55ZM157.63,91.51c-5.95-2.35-10.6-7.82-12.15-14.26-.16-.66-.68-1.11-1.09-1.16l-53.56-6.3h-.07c-.07,0-.27,0-.36.37-1.62,6.36-6.51,10.94-12.74,11.94-.32.05-.35.47-.35.6v95.96c0,.59.42,1.21.94,1.42,5.95,2.35,10.61,7.82,12.16,14.26.16.66.67,1.11,1.09,1.16l37.09,4.35,16.47,1.94s.05,0,.07,0c.07,0,.28,0,.37-.37.31-1.22.74-2.37,1.27-3.45,2.26-4.54,6.42-7.68,11.46-8.49.32-.06.34-.47.34-.6v-95.96c0-.59-.41-1.21-.94-1.42ZM115.01,86.05c.96,0,1.94.06,2.93.18,14.51,1.7,26.28,15.56,26.28,30.94,0,14.33-10.21,24.93-23.34,24.93-.97,0-1.95-.06-2.93-.17-14.51-1.7-26.28-15.56-26.28-30.94,0-14.33,10.22-24.94,23.35-24.94ZM149.31,173.37c0,2.46-1.85,4.27-4.25,4.27-.18,0-.37,0-.57-.04l-53.11-6.24c-2.66-.31-4.81-2.72-4.81-5.38v-9.99c0-2.46,1.85-4.27,4.24-4.27.19,0,.38,0,.57.04l53.11,6.24c2.66.31,4.81,2.72,4.81,5.38v9.99ZM144.16,160.84l-53.11-6.24c-.08,0-.16-.02-.24-.02-.85,0-1.39.56-1.39,1.42v9.99c0,1.22,1.07,2.4,2.29,2.55l53.11,6.24c.09,0,.16.02.24.02.85,0,1.4-.56,1.4-1.42v-9.99c0-1.22-1.07-2.4-2.3-2.55ZM118.27,139.1c.87.1,1.75.15,2.6.15,11.68,0,20.49-9.49,20.49-22.08,0-13.96-10.66-26.57-23.76-28.12-.86-.09-1.74-.15-2.59-.15-11.69,0-20.5,9.5-20.5,22.09,0,13.96,10.66,26.57,23.76,28.11ZM144.16,160.84l-53.11-6.24c-.08,0-.16-.02-.24-.02-.85,0-1.39.56-1.39,1.42v9.99c0,1.22,1.07,2.4,2.29,2.55l53.11,6.24c.09,0,.16.02.24.02.85,0,1.4-.56,1.4-1.42v-9.99c0-1.22-1.07-2.4-2.3-2.55ZM144.16,160.84l-53.11-6.24c-.08,0-.16-.02-.24-.02-.85,0-1.39.56-1.39,1.42v9.99c0,1.22,1.07,2.4,2.29,2.55l53.11,6.24c.09,0,.16.02.24.02.85,0,1.4-.56,1.4-1.42v-9.99c0-1.22-1.07-2.4-2.3-2.55ZM157.63,91.51c-5.95-2.35-10.6-7.82-12.15-14.26-.16-.66-.68-1.11-1.09-1.16l-53.56-6.3h-.07c-.07,0-.27,0-.36.37-1.62,6.36-6.51,10.94-12.74,11.94-.32.05-.35.47-.35.6v95.96c0,.59.42,1.21.94,1.42,5.95,2.35,10.61,7.82,12.16,14.26.16.66.67,1.11,1.09,1.16l37.09,4.35,16.47,1.94s.05,0,.07,0c.07,0,.28,0,.37-.37.31-1.22.74-2.37,1.27-3.45,2.26-4.54,6.42-7.68,11.46-8.49.32-.06.34-.47.34-.6v-95.96c0-.59-.41-1.21-.94-1.42ZM115.01,86.05c.96,0,1.94.06,2.93.18,14.51,1.7,26.28,15.56,26.28,30.94,0,14.33-10.21,24.93-23.34,24.93-.97,0-1.95-.06-2.93-.17-14.51-1.7-26.28-15.56-26.28-30.94,0-14.33,10.22-24.94,23.35-24.94ZM149.31,173.37c0,2.46-1.85,4.27-4.25,4.27-.18,0-.37,0-.57-.04l-53.11-6.24c-2.66-.31-4.81-2.72-4.81-5.38v-9.99c0-2.46,1.85-4.27,4.24-4.27.19,0,.38,0,.57.04l53.11,6.24c2.66.31,4.81,2.72,4.81,5.38v9.99ZM144.16,160.84l-53.11-6.24c-.08,0-.16-.02-.24-.02-.85,0-1.39.56-1.39,1.42v9.99c0,1.22,1.07,2.4,2.29,2.55l53.11,6.24c.09,0,.16.02.24.02.85,0,1.4-.56,1.4-1.42v-9.99c0-1.22-1.07-2.4-2.3-2.55ZM118.27,139.1c.87.1,1.75.15,2.6.15,11.68,0,20.49-9.49,20.49-22.08,0-13.96-10.66-26.57-23.76-28.12-.86-.09-1.74-.15-2.59-.15-11.69,0-20.5,9.5-20.5,22.09,0,13.96,10.66,26.57,23.76,28.11Z"/>
    <path class="cls-3" d="M141.37,117.17c0,12.59-8.81,22.08-20.49,22.08-.85,0-1.73-.05-2.6-.15-13.1-1.54-23.76-14.15-23.76-28.11,0-12.59,8.81-22.09,20.5-22.09.85,0,1.73.06,2.59.15,13.11,1.55,23.76,14.16,23.76,28.12Z"/>
    <path class="cls-3" d="M146.46,163.38v9.99c0,.86-.55,1.42-1.4,1.42-.08,0-.15,0-.24-.02l-53.11-6.24c-1.22-.14-2.29-1.33-2.29-2.55v-9.99c0-.86.54-1.42,1.39-1.42.08,0,.16,0,.24.02l53.11,6.24c1.23.14,2.3,1.33,2.3,2.55Z"/>
    <g>
      <path class="cls-2" d="M107.7,115.45v-.71l-1.63-.19v.71c-1.48-.04-3.3.77-3.3,3.35s1.6,3.69,3.28,4.02v.74l1.63.19v-.74c1.69.04,3.3-.8,3.3-3.3s-1.64-3.75-3.28-4.06ZM106.06,121.35c-.68-.17-1.54-.98-1.54-2.57,0-1.71.86-2.24,1.54-2.26v4.83ZM107.69,121.55v-4.84c.71.19,1.54.88,1.54,2.6s-.86,2.23-1.54,2.24ZM115.51,115.86c-2.26-.27-3.73,1.39-3.73,3.83s1.33,4.3,3.61,4.58c2.25.27,3.78-1.18,3.78-3.85,0-2.25-1.29-4.27-3.66-4.56ZM115.48,122.81c-1.17-.14-1.87-1.35-1.87-2.94s.68-2.69,1.86-2.55c1.2.14,1.85,1.47,1.85,2.93,0,1.59-.66,2.69-1.84,2.55ZM119.62,116.48v1.55l2.06.25v6.6l1.75.2v-6.6l2.1.25v-1.55l-5.91-.69ZM129.46,117.5c-2.27-.27-3.74,1.39-3.74,3.83s1.34,4.3,3.62,4.57c2.24.27,3.77-1.18,3.77-3.85,0-2.24-1.28-4.27-3.65-4.55ZM129.42,124.45c-1.16-.13-1.86-1.34-1.86-2.93s.68-2.69,1.85-2.55c1.2.13,1.86,1.47,1.86,2.93,0,1.59-.67,2.69-1.85,2.55Z"/>
      <path class="cls-2" d="M107.29,105.96v-.03c.86-.23,1.26-.86,1.26-1.59s-.39-1.34-.92-1.71c-.56-.41-1.22-.6-2.27-.72-.87-.1-1.79-.14-2.25-.09v8.01c.39.1,1.03.24,1.88.34,1.53.17,2.47.02,3.03-.39.47-.35.8-.89.8-1.63,0-1.05-.66-1.82-1.53-2.18ZM104.83,103.24c.15,0,.37,0,.75.04.78.09,1.23.47,1.23,1.08s-.48.95-1.4.85l-.58-.07v-1.9ZM105.51,108.85c-.29-.04-.49-.06-.66-.1v-2.3l.59.08c.86.09,1.56.5,1.56,1.33s-.69,1.09-1.48,1ZM114.04,102.99l-2.29-.27-2.35,7.86,1.8.22.54-2.03,2.2.26.6,2.17,1.87.22-2.38-8.42ZM112.01,107.43l.46-1.67c.12-.46.24-1.06.35-1.53h.02c.11.49.26,1.12.39,1.61l.48,1.79-1.7-.2ZM124.66,104.24v6.64l-1.91-.23v-6.63l-1.7-.2v6.63l-1.89-.22v-6.64l-1.71-.2v8.15l8.9,1.04v-8.15l-1.69-.2ZM129.61,111.45v-1.93l2.82.33v-1.5l-2.82-.33v-1.69l2.99.35v-1.51l-4.74-.56v8.15l4.9.57v-1.51l-3.15-.37Z"/>
    </g>
    <g>
      <path class="cls-1" d="M97.77,159.59v2.17l-1.98-.24v-2.17l-1.21-.14v5.64l1.21.14v-2.36l1.98.24v2.36l1.2.14v-5.64l-1.2-.13Z"/>
      <path class="cls-1" d="M102.36,160.04c-1.58-.19-2.59.96-2.59,2.65s.92,2.97,2.5,3.16c1.56.18,2.62-.82,2.62-2.67,0-1.55-.89-2.95-2.53-3.14ZM102.33,164.85c-.81-.09-1.29-.93-1.29-2.03s.47-1.86,1.28-1.77c.84.1,1.29,1.03,1.29,2.03,0,1.1-.47,1.86-1.28,1.77Z"/>
      <path class="cls-1" d="M111.1,161.16l-1.57-.19-.57,1.81c-.17.6-.36,1.33-.5,1.96h-.03c-.11-.67-.28-1.41-.45-2.07l-.52-1.94-1.6-.19-.34,5.59,1.12.13.1-2.13c.04-.7.06-1.57.09-2.33h0c.13.75.31,1.58.48,2.27l.57,2.24.94.11.65-2.13c.21-.64.43-1.42.59-2.12h.03c0,.83.02,1.65.05,2.33l.08,2.17,1.18.13-.29-5.67Z"/>
      <path class="cls-1" d="M113.53,166.03v-1.34l1.96.24v-1.04l-1.96-.23v-1.17l2.07.24v-1.04l-3.29-.38v5.64l3.4.4v-1.05l-2.18-.26Z"/>
      <path class="cls-1" d="M119.79,162.58c-.35-.34-.88-.55-1.62-.64-.73-.09-1.25-.1-1.62-.08v5.57l1.19.14v-2.02c.11.03.26.06.41.08.71.09,1.32-.03,1.73-.39.32-.28.49-.73.49-1.28s-.23-1.05-.57-1.38ZM118.14,164.66c-.18-.02-.3-.05-.41-.09v-1.66c.09-.02.26-.02.49,0,.61.07.94.42.94.94,0,.57-.39.87-1.03.8Z"/>
      <path class="cls-1" d="M125.55,162.85l-1.59-.18-1.62,5.45,1.24.14.38-1.41,1.53.18.41,1.5,1.29.15-1.64-5.84ZM124.14,165.93l.31-1.16c.09-.31.16-.73.25-1.06h0c.09.35.18.78.28,1.12l.32,1.23-1.17-.13Z"/>
      <path class="cls-1" d="M130.8,166.07h0c.6-.18.87-.62.87-1.11s-.27-.93-.64-1.19c-.39-.28-.84-.41-1.58-.5-.6-.07-1.23-.1-1.56-.07v5.55c.28.08.71.16,1.31.24,1.05.12,1.7,0,2.09-.27.33-.25.55-.63.55-1.13,0-.73-.45-1.27-1.05-1.52ZM129.1,164.19c.1,0,.26,0,.51.03.54.07.85.32.85.75s-.34.66-.97.59l-.4-.05v-1.32ZM129.56,168.08c-.21-.03-.35-.05-.47-.08v-1.59l.41.05c.6.07,1.08.35,1.08.92s-.48.75-1.03.69Z"/>
      <path class="cls-1" d="M132.22,163.64v1.07l1.42.16v4.58l1.21.13v-4.57l1.45.17v-1.06l-4.08-.48Z"/>
      <path class="cls-1" d="M139.03,164.35c-1.57-.19-2.58.96-2.58,2.65s.92,2.97,2.5,3.16c1.56.18,2.61-.82,2.61-2.67,0-1.56-.89-2.95-2.53-3.14ZM139.01,169.16c-.81-.09-1.3-.93-1.3-2.03s.47-1.86,1.29-1.77c.83.1,1.28,1.02,1.28,2.03,0,1.09-.47,1.86-1.27,1.77Z"/>
    </g>
  </g>
</svg>