<?xml version="1.0" encoding="UTF-8"?>
<svg id="_Слой_1" data-name="Слой 1" xmlns="http://www.w3.org/2000/svg" viewBox="0 0 256 256">
  <defs>
    <style>
      .cls-1 {
        fill: #f2f2f2;
      }

      .cls-2 {
        fill: #ed1117;
      }

      .cls-3 {
        fill: #fefefe;
      }
    </style>
  </defs>
  <rect class="cls-1" x="0" width="256" height="256"/>
  <g>
    <g>
      <path class="cls-2" d="M122.12,107.05l-6.66,34.76-60.37,8.81c-4.79.7-9.26-2.63-9.95-7.42l-11.81-80.91c-.71-4.79,2.63-9.26,7.42-9.95l80.91-11.81c.43-.06.86-.1,1.29-.1,1.87,0,3.69.61,5.22,1.74,1.88,1.4,3.11,3.45,3.44,5.77l7.35,50.39-3.12-.6c-6.35-1.21-12.49,2.96-13.72,9.31Z"/>
      <g>
        <path class="cls-3" d="M67.98,101.71l.17,1.18c-2.57.6-5.5,2.77-4.88,7.03s3.67,5.39,6.62,5.19l.18,1.22,2.86-.42-.18-1.22c2.94-.72,5.5-2.81,4.89-6.97s-3.74-5.46-6.63-5.25l-.17-1.18-2.86.42ZM69.61,112.98c-1.22.02-2.89-.93-3.28-3.57-.41-2.84.95-4.1,2.11-4.44l1.17,8.01ZM71.3,104.56c1.28-.02,2.87.77,3.29,3.61s-.96,4.08-2.12,4.4l-1.17-8.01h0ZM84.61,99.63c-3.98.58-6.12,3.98-5.53,8.02s3.34,6.52,7.35,5.94,6.23-3.65,5.59-8.07c-.54-3.72-3.26-6.49-7.4-5.89h0ZM84.88,102.07c2.1-.31,3.57,1.61,3.92,4.03.38,2.62-.51,4.76-2.57,5.06s-3.55-1.38-3.94-4.02.53-4.76,2.59-5.06ZM97.43,111.76l3.06-.45-1.59-10.93,3.68-.54-.37-2.56-10.37,1.51.37,2.56,3.62-.53,1.59,10.93ZM109.08,96.06c-3.98.58-6.12,3.98-5.53,8.02s3.34,6.52,7.35,5.94,6.23-3.65,5.59-8.07c-.54-3.72-3.26-6.49-7.4-5.89h0ZM109.36,98.5c2.1-.31,3.57,1.61,3.92,4.03.38,2.62-.51,4.76-2.57,5.06s-3.55-1.38-3.94-4.02.53-4.76,2.59-5.06Z"/>
        <path class="cls-3" d="M61.74,95.21c.7,0,1.83-.06,3.33-.28,2.68-.39,4.26-1.07,5.13-1.99.74-.8,1.16-1.85.98-3.07-.25-1.74-1.56-2.74-3.17-2.93v-.04c1.43-.78,1.97-2.01,1.8-3.21s-.99-2.04-2.01-2.41c-1.07-.44-2.23-.45-4.09-.18-1.52.22-3.12.58-3.9.86l1.93,13.25h0ZM63.12,83.54c.25-.08.63-.17,1.29-.27,1.38-.2,2.24.22,2.39,1.25s-.62,1.79-2.22,2.02l-1,.15-.46-3.14h0ZM63.9,88.86l1.04-.15c1.52-.22,2.82.14,3.02,1.5s-.94,2.12-2.32,2.32c-.52.08-.88.13-1.19.13l-.55-3.8h0ZM80.28,89.03l1.55,3.31,3.28-.48-6.15-12.88-4,.58-2.15,14.09,3.16-.46.46-3.6,3.86-.56h0ZM76.52,87.24l.38-2.98c.11-.81.16-1.86.24-2.69h.04c.32.77.7,1.73,1.06,2.5l1.26,2.74-2.98.44h0ZM84.94,78.1l1.97,13.49,15.63-2.28-1.97-13.49-2.98.44,1.6,10.99-3.34.49-1.6-10.99-2.98.44,1.6,10.99-3.32.48-1.6-10.99-3,.44h0ZM112.01,79.57l-4.96.72-.41-2.8,5.26-.77-.37-2.5-8.33,1.21,1.97,13.49,8.61-1.26-.37-2.5-5.54.81-.47-3.2,4.96-.72-.36-2.48h0Z"/>
      </g>
    </g>
    <g>
      <g>
        <path class="cls-2" d="M221.2,119.72c-1.31-1.94-3.31-3.25-5.61-3.69l-76.19-14.6-4.12-.79c-.56-.11-1.12-.16-1.66-.16-4.12,0-7.82,2.93-8.62,7.12l-6.47,33.76-8.93,46.55c-.91,4.75,2.21,9.36,6.97,10.27l80.3,15.4c2.3.44,4.64-.04,6.58-1.36,1.94-1.31,3.25-3.31,3.69-5.61l15.39-80.3c.44-2.3-.04-4.64-1.35-6.58ZM168.58,139.47l2.98.57-2.09,10.9,3.29.64,2.1-10.9,2.96.57-2.09,10.9,3.31.64,2.1-10.9,2.96.57-2.57,13.38-15.52-2.97,2.57-13.39ZM162.64,138.34l1.59,14.18-3.26-.62-.37-3.63-3.83-.73-1.62,3.25-3.14-.61,6.66-12.6,3.97.76ZM147.55,135.34c1.85.35,2.95.74,3.81,1.51.83.68,1.33,1.72,1.11,2.93-.24,1.2-1.14,2.18-2.75,2.44v.04c1.44.72,2.35,2.08,2.02,3.81-.24,1.21-.97,2.06-1.94,2.57-1.12.6-2.83.72-5.5.21-1.49-.28-2.58-.6-3.23-.82l2.52-13.15c.82,0,2.46.18,3.97.47ZM151.98,165.05c-.79,4.13-3.9,5.27-6.91,4.98l-.24,1.21-2.84-.54.24-1.21c-2.86-.77-5.35-2.96-4.56-7.07.81-4.23,4.29-5.31,6.92-5.04l.23-1.18,2.84.55-.23,1.17c2.8.74,5.34,2.97,4.55,7.13ZM166.26,167.69c-.84,4.39-4.01,6.54-7.93,5.79-3.97-.75-5.72-4.2-4.99-8.01.76-4.02,3.91-6.53,7.86-5.76,4.12.78,5.77,4.29,5.06,7.99ZM172.38,175.95l-3.04-.58,2.08-10.85-3.6-.7.49-2.54,10.29,1.97-.49,2.55-3.65-.71-2.08,10.85ZM190.56,172.35c-.84,4.39-4.02,6.53-7.93,5.79-3.98-.76-5.72-4.21-5-8.02.77-4.01,3.91-6.52,7.87-5.76,4.11.78,5.76,4.3,5.06,7.99ZM194.51,147.02l-5.22-1-.54,2.78,4.93.94-.47,2.46-4.93-.94-.61,3.17,5.51,1.06-.48,2.49-8.54-1.65,2.57-13.38,8.27,1.59-.48,2.48Z"/>
        <path class="cls-2" d="M151.98,165.05c-.79,4.13-3.9,5.27-6.91,4.98l-.24,1.21-2.84-.54.24-1.21c-2.86-.77-5.35-2.96-4.56-7.07.81-4.23,4.29-5.31,6.92-5.04l.23-1.18,2.84.55-.23,1.17c2.8.74,5.34,2.97,4.55,7.13Z"/>
        <path class="cls-2" d="M144.29,148.84c-1.49-.28-2.58-.6-3.23-.82l2.52-13.15c.82,0,2.46.18,3.97.47,1.85.35,2.95.74,3.81,1.51.83.68,1.33,1.72,1.11,2.93-.24,1.2-1.14,2.18-2.75,2.44v.04c1.44.72,2.35,2.08,2.02,3.81-.24,1.21-.97,2.06-1.94,2.57-1.12.6-2.83.72-5.5.21Z"/>
        <polygon class="cls-2" points="152.01 150.17 158.68 137.57 162.64 138.34 164.23 152.51 160.97 151.9 160.6 148.26 156.77 147.53 155.15 150.78 152.01 150.17"/>
        <path class="cls-2" d="M166.26,167.69c-.84,4.39-4.01,6.54-7.93,5.79-3.97-.75-5.72-4.2-4.99-8.01.76-4.02,3.91-6.53,7.86-5.76,4.12.78,5.77,4.29,5.06,7.99Z"/>
        <polygon class="cls-2" points="178.11 165.81 174.46 165.1 172.38 175.95 169.35 175.37 171.42 164.52 167.83 163.83 168.32 161.29 178.6 163.26 178.11 165.81"/>
        <polygon class="cls-2" points="181.53 155.83 166.01 152.87 168.58 139.47 171.56 140.04 169.47 150.94 172.76 151.58 174.86 140.68 177.82 141.25 175.73 152.15 179.04 152.79 181.14 141.88 184.1 142.45 181.53 155.83"/>
        <path class="cls-2" d="M190.56,172.35c-.84,4.39-4.02,6.53-7.93,5.79-3.98-.76-5.72-4.21-5-8.02.77-4.01,3.91-6.52,7.87-5.76,4.11.78,5.76,4.3,5.06,7.99Z"/>
        <polygon class="cls-2" points="189.28 146.02 188.74 148.8 193.67 149.74 193.2 152.2 188.27 151.26 187.67 154.43 193.17 155.49 192.69 157.98 184.15 156.33 186.72 142.95 194.99 144.54 194.51 147.02 189.28 146.02"/>
      </g>
      <g>
        <path class="cls-3" d="M185.5,164.36c-3.96-.75-7.09,1.75-7.87,5.76-.73,3.81,1.02,7.26,5,8.02,3.91.74,7.08-1.4,7.93-5.79.71-3.69-.95-7.21-5.06-7.99ZM187.33,171.83c-.49,2.61-2.04,4.33-4.09,3.94-2.03-.39-2.9-2.48-2.4-5.09.5-2.61,2.07-4.32,4.11-3.93,2.09.4,2.85,2.68,2.38,5.08ZM168.32,161.29l-.49,2.54,3.6.7-2.08,10.85,3.04.58,2.08-10.85,3.65.71.49-2.55-10.29-1.97ZM161.2,159.7c-3.95-.76-7.09,1.74-7.86,5.76-.73,3.81,1.02,7.26,4.99,8.01,3.92.75,7.08-1.4,7.93-5.79.72-3.69-.94-7.2-5.06-7.99ZM163.05,167.18c-.5,2.6-2.05,4.32-4.1,3.93-2.02-.38-2.9-2.47-2.4-5.09.5-2.6,2.07-4.32,4.12-3.93,2.09.4,2.84,2.69,2.38,5.09ZM147.44,157.92l.23-1.17-2.84-.55-.23,1.18c-2.63-.27-6.1.8-6.92,5.04-.79,4.12,1.7,6.3,4.56,7.07l-.24,1.21,2.84.54.24-1.21c3.01.29,6.11-.84,6.91-4.98.79-4.16-1.74-6.39-4.55-7.13ZM142.66,167.39c-1.17-.38-2.43-1.82-1.93-4.45.54-2.82,2.25-3.56,3.45-3.5l-1.52,7.95ZM148.94,164.48c-.54,2.84-2.24,3.55-3.44,3.46l1.52-7.95c1.22.4,2.47,1.67,1.92,4.49Z"/>
        <path class="cls-3" d="M194.51,147.02l.48-2.48-8.27-1.59-2.57,13.38,8.54,1.65.48-2.49-5.51-1.06.61-3.17,4.93.94.47-2.46-4.93-.94.54-2.78,5.22,1ZM181.14,141.88l-2.1,10.9-3.31-.64,2.09-10.9-2.96-.57-2.1,10.9-3.29-.64,2.09-10.9-2.98-.57-2.57,13.39,15.52,2.97,2.57-13.38-2.96-.57ZM162.64,138.34l-3.97-.76-6.66,12.6,3.14.61,1.62-3.25,3.83.73.37,3.63,3.26.62-1.59-14.18ZM157.64,145.34l1.33-2.68c.37-.73.76-1.7,1.12-2.47h.04c.05.84.09,1.88.18,2.72l.29,3-2.96-.57ZM152.46,139.78c.23-1.21-.27-2.25-1.11-2.93-.86-.76-1.96-1.16-3.81-1.51-1.51-.29-3.14-.48-3.97-.47l-2.52,13.15c.66.23,1.74.54,3.23.82,2.66.51,4.38.39,5.5-.21.97-.51,1.7-1.36,1.94-2.57.33-1.73-.58-3.1-2.03-3.81v-.04c1.63-.26,2.53-1.24,2.76-2.44ZM148.57,145.33c-.27,1.41-1.58,1.69-2.95,1.44-.52-.11-.88-.18-1.17-.26l.73-3.78,1.03.21c1.51.28,2.62,1.06,2.36,2.4ZM149.35,139.57c-.19,1-1.18,1.49-2.76,1.19l-.99-.2.6-3.12c.26,0,.65.04,1.3.17,1.37.26,2.05.95,1.85,1.96Z"/>
      </g>
    </g>
  </g>
</svg>