<?xml version="1.0" encoding="UTF-8"?>
<svg id="_Слой_1" xmlns="http://www.w3.org/2000/svg" version="1.1" viewBox="0 0 256 256">
  <!-- Generator: Adobe Illustrator 29.1.0, SVG Export Plug-In . SVG Version: 2.1.0 Build 142)  -->
  <defs>
    <style>
      .st0 {
        fill-rule: evenodd;
      }

      .st0, .st1 {
        fill: #ed1117;
      }

      .st2 {
        fill: #f2f2f2;
      }
    </style>
  </defs>
  <rect class="st2" width="256" height="256"/>
  <g id="_Слой_1-2">
    <g id="_1355722128816">
      <g>
        <g>
          <polygon class="st0" points="93.6 170.9 98.4 170.1 100.7 184.7 95.9 185.4 93.6 170.9"/>
          <path class="st1" d="M91.8,171.9l-2.5-15.9,8.7-1.3,2.5,15.9-8.7,1.3ZM90.9,157.1l2,13.1,5.9-.9-2.1-13.1-5.9.9Z"/>
          <polygon class="st0" points="89.1 141.8 93.9 141 96.1 155.6 91.4 156.3 89.1 141.8"/>
          <path class="st1" d="M87.3,142.8l-2.5-15.9,8.7-1.3,2.5,15.9-8.7,1.3ZM86.4,128l2.1,13.1,5.9-.9-2.1-13.1-5.9.9Z"/>
        </g>
        <polygon class="st0" points="84.6 112.7 89.3 112 91.6 126.5 86.8 127.2 84.6 112.7"/>
        <path class="st1" d="M81.7,114.9c-1.3,0-2.7,0-4-.2l-1.9-.2h0c-8.2-1.5-15.6-5.8-20.8-12.4-5.6-7.1-8.1-16-7.1-25,2.2-18.6,19-31.9,37.6-29.8,9,1,17.1,5.5,22.7,12.6,5.6,7.1,8.1,16,7.1,25s-5.5,17.1-12.6,22.7c-6.1,4.8-13.4,7.3-21,7.3ZM79,110.5c7.6.7,15.1-1.5,21.1-6.3,6.2-4.9,10.1-12,11.1-19.8.9-7.9-1.3-15.6-6.2-21.8-4.9-6.2-12-10.1-19.8-11.1-16.3-1.9-31,9.8-32.9,26-.9,7.9,1.3,15.6,6.2,21.8,4.9,6.2,12,10.1,19.8,11.1h.8Z"/>
      </g>
      <path class="st0" d="M96.1,197.9l25.8,12.9c3.5,1.8,7.9.3,9.7-3.1l69.1-133.7c1.8-3.5.4-7.8-3.1-9.6l-25.8-12.9c-3.5-1.8-7.9-.3-9.7,3.2l-69.1,133.7c-1.8,3.5-.4,7.8,3.1,9.6h0Z"/>
      <path class="st2" d="M125.1,208.6c-.7,0-1.3-.1-1.9-.4l-25.8-12.9c-1-.5-1.7-1.3-2-2.4-.3-1-.2-2.1.3-3.1L164.7,56c.7-1.4,2.2-2.3,3.8-2.3s1.3.1,1.9.4l25.8,12.9c1,.5,1.7,1.3,2,2.4.3,1,.2,2.1-.3,3.1l-69.1,133.7c-.7,1.4-2.2,2.3-3.8,2.3ZM168.5,55.7c-.9,0-1.7.5-2,1.2l-69.1,133.7c-.3.5-.3,1-.1,1.6.2.5.5,1,1,1.2l25.8,12.9c1.1.5,2.5,0,3-1l69.1-133.7c.3-.5.3-1,.1-1.6-.2-.5-.5-1-1-1.2l-25.8-12.9c-.3-.2-.6-.2-1-.2Z"/>
      <g>
        <path class="st2" d="M119.6,184.3c3.8,1.9,5.6,4.8,4,7.9s-5.2,3.1-8.6,1.3c-3.5-1.8-5.6-4.8-3.9-7.9s5.2-3.1,8.6-1.3ZM116.4,190.7c2.8,1.5,4.5,1.5,5,.4s-.5-2.4-3.3-3.9c-2.7-1.4-4.4-1.5-5-.4s.4,2.5,3.3,3.9Z"/>
        <path class="st2" d="M118.7,177.5h0s0,2.9,0,2.9l-2.4-.6.2-4,1.2-2.4,12.2,6.3-1.4,2.8-9.7-5Z"/>
        <path class="st2" d="M127.3,153c.4-1.1,1-2.8,1.9-4.5s2.2-3.5,3.6-4.1c1.1-.5,2.4-.5,3.7.2s2.4,2.9,2.3,4.4h0c.9-.8,2.2-.8,3.7-.5,1.9.4,4,.9,4.7.9l-1.7,3.4c-.6,0-1.9-.2-3.9-.7-2-.5-2.8-.2-3.5,1.2l-.5,1,5.7,2.9-1.7,3.3-14.3-7.4ZM135.2,153l.7-1.3c.8-1.6.5-3-.7-3.7s-2.5-.1-3.3,1.4c-.4.8-.6,1.3-.7,1.5l4,2.1Z"/>
        <path class="st2" d="M148.4,129.8c4.3,2.2,6.4,5.5,4.6,9.1-1.9,3.6-5.9,3.5-9.9,1.5-4-2.1-6.4-5.4-4.5-9.1,1.9-3.7,6-3.5,9.8-1.5ZM144.7,137.1c3.2,1.7,5.1,1.7,5.8.4s-.6-2.8-3.8-4.4c-3.1-1.6-5.1-1.8-5.8-.5s.5,2.8,3.7,4.5Z"/>
        <path class="st2" d="M154.4,129.6c.3-.4.4-.8.7-1.4.4-1,.7-2.2.6-3.2-.2-1.2-.8-2.3-1.7-3.1h0c.3,1,.2,2.1-.4,3.4-1.2,2.4-3.9,3.5-6.6,2.1-2.7-1.4-3.9-4.8-2.3-7.9s5.5-3.9,8.7-2.2c2.9,1.5,4.6,3.5,5.2,5.8.5,2,.2,4.1-.8,6.3-.2.6-.6,1.1-.8,1.5l-2.6-1.3ZM146.9,120.8c-.6,1.1,0,2.4,1.5,3.2,1.2.6,2.6.5,3.3-.8s.3-1.7,0-2.3c-.1-.2-.3-.4-.7-.6-1.5-.8-3.2-1-4,.5h0Z"/>
        <path class="st2" d="M160.6,117.6c.3-.4.4-.8.7-1.4.4-1,.7-2.2.6-3.2-.2-1.2-.8-2.3-1.7-3.1h0c.3,1,.2,2.1-.4,3.4-1.2,2.4-3.9,3.5-6.6,2.1s-3.9-4.8-2.3-7.9,5.5-3.9,8.7-2.2,4.6,3.5,5.2,5.8c.5,2,.2,4.1-.8,6.3-.2.6-.6,1.1-.8,1.5l-2.6-1.3ZM153.1,108.9c-.6,1.1,0,2.4,1.5,3.2,1.2.6,2.6.5,3.3-.8s.3-1.7,0-2.3c-.1-.2-.3-.4-.7-.6-1.5-.8-3.2-1-4,.5h0Z"/>
        <path class="st2" d="M171.8,87.9c-1.8-.8-3.9-1.8-6-2.9h0c1.6,1.5,3.4,3.1,4.8,4.6l4.8,4.7-1.3,2.6-6.4-1.3c-2-.4-4.3-1-6.4-1.6h0c1.9,1.1,4.1,2.3,5.9,3.4l5.4,3.1-1.6,3-14-8.4,2.2-4.4,5.6,1.1c1.9.4,4,.9,5.8,1.4h0c-1.5-1.3-3.1-2.8-4.5-4.1l-4-4,2.2-4.3,14.9,6.7-1.6,3.2-5.7-2.6Z"/>
        <path class="st2" d="M185.4,74c0,.8-.4,2.3-1.3,4.1-2.6,5-7,6-11.2,3.9-5-2.5-5.9-7.5-3.6-11.9.9-1.7,1.9-2.8,2.5-3.2l2.3,2c-.6.5-1.4,1.3-2,2.5-1.3,2.6-.8,5.4,2.4,7.1s5.6.7,7.1-2.2c.5-1,.9-2.2.9-3l2.8.8Z"/>
        <rect class="st2" x="127.2" y="149.5" width="2" height="35.2" transform="translate(-78.9 205.1) rotate(-62.9)"/>
      </g>
    </g>
  </g>
</svg>