<?xml version="1.0" encoding="UTF-8"?>
<svg id="_Слой_1" data-name="Слой 1" xmlns="http://www.w3.org/2000/svg" viewBox="0 0 256 256">
  <defs>
    <style>
      .cls-1 {
        fill: #f2f2f2;
      }

      .cls-2 {
        fill: #ed1117;
      }

      .cls-3 {
        fill: #fefefe;
      }
    </style>
  </defs>
  <rect class="cls-1" x="0" width="256" height="256"/>
  <g>
    <path class="cls-2" d="M187,209.26c-.26-7.2.25-7.22-.01-14.42-.27-7.2-.18-7.21-.43-14.41-.27-7.2.15-7.22-.1-14.42-.27-7.2-1.12-7.17-1.38-14.37-.26-7.2.25-7.22-.02-14.42-.26-7.2-.8-7.18-1.06-14.38-.26-7.2-1.94-7.45-.62-14.54,1.44-7.69,5.62-9.74.21-14.5-5.72-5.02-7.93-.53-15.12-.17v-30.6c0-22.36-18.19-40.55-40.55-40.55s-40.55,18.19-40.55,40.55v30.5c-7.18-.33-9.13-4.44-14.85.59-5.41,4.75.21,7.11-.06,14.31-.27,7.2-1.37,7.16-1.64,14.36-.26,7.2.1,7.21-.17,14.41-.26,7.2-.51,7.19-.76,14.4-.27,7.2-.07,7.2-.33,14.4-.27,7.2-.03,7.21-.29,14.42-.27,7.2.14,7.21-.11,14.41-.27,7.2-1.27,7.17-1.54,14.37-.26,7.21-4.74,9.03.37,14.1,5.35,5.3,7.2.25,14.73.25s7.53-.35,15.06-.35,7.53.56,15.06.56,7.53-.24,15.06-.24,7.53.1,15.06.1,7.53-.26,15.06-.26,7.53.71,15.07.71,10.03,5.18,15.38-.12c5.11-5.07-1.2-7.49-1.47-14.69ZM151.68,94.23c-7.92,0-7.92-.61-15.85-.61s-7.92.8-15.86.8-7.92.15-15.86.15c-4.35,0-6.31-.31-8.5-.58v-30.96c0-17.8,14.47-32.28,32.28-32.28s32.28,14.48,32.28,32.28v30.87c-2.19.15-4.15.33-8.5.33Z"/>
    <g>
      <path class="cls-3" d="M102.59,174.52v1.44c-3.16.27-7.03,2.33-7.03,7.51s3.43,7.05,6.98,7.32v1.48h3.48v-1.48c3.62-.34,7.03-2.38,7.03-7.44s-3.5-7.15-6.98-7.39v-1.44h-3.48ZM102.57,188.2c-1.46-.2-3.28-1.6-3.28-4.81,0-3.45,1.85-4.72,3.28-4.91v9.72ZM106.04,178.48c1.53.2,3.28,1.41,3.28,4.86s-1.85,4.69-3.28,4.86v-9.72ZM122.72,174.93c-4.84,0-7.97,3.67-7.97,8.58s2.84,8.34,7.71,8.34,8.05-3.26,8.05-8.63c0-4.52-2.75-8.29-7.78-8.29h0ZM122.62,177.87c2.55,0,3.96,2.53,3.96,5.47,0,3.19-1.44,5.57-3.94,5.57s-3.99-2.26-3.99-5.47,1.46-5.57,3.96-5.57h0ZM135.87,191.58h3.72v-13.27h4.47v-3.11h-12.59v3.11h4.4v13.27ZM152.45,174.93c-4.84,0-7.97,3.67-7.97,8.58s2.84,8.34,7.71,8.34,8.05-3.26,8.05-8.63c0-4.52-2.75-8.29-7.78-8.29h0ZM152.36,177.87c2.55,0,3.96,2.53,3.96,5.47,0,3.19-1.44,5.57-3.94,5.57s-3.99-2.26-3.99-5.47,1.46-5.57,3.96-5.57h0Z"/>
      <path class="cls-3" d="M96.3,165.7c.83.12,2.19.24,4.01.24,3.26,0,5.25-.53,6.44-1.48,1.02-.83,1.7-1.99,1.7-3.48,0-2.11-1.38-3.53-3.26-4.04v-.05c1.85-.68,2.7-2.04,2.7-3.5s-.83-2.6-1.97-3.21c-1.19-.71-2.58-.93-4.84-.93-1.85,0-3.82.15-4.79.34v16.09h0ZM99.97,152.06c.32-.05.78-.1,1.58-.1,1.68,0,2.62.66,2.62,1.89s-1.05,2.02-2.99,2.02h-1.22v-3.82h0ZM99.97,158.53h1.26c1.85,0,3.33.66,3.33,2.31s-1.48,2.36-3.16,2.36c-.63,0-1.07,0-1.44-.05v-4.62h0ZM119.41,161.57l1.26,4.21h3.99l-5.08-16.38h-4.86l-5.01,16.38h3.84l1.17-4.21h4.69,0ZM115.26,158.8l.97-3.48c.27-.95.51-2.19.75-3.16h.05c.24.97.53,2.19.83,3.16l1.02,3.48h-3.62,0ZM126.85,149.39v16.38h18.99v-16.38h-3.62v13.35h-4.06v-13.35h-3.62v13.35h-4.04v-13.35h-3.65,0ZM158.8,155.83h-6.03v-3.4h6.39v-3.04h-10.11v16.38h10.45v-3.04h-6.73v-3.89h6.03v-3.01h0Z"/>
      <path class="cls-3" d="M93.82,126.81c.92-.46,2.33-.97,3.6-.97,1.58,0,2.48.73,2.48,1.8,0,1.29-1.26,2.07-2.94,2.07h-1.53v2.72h1.56c1.53,0,3.43.36,3.43,2.19,0,1.36-1.14,2.14-3.01,2.14-1.53,0-3.23-.58-3.96-1l-.78,2.87c1.36.78,3.21,1.14,4.91,1.14,3.06,0,6.76-1.26,6.76-4.91,0-2.21-1.8-3.62-3.84-3.89v-.05c1.89-.46,3.28-1.82,3.28-3.87,0-2.41-2.11-4.21-5.71-4.21-2.26,0-3.96.63-5.1,1.31l.87,2.65h0ZM109.06,123.11v4.38c0,1.99-.2,3.79-.66,5.44-.36,1.29-.9,2.48-1.56,3.65l-1.36.1.15,6.98h2.82l.2-4.16h9.58l.2,4.16h2.82l.17-6.98-1.64-.1v-13.47s-10.72,0-10.72,0ZM112.49,126.13h3.57v10.36h-5.44c.44-.78.85-1.78,1.14-2.8.49-1.63.73-3.48.73-5.37v-2.19h0ZM133.25,129.56h-6.03v-3.4h6.39v-3.04h-10.11v16.38h10.45v-3.04h-6.73v-3.89h6.03v-3.01h0ZM147.96,136.15c-.73.29-1.97.53-3.09.53-3.31,0-5.25-2.07-5.25-5.35,0-3.65,2.29-5.42,5.23-5.42,1.31,0,2.36.29,3.11.61l.75-2.94c-.66-.34-2.11-.73-4.04-.73-4.96,0-8.95,3.11-8.95,8.7,0,4.67,2.92,8.22,8.58,8.22,1.99,0,3.53-.39,4.21-.73l-.56-2.89h0ZM150.94,123.12v16.31c.83.12,2.19.24,4.01.24,2.55,0,5.3-.49,6.88-2.09.8-.85,1.31-2.02,1.31-3.57,0-3.65-2.99-5.32-6.52-5.32-.71,0-1.48.05-1.99.12v-5.69h-3.7ZM154.62,131.62c.46-.05.9-.1,1.44-.1,1.78,0,3.21.78,3.21,2.65s-1.46,2.72-3.26,2.72c-.53,0-.97-.02-1.38-.1v-5.18h0Z"/>
    </g>
  </g>
</svg>