<?xml version="1.0" encoding="UTF-8"?>
<svg id="_Слой_2" data-name="Слой 2" xmlns="http://www.w3.org/2000/svg" viewBox="0 0 87.44 14.73">
  <defs>
    <style>
      .cls-1 {
        fill: #eed23d;
      }
    </style>
  </defs>
  <g id="_Слой_1-2" data-name="Слой 1">
    <g>
      <path class="cls-1" d="M8.16.32l1.51,4.64c.06.19.24.32.44.32h4.87c.45,0,.63.57.27.84l-3.94,2.86c-.16.12-.23.33-.17.52l1.51,4.64c.14.43-.35.78-.71.52l-3.94-2.86c-.16-.12-.38-.12-.54,0l-3.94,2.86c-.36.26-.85-.09-.71-.52l1.51-4.64c.06-.19,0-.4-.17-.52L.19,6.11c-.36-.26-.18-.84.27-.84h4.87c.2,0,.38-.13.44-.32L7.28.32c.14-.43.74-.43.88,0Z"/>
      <path class="cls-1" d="M26.16.32l1.51,4.64c.06.19.24.32.44.32h4.87c.45,0,.63.57.27.84l-3.94,2.86c-.16.12-.23.33-.17.52l1.51,4.64c.14.43-.35.78-.71.52l-3.94-2.86c-.16-.12-.38-.12-.54,0l-3.94,2.86c-.36.26-.85-.09-.71-.52l1.51-4.64c.06-.19,0-.4-.17-.52l-3.94-2.86c-.36-.26-.18-.84.27-.84h4.87c.2,0,.38-.13.44-.32l1.51-4.64c.14-.43.74-.43.88,0Z"/>
      <path class="cls-1" d="M44.16.32l1.51,4.64c.06.19.24.32.44.32h4.87c.45,0,.63.57.27.84l-3.94,2.86c-.16.12-.23.33-.17.52l1.51,4.64c.14.43-.35.78-.71.52l-3.94-2.86c-.16-.12-.38-.12-.54,0l-3.94,2.86c-.36.26-.85-.09-.71-.52l1.51-4.64c.06-.19,0-.4-.17-.52l-3.94-2.86c-.36-.26-.18-.84.27-.84h4.87c.2,0,.38-.13.44-.32l1.51-4.64c.14-.43.74-.43.88,0Z"/>
      <path class="cls-1" d="M62.16.32l1.51,4.64c.06.19.24.32.44.32h4.87c.45,0,.63.57.27.84l-3.94,2.86c-.16.12-.23.33-.17.52l1.51,4.64c.14.43-.35.78-.71.52l-3.94-2.86c-.16-.12-.38-.12-.54,0l-3.94,2.86c-.36.26-.85-.09-.71-.52l1.51-4.64c.06-.19,0-.4-.17-.52l-3.94-2.86c-.36-.26-.18-.84.27-.84h4.87c.2,0,.38-.13.44-.32l1.51-4.64c.14-.43.74-.43.88,0Z"/>
      <path class="cls-1" d="M80.16.32l1.51,4.64c.06.19.24.32.44.32h4.87c.45,0,.63.57.27.84l-3.94,2.86c-.16.12-.23.33-.17.52l1.51,4.64c.14.43-.35.78-.71.52l-3.94-2.86c-.16-.12-.38-.12-.54,0l-3.94,2.86c-.36.26-.85-.09-.71-.52l1.51-4.64c.06-.19,0-.4-.17-.52l-3.94-2.86c-.36-.26-.18-.84.27-.84h4.87c.2,0,.38-.13.44-.32l1.51-4.64c.14-.43.74-.43.88,0Z"/>
    </g>
  </g>
</svg>